<svg width="617" height="585" xmlns="http://www.w3.org/2000/svg" xmlns:xlink="http://www.w3.org/1999/xlink" overflow="hidden"><defs><clipPath id="clip0"><path d="M-4 30 613 30 613 615-4 615Z" fill-rule="evenodd" clip-rule="evenodd"/></clipPath></defs><g clip-path="url(#clip0)" transform="translate(4 -30)"><path d="M1.5-2.99445e-07 1.5001 522.937-1.4999 522.937-1.5 2.99445e-07ZM6.54577 514.694 0.000108708 525.915-6.54557 514.694C-6.96299 513.978-6.72128 513.06-6.0057 512.643-5.29013 512.225-4.37165 512.467-3.95423 513.182L1.29577 522.182-1.29557 522.182 3.95443 513.182C4.37185 512.467 5.29033 512.225 6.00591 512.642 6.72148 513.06 6.96319 513.978 6.54577 514.694Z" transform="matrix(1 0 0 -1 43.5001 570.408)"/><path d="M41.5001 569 595.821 569 595.821 572 41.5001 572ZM587.578 563.954 598.799 570.5 587.578 577.046C586.862 577.463 585.944 577.222 585.527 576.506 585.109 575.79 585.351 574.872 586.067 574.454L595.067 569.204 595.067 571.796 586.067 566.546C585.351 566.128 585.109 565.21 585.527 564.494 585.944 563.779 586.863 563.537 587.578 563.954Z"/><text font-family="Calibri,Calibri_MSFontService,sans-serif" font-weight="400" font-size="20" transform="matrix(-1.83697e-16 -1 1 -1.83697e-16 21.5041 96)">Error</text><text font-family="Calibri,Calibri_MSFontService,sans-serif" font-weight="400" font-size="20" transform="translate(477.292 598)">Running Time</text><path d="M33.6621 556.99 41.854 565.182 50.0459 556.99 54.9317 561.876 46.7399 570.068 54.9317 578.26 50.4184 582.773 42.2265 574.581 34.0347 582.773 29.1488 577.887 37.3407 569.696 29.1488 561.504Z" fill="#FF0000" fill-rule="evenodd"/><text fill="#C00000" font-family="Calibri,Calibri_MSFontService,sans-serif" font-weight="400" font-size="19" transform="translate(55.9276 560)">BEST</text><path d="M262.5 393C262.5 348.541 300.556 312.5 347.5 312.5 394.444 312.5 432.5 348.541 432.5 393 432.5 437.459 394.444 473.5 347.5 473.5 300.556 473.5 262.5 437.459 262.5 393Z" stroke="#000000" stroke-width="0.666667" stroke-miterlimit="8" stroke-opacity="0.301961" fill="#FFFFFF" fill-rule="evenodd"/><text fill="#000000" fill-opacity="0.4" font-family="Calibri,Calibri_MSFontService,sans-serif" font-weight="400" font-size="23" transform="translate(289.057 388)">Transformed<tspan x="13.3" y="27">Online </tspan>CP</text><path d="M418.5 476C418.5 431.541 456.556 395.5 503.5 395.5 550.444 395.5 588.5 431.541 588.5 476 588.5 520.459 550.444 556.5 503.5 556.5 456.556 556.5 418.5 520.459 418.5 476Z" stroke="#000000" stroke-width="0.666667" stroke-miterlimit="8" stroke-opacity="0.301961" fill="#FFFFFF" fill-rule="evenodd"/><text fill="#000000" fill-opacity="0.4" font-family="Calibri,Calibri_MSFontService,sans-serif" font-weight="400" font-size="27" transform="translate(466.694 486)">Full CP</text><path d="M119.5 295C119.5 247.78 157.332 209.5 204 209.5 250.668 209.5 288.5 247.78 288.5 295 288.5 342.22 250.668 380.5 204 380.5 157.332 380.5 119.5 342.22 119.5 295Z" stroke="#000000" stroke-width="0.666667" stroke-miterlimit="8" stroke-opacity="0.301961" fill="#FFFFFF" fill-rule="evenodd"/><text fill="#000000" fill-opacity="0.4" font-family="Calibri,Calibri_MSFontService,sans-serif" font-weight="400" font-size="27" transform="translate(181.141 305)">DTD</text><path d="M53.5001 137C53.5001 92.5411 91.7797 56.5001 139 56.5001 186.22 56.5001 224.5 92.5411 224.5 137 224.5 181.459 186.22 217.5 139 217.5 91.7797 217.5 53.5001 181.459 53.5001 137Z" stroke="#000000" stroke-width="0.666667" stroke-miterlimit="8" stroke-opacity="0.301961" fill="#FFFFFF" fill-rule="evenodd"/><text fill="#000000" fill-opacity="0.4" font-family="Calibri,Calibri_MSFontService,sans-serif" font-weight="400" font-size="27" transform="translate(85.8828 148)">Online CP</text><path d="M141.5 415.5C141.5 368.556 179.332 330.5 226 330.5 272.668 330.5 310.5 368.556 310.5 415.5 310.5 462.444 272.668 500.5 226 500.5 179.332 500.5 141.5 462.444 141.5 415.5Z" stroke="#000000" stroke-width="0.666667" stroke-miterlimit="8" fill="#FFFFFF" fill-rule="evenodd"/><text font-family="Calibri,Calibri_MSFontService,sans-serif" font-weight="400" font-size="27" transform="translate(202.738 407)">DTD<tspan font-size="16" x="-24.1267" y="22">w. drastic data </tspan><tspan font-size="16" x="-5.23332" y="41">handling</tspan></text><path d="M360.5 480C360.5 435.541 398.556 399.5 445.5 399.5 492.444 399.5 530.5 435.541 530.5 480 530.5 524.459 492.444 560.5 445.5 560.5 398.556 560.5 360.5 524.459 360.5 480Z" stroke="#000000" stroke-width="0.666667" stroke-miterlimit="8" fill="#FFFFFF" fill-rule="evenodd"/><text font-family="Calibri,Calibri_MSFontService,sans-serif" font-weight="400" font-size="23" transform="translate(387.019 456)">Transformed<tspan x="13.3" y="27">Online CP</tspan><tspan font-size="16" x="11.1534" y="48">w. drastic data </tspan><tspan font-size="16" x="30.0533" y="68">handling</tspan></text><path d="M54.5001 255C54.5001 207.78 92.332 169.5 139 169.5 185.668 169.5 223.5 207.78 223.5 255 223.5 302.22 185.668 340.5 139 340.5 92.332 340.5 54.5001 302.22 54.5001 255Z" stroke="#000000" stroke-width="0.666667" stroke-miterlimit="8" fill="#FFFFFF" fill-rule="evenodd"/><text font-family="Calibri,Calibri_MSFontService,sans-serif" font-weight="400" font-size="27" transform="translate(86.1694 246)">Online CP<tspan font-size="16" x="5.85333" y="22">w. drastic data </tspan><tspan font-size="16" x="24.7467" y="41">handling</tspan></text></g></svg>