<svg width="727" height="231" xmlns="http://www.w3.org/2000/svg" xmlns:xlink="http://www.w3.org/1999/xlink" overflow="hidden"><defs><clipPath id="clip0"><path d="M-12 419 715 419 715 650-12 650Z" fill-rule="evenodd" clip-rule="evenodd"/></clipPath></defs><g clip-path="url(#clip0)" transform="translate(12 -419)"><rect x="143.5" y="463.397" width="22.1032" height="57.1032" fill="#92D050" fill-opacity="0.701961"/><path d="M165.603 463.397 208.5 420.5 208.5 477.603 165.603 520.5Z" fill="#75A740" fill-rule="evenodd" fill-opacity="0.701961"/><path d="M143.5 463.397 186.397 420.5 208.5 420.5 165.603 463.397Z" fill="#A7D972" fill-rule="evenodd" fill-opacity="0.701961"/><path d="M143.5 463.397 186.397 420.5 208.5 420.5 208.5 477.603 165.603 520.5 143.5 520.5ZM143.5 463.397 165.603 463.397 208.5 420.5M165.603 463.397 165.603 520.5" stroke="#000000" stroke-width="0.666667" stroke-miterlimit="8" fill="none" fill-rule="evenodd"/><rect x="165.5" y="463.397" width="22.1032" height="57.1032" fill="#92D050" fill-opacity="0.701961"/><path d="M187.603 463.397 230.5 420.5 230.5 477.603 187.603 520.5Z" fill="#75A740" fill-rule="evenodd" fill-opacity="0.701961"/><path d="M165.5 463.397 208.397 420.5 230.5 420.5 187.603 463.397Z" fill="#A7D972" fill-rule="evenodd" fill-opacity="0.701961"/><path d="M165.5 463.397 208.397 420.5 230.5 420.5 230.5 477.603 187.603 520.5 165.5 520.5ZM165.5 463.397 187.603 463.397 230.5 420.5M187.603 463.397 187.603 520.5" stroke="#000000" stroke-width="0.666667" stroke-miterlimit="8" fill="none" fill-rule="evenodd"/><rect x="187.5" y="463.397" width="22.1032" height="57.1032" fill="#92D050" fill-opacity="0.701961"/><path d="M209.603 463.397 252.5 420.5 252.5 477.603 209.603 520.5Z" fill="#75A740" fill-rule="evenodd" fill-opacity="0.701961"/><path d="M187.5 463.397 230.397 420.5 252.5 420.5 209.603 463.397Z" fill="#A7D972" fill-rule="evenodd" fill-opacity="0.701961"/><path d="M187.5 463.397 230.397 420.5 252.5 420.5 252.5 477.603 209.603 520.5 187.5 520.5ZM187.5 463.397 209.603 463.397 252.5 420.5M209.603 463.397 209.603 520.5" stroke="#000000" stroke-width="0.666667" stroke-miterlimit="8" fill="none" fill-rule="evenodd"/><rect x="209.5" y="463.397" width="22.1032" height="57.1032" fill="#92D050" fill-opacity="0.701961"/><path d="M231.603 463.397 274.5 420.5 274.5 477.603 231.603 520.5Z" fill="#75A740" fill-rule="evenodd" fill-opacity="0.701961"/><path d="M209.5 463.397 252.397 420.5 274.5 420.5 231.603 463.397Z" fill="#A7D972" fill-rule="evenodd" fill-opacity="0.701961"/><path d="M209.5 463.397 252.397 420.5 274.5 420.5 274.5 477.603 231.603 520.5 209.5 520.5ZM209.5 463.397 231.603 463.397 274.5 420.5M231.603 463.397 231.603 520.5" stroke="#000000" stroke-width="0.666667" stroke-miterlimit="8" fill="none" fill-rule="evenodd"/><rect x="231.5" y="463.397" width="22.1032" height="57.1032" fill="#92D050" fill-opacity="0.701961"/><path d="M253.603 463.397 296.5 420.5 296.5 477.603 253.603 520.5Z" fill="#75A740" fill-rule="evenodd" fill-opacity="0.701961"/><path d="M231.5 463.397 274.397 420.5 296.5 420.5 253.603 463.397Z" fill="#A7D972" fill-rule="evenodd" fill-opacity="0.701961"/><path d="M231.5 463.397 274.397 420.5 296.5 420.5 296.5 477.603 253.603 520.5 231.5 520.5ZM231.5 463.397 253.603 463.397 296.5 420.5M253.603 463.397 253.603 520.5" stroke="#000000" stroke-width="0.666667" stroke-miterlimit="8" fill="none" fill-rule="evenodd"/><rect x="253.5" y="463.397" width="22.1032" height="57.1032" fill="#92D050" fill-opacity="0.701961"/><path d="M275.603 463.397 318.5 420.5 318.5 477.603 275.603 520.5Z" fill="#75A740" fill-rule="evenodd" fill-opacity="0.701961"/><path d="M253.5 463.397 296.397 420.5 318.5 420.5 275.603 463.397Z" fill="#A7D972" fill-rule="evenodd" fill-opacity="0.701961"/><path d="M253.5 463.397 296.397 420.5 318.5 420.5 318.5 477.603 275.603 520.5 253.5 520.5ZM253.5 463.397 275.603 463.397 318.5 420.5M275.603 463.397 275.603 520.5" stroke="#000000" stroke-width="0.666667" stroke-miterlimit="8" fill="none" fill-rule="evenodd"/><rect x="275.5" y="463.397" width="22.1032" height="57.1032" fill="#FFFF00" fill-opacity="0.701961"/><path d="M297.603 463.397 340.5 420.5 340.5 477.603 297.603 520.5Z" fill="#CDCD00" fill-rule="evenodd" fill-opacity="0.701961"/><path d="M275.5 463.397 318.397 420.5 340.5 420.5 297.603 463.397Z" fill="#FFFF32" fill-rule="evenodd" fill-opacity="0.701961"/><path d="M275.5 463.397 318.397 420.5 340.5 420.5 340.5 477.603 297.603 520.5 275.5 520.5ZM275.5 463.397 297.603 463.397 340.5 420.5M297.603 463.397 297.603 520.5" stroke="#000000" stroke-width="0.666667" stroke-miterlimit="8" fill="none" fill-rule="evenodd"/><rect x="297.5" y="463.397" width="22.1032" height="57.1032" fill="#FFFF00" fill-opacity="0.701961"/><path d="M319.603 463.397 362.5 420.5 362.5 477.603 319.603 520.5Z" fill="#CDCD00" fill-rule="evenodd" fill-opacity="0.701961"/><path d="M297.5 463.397 340.397 420.5 362.5 420.5 319.603 463.397Z" fill="#FFFF32" fill-rule="evenodd" fill-opacity="0.701961"/><path d="M297.5 463.397 340.397 420.5 362.5 420.5 362.5 477.603 319.603 520.5 297.5 520.5ZM297.5 463.397 319.603 463.397 362.5 420.5M319.603 463.397 319.603 520.5" stroke="#000000" stroke-width="0.666667" stroke-miterlimit="8" fill="none" fill-rule="evenodd"/><rect x="319.5" y="463.397" width="22.1032" height="57.1032" fill="#FFFF00" fill-opacity="0.701961"/><path d="M341.603 463.397 384.5 420.5 384.5 477.603 341.603 520.5Z" fill="#CDCD00" fill-rule="evenodd" fill-opacity="0.701961"/><path d="M319.5 463.397 362.397 420.5 384.5 420.5 341.603 463.397Z" fill="#FFFF32" fill-rule="evenodd" fill-opacity="0.701961"/><path d="M319.5 463.397 362.397 420.5 384.5 420.5 384.5 477.603 341.603 520.5 319.5 520.5ZM319.5 463.397 341.603 463.397 384.5 420.5M341.603 463.397 341.603 520.5" stroke="#000000" stroke-width="0.666667" stroke-miterlimit="8" fill="none" fill-rule="evenodd"/><rect x="341.5" y="463.397" width="22.1032" height="57.1032" fill="#FFFF00" fill-opacity="0.701961"/><path d="M363.603 463.397 406.5 420.5 406.5 477.603 363.603 520.5Z" fill="#CDCD00" fill-rule="evenodd" fill-opacity="0.701961"/><path d="M341.5 463.397 384.397 420.5 406.5 420.5 363.603 463.397Z" fill="#FFFF32" fill-rule="evenodd" fill-opacity="0.701961"/><path d="M341.5 463.397 384.397 420.5 406.5 420.5 406.5 477.603 363.603 520.5 341.5 520.5ZM341.5 463.397 363.603 463.397 406.5 420.5M363.603 463.397 363.603 520.5" stroke="#000000" stroke-width="0.666667" stroke-miterlimit="8" fill="none" fill-rule="evenodd"/><rect x="363.5" y="463.397" width="22.1032" height="57.1032" fill="#FFFF00" fill-opacity="0.701961"/><path d="M385.603 463.397 428.5 420.5 428.5 477.603 385.603 520.5Z" fill="#CDCD00" fill-rule="evenodd" fill-opacity="0.701961"/><path d="M363.5 463.397 406.397 420.5 428.5 420.5 385.603 463.397Z" fill="#FFFF32" fill-rule="evenodd" fill-opacity="0.701961"/><path d="M363.5 463.397 406.397 420.5 428.5 420.5 428.5 477.603 385.603 520.5 363.5 520.5ZM363.5 463.397 385.603 463.397 428.5 420.5M385.603 463.397 385.603 520.5" stroke="#000000" stroke-width="0.666667" stroke-miterlimit="8" fill="none" fill-rule="evenodd"/><rect x="385.5" y="463.397" width="22.1032" height="57.1032" fill="#FF6600" fill-opacity="0.698039"/><path d="M407.603 463.397 450.5 420.5 450.5 477.603 407.603 520.5Z" fill="#CD5200" fill-rule="evenodd" fill-opacity="0.698039"/><path d="M385.5 463.397 428.397 420.5 450.5 420.5 407.603 463.397Z" fill="#FF8432" fill-rule="evenodd" fill-opacity="0.698039"/><path d="M385.5 463.397 428.397 420.5 450.5 420.5 450.5 477.603 407.603 520.5 385.5 520.5ZM385.5 463.397 407.603 463.397 450.5 420.5M407.603 463.397 407.603 520.5" stroke="#000000" stroke-width="0.666667" stroke-miterlimit="8" fill="none" fill-rule="evenodd"/><rect x="407.5" y="463.397" width="22.1032" height="57.1032" fill="#FF6600" fill-opacity="0.698039"/><path d="M429.603 463.397 472.5 420.5 472.5 477.603 429.603 520.5Z" fill="#CD5200" fill-rule="evenodd" fill-opacity="0.698039"/><path d="M407.5 463.397 450.397 420.5 472.5 420.5 429.603 463.397Z" fill="#FF8432" fill-rule="evenodd" fill-opacity="0.698039"/><path d="M407.5 463.397 450.397 420.5 472.5 420.5 472.5 477.603 429.603 520.5 407.5 520.5ZM407.5 463.397 429.603 463.397 472.5 420.5M429.603 463.397 429.603 520.5" stroke="#000000" stroke-width="0.666667" stroke-miterlimit="8" fill="none" fill-rule="evenodd"/><rect x="429.5" y="463.397" width="22.1032" height="57.1032" fill="#FF6600" fill-opacity="0.698039"/><path d="M451.603 463.397 494.5 420.5 494.5 477.603 451.603 520.5Z" fill="#CD5200" fill-rule="evenodd" fill-opacity="0.698039"/><path d="M429.5 463.397 472.397 420.5 494.5 420.5 451.603 463.397Z" fill="#FF8432" fill-rule="evenodd" fill-opacity="0.698039"/><path d="M429.5 463.397 472.397 420.5 494.5 420.5 494.5 477.603 451.603 520.5 429.5 520.5ZM429.5 463.397 451.603 463.397 494.5 420.5M451.603 463.397 451.603 520.5" stroke="#000000" stroke-width="0.666667" stroke-miterlimit="8" fill="none" fill-rule="evenodd"/><rect x="451.5" y="463.397" width="22.1032" height="57.1032" fill="#8497B0" fill-opacity="0.701961"/><path d="M473.603 463.397 516.5 420.5 516.5 477.603 473.603 520.5Z" fill="#6A798D" fill-rule="evenodd" fill-opacity="0.701961"/><path d="M451.5 463.397 494.397 420.5 516.5 420.5 473.603 463.397Z" fill="#9CABBF" fill-rule="evenodd" fill-opacity="0.701961"/><path d="M451.5 463.397 494.397 420.5 516.5 420.5 516.5 477.603 473.603 520.5 451.5 520.5ZM451.5 463.397 473.603 463.397 516.5 420.5M473.603 463.397 473.603 520.5" stroke="#000000" stroke-width="0.666667" stroke-miterlimit="8" fill="none" fill-rule="evenodd"/><rect x="473.5" y="463.397" width="22.1032" height="57.1032" fill="#8497B0" fill-opacity="0.701961"/><path d="M495.603 463.397 538.5 420.5 538.5 477.603 495.603 520.5Z" fill="#6A798D" fill-rule="evenodd" fill-opacity="0.701961"/><path d="M473.5 463.397 516.397 420.5 538.5 420.5 495.603 463.397Z" fill="#9CABBF" fill-rule="evenodd" fill-opacity="0.701961"/><path d="M473.5 463.397 516.397 420.5 538.5 420.5 538.5 477.603 495.603 520.5 473.5 520.5ZM473.5 463.397 495.603 463.397 538.5 420.5M495.603 463.397 495.603 520.5" stroke="#000000" stroke-width="0.666667" stroke-miterlimit="8" fill="none" fill-rule="evenodd"/><rect x="495.5" y="463.397" width="22.1032" height="57.1032" fill="#8497B0" fill-opacity="0.701961"/><path d="M517.603 463.397 560.5 420.5 560.5 477.603 517.603 520.5Z" fill="#6A798D" fill-rule="evenodd" fill-opacity="0.701961"/><path d="M495.5 463.397 538.397 420.5 560.5 420.5 517.603 463.397Z" fill="#9CABBF" fill-rule="evenodd" fill-opacity="0.701961"/><path d="M495.5 463.397 538.397 420.5 560.5 420.5 560.5 477.603 517.603 520.5 495.5 520.5ZM495.5 463.397 517.603 463.397 560.5 420.5M517.603 463.397 517.603 520.5" stroke="#000000" stroke-width="0.666667" stroke-miterlimit="8" fill="none" fill-rule="evenodd"/><rect x="517.5" y="463.397" width="22.1032" height="57.1032" fill="#8497B0" fill-opacity="0.701961"/><path d="M539.603 463.397 582.5 420.5 582.5 477.603 539.603 520.5Z" fill="#6A798D" fill-rule="evenodd" fill-opacity="0.701961"/><path d="M517.5 463.397 560.397 420.5 582.5 420.5 539.603 463.397Z" fill="#9CABBF" fill-rule="evenodd" fill-opacity="0.701961"/><path d="M517.5 463.397 560.397 420.5 582.5 420.5 582.5 477.603 539.603 520.5 517.5 520.5ZM517.5 463.397 539.603 463.397 582.5 420.5M539.603 463.397 539.603 520.5" stroke="#000000" stroke-width="0.666667" stroke-miterlimit="8" fill="none" fill-rule="evenodd"/><rect x="539.5" y="463.397" width="22.1032" height="57.1032" fill="#8497B0" fill-opacity="0.701961"/><path d="M561.603 463.397 604.5 420.5 604.5 477.603 561.603 520.5Z" fill="#6A798D" fill-rule="evenodd" fill-opacity="0.701961"/><path d="M539.5 463.397 582.397 420.5 604.5 420.5 561.603 463.397Z" fill="#9CABBF" fill-rule="evenodd" fill-opacity="0.701961"/><path d="M539.5 463.397 582.397 420.5 604.5 420.5 604.5 477.603 561.603 520.5 539.5 520.5ZM539.5 463.397 561.603 463.397 604.5 420.5M561.603 463.397 561.603 520.5" stroke="#000000" stroke-width="0.666667" stroke-miterlimit="8" fill="none" fill-rule="evenodd"/><rect x="561.5" y="463.397" width="22.1032" height="57.1032" fill="#8497B0" fill-opacity="0.701961"/><path d="M583.603 463.397 626.5 420.5 626.5 477.603 583.603 520.5Z" fill="#6A798D" fill-rule="evenodd" fill-opacity="0.701961"/><path d="M561.5 463.397 604.397 420.5 626.5 420.5 583.603 463.397Z" fill="#9CABBF" fill-rule="evenodd" fill-opacity="0.701961"/><path d="M561.5 463.397 604.397 420.5 626.5 420.5 626.5 477.603 583.603 520.5 561.5 520.5ZM561.5 463.397 583.603 463.397 626.5 420.5M583.603 463.397 583.603 520.5" stroke="#000000" stroke-width="0.666667" stroke-miterlimit="8" fill="none" fill-rule="evenodd"/><rect x="583.5" y="463.397" width="22.1032" height="57.1032" fill="#8497B0" fill-opacity="0.701961"/><path d="M605.603 463.397 648.5 420.5 648.5 477.603 605.603 520.5Z" fill="#6A798D" fill-rule="evenodd" fill-opacity="0.701961"/><path d="M583.5 463.397 626.397 420.5 648.5 420.5 605.603 463.397Z" fill="#9CABBF" fill-rule="evenodd" fill-opacity="0.701961"/><path d="M583.5 463.397 626.397 420.5 648.5 420.5 648.5 477.603 605.603 520.5 583.5 520.5ZM583.5 463.397 605.603 463.397 648.5 420.5M605.603 463.397 605.603 520.5" stroke="#000000" stroke-width="0.666667" stroke-miterlimit="8" fill="none" fill-rule="evenodd"/><rect x="605.5" y="463.397" width="22.1032" height="57.1032" fill="#8497B0" fill-opacity="0.701961"/><path d="M627.603 463.397 670.5 420.5 670.5 477.603 627.603 520.5Z" fill="#6A798D" fill-rule="evenodd" fill-opacity="0.701961"/><path d="M605.5 463.397 648.397 420.5 670.5 420.5 627.603 463.397Z" fill="#9CABBF" fill-rule="evenodd" fill-opacity="0.701961"/><path d="M605.5 463.397 648.397 420.5 670.5 420.5 670.5 477.603 627.603 520.5 605.5 520.5ZM605.5 463.397 627.603 463.397 670.5 420.5M627.603 463.397 627.603 520.5" stroke="#000000" stroke-width="0.666667" stroke-miterlimit="8" fill="none" fill-rule="evenodd"/><rect x="627.5" y="463.397" width="22.1032" height="57.1032" fill="#FFFFFF" fill-opacity="0.701961"/><path d="M649.603 463.397 692.5 420.5 692.5 477.603 649.603 520.5Z" fill="#CDCDCD" fill-rule="evenodd" fill-opacity="0.701961"/><path d="M627.5 463.397 670.397 420.5 692.5 420.5 649.603 463.397Z" fill="#FFFFFF" fill-rule="evenodd" fill-opacity="0.701961"/><path d="M627.5 463.397 670.397 420.5 692.5 420.5 692.5 477.603 649.603 520.5 627.5 520.5ZM627.5 463.397 649.603 463.397 692.5 420.5M649.603 463.397 649.603 520.5" stroke="#000000" stroke-width="0.666667" stroke-miterlimit="8" fill="none" fill-rule="evenodd"/><rect x="649.5" y="463.397" width="22.1032" height="57.1032" fill="#FFFFFF" fill-opacity="0.701961"/><path d="M671.603 463.397 714.5 420.5 714.5 477.603 671.603 520.5Z" fill="#CDCDCD" fill-rule="evenodd" fill-opacity="0.701961"/><path d="M649.5 463.397 692.397 420.5 714.5 420.5 671.603 463.397Z" fill="#FFFFFF" fill-rule="evenodd" fill-opacity="0.701961"/><path d="M649.5 463.397 692.397 420.5 714.5 420.5 714.5 477.603 671.603 520.5 649.5 520.5ZM649.5 463.397 671.603 463.397 714.5 420.5M671.603 463.397 671.603 520.5" stroke="#000000" stroke-width="0.666667" stroke-miterlimit="8" fill="none" fill-rule="evenodd"/><rect x="143.5" y="568.5" width="22" height="24" stroke="#000000" stroke-width="0.666667" stroke-miterlimit="8" fill="#B2DE84"/><rect x="165.5" y="568.5" width="22" height="24" stroke="#000000" stroke-width="0.666667" stroke-miterlimit="8" fill="#B2DE84"/><rect x="187.5" y="568.5" width="22" height="24" stroke="#000000" stroke-width="0.666667" stroke-miterlimit="8" fill="#B2DE84"/><rect x="209.5" y="568.5" width="22" height="24" stroke="#000000" stroke-width="0.666667" stroke-miterlimit="8" fill="#B2DE84"/><rect x="231.5" y="568.5" width="22" height="24" stroke="#000000" stroke-width="0.666667" stroke-miterlimit="8" fill="#B2DE84"/><rect x="253.5" y="568.5" width="22" height="24" stroke="#000000" stroke-width="0.666667" stroke-miterlimit="8" fill="#B2DE84"/><rect x="275.5" y="568.5" width="22" height="24" stroke="#000000" stroke-width="0.666667" stroke-miterlimit="8" fill="#FFFF4C"/><rect x="297.5" y="568.5" width="22" height="24" stroke="#000000" stroke-width="0.666667" stroke-miterlimit="8" fill="#FFFF4C"/><rect x="319.5" y="568.5" width="22" height="24" stroke="#000000" stroke-width="0.666667" stroke-miterlimit="8" fill="#FFFF4C"/><rect x="341.5" y="568.5" width="22" height="24" stroke="#000000" stroke-width="0.666667" stroke-miterlimit="8" fill="#FFFF4C"/><rect x="363.5" y="568.5" width="22" height="24" stroke="#000000" stroke-width="0.666667" stroke-miterlimit="8" fill="#FFFF4C"/><rect x="385.5" y="568.5" width="22" height="24" stroke="#000000" stroke-width="0.666667" stroke-miterlimit="8" fill="#FF944D"/><rect x="407.5" y="568.5" width="22" height="24" stroke="#000000" stroke-width="0.666667" stroke-miterlimit="8" fill="#FF944D"/><rect x="429.5" y="568.5" width="22" height="24" stroke="#000000" stroke-width="0.666667" stroke-miterlimit="8" fill="#FF944D"/><rect x="451.5" y="568.5" width="22" height="24" stroke="#000000" stroke-width="0.666667" stroke-miterlimit="8" fill="#A9B6C8"/><rect x="473.5" y="568.5" width="22" height="24" stroke="#000000" stroke-width="0.666667" stroke-miterlimit="8" fill="#A9B6C8"/><rect x="495.5" y="568.5" width="22" height="24" stroke="#000000" stroke-width="0.666667" stroke-miterlimit="8" fill="#A9B6C8"/><rect x="517.5" y="568.5" width="22" height="24" stroke="#000000" stroke-width="0.666667" stroke-miterlimit="8" fill="#A9B6C8"/><rect x="539.5" y="568.5" width="22" height="24" stroke="#000000" stroke-width="0.666667" stroke-miterlimit="8" fill="#A9B6C8"/><rect x="561.5" y="568.5" width="22" height="24" stroke="#000000" stroke-width="0.666667" stroke-miterlimit="8" fill="#A9B6C8"/><rect x="583.5" y="568.5" width="22" height="24" stroke="#000000" stroke-width="0.666667" stroke-miterlimit="8" fill="#A9B6C8"/><rect x="605.5" y="568.5" width="22" height="24" stroke="#000000" stroke-width="0.666667" stroke-miterlimit="8" fill="#A9B6C8"/><rect x="627.5" y="568.5" width="22" height="24" stroke="#000000" stroke-width="0.666667" stroke-miterlimit="8" fill="#FFFFFF"/><rect x="649.5" y="568.5" width="22" height="24" stroke="#000000" stroke-width="0.666667" stroke-miterlimit="8" fill="#FFFFFF"/><path d="M143.5 568.5 186.689 525.5 208.5 525.5 165.311 568.5Z" stroke="#000000" stroke-width="0.666667" stroke-miterlimit="8" fill="#FFFFFF" fill-rule="evenodd"/><rect x="143.5" y="592.5" width="22" height="57" stroke="#000000" stroke-width="0.666667" stroke-miterlimit="8" fill="#FFFFFF"/><text font-family="Calibri,Calibri_MSFontService,sans-serif" font-weight="400" font-size="19" transform="translate(18.6098 574)">Online Tensor <tspan x="-10.34" y="23">Decomposition</tspan></text></g></svg>