<svg width="890" height="439" xmlns="http://www.w3.org/2000/svg" xmlns:xlink="http://www.w3.org/1999/xlink" overflow="hidden"><defs><clipPath id="clip0"><path d="M434 121 1324 121 1324 560 434 560Z" fill-rule="evenodd" clip-rule="evenodd"/></clipPath></defs><g clip-path="url(#clip0)" transform="translate(-434 -121)"><path d="M1.5-4.23652e-07 1.5001 368.751-1.4999 368.751-1.5 4.23652e-07ZM6.54577 360.507 0.000104764 371.728-6.54557 360.507C-6.96299 359.791-6.72128 358.872-6.0057 358.455-5.29013 358.038-4.37165 358.279-3.95423 358.995L1.29577 367.995-1.29556 367.995 3.95443 358.995C4.37185 358.279 5.29033 358.038 6.00591 358.455 6.72149 358.872 6.96319 359.791 6.54577 360.507Z" transform="matrix(1 0 0 -1 480.5 507.221)"/><path d="M1.5-4.23652e-07 1.5001 368.751-1.4999 368.751-1.5 4.23652e-07ZM6.54577 360.507 0.000104764 371.728-6.54557 360.507C-6.96299 359.791-6.72128 358.872-6.0057 358.455-5.29013 358.038-4.37165 358.279-3.95423 358.995L1.29577 367.995-1.29556 367.995 3.95443 358.995C4.37185 358.279 5.29033 358.038 6.00591 358.455 6.72149 358.872 6.96319 359.791 6.54577 360.507Z" transform="matrix(-4.37114e-08 1 1 4.37114e-08 479.5 507.5)"/><text font-family="Arial,Arial_MSFontService,sans-serif" font-weight="400" font-size="27" transform="matrix(-1.83697e-16 -1 1 -1.83697e-16 468.518 387)">Error Norm</text><path d="M518.5 210C518.5 188.737 536.633 171.5 559 171.5 581.368 171.5 599.5 188.737 599.5 210 599.5 231.263 581.368 248.5 559 248.5 536.633 248.5 518.5 231.263 518.5 210Z" stroke="#000000" stroke-width="1.33333" stroke-miterlimit="8" fill="#FFFFFF" fill-rule="evenodd"/><text font-family="Arial,Arial_MSFontService,sans-serif" font-style="italic" font-weight="400" font-size="13" transform="translate(530.233 215)">OnlineCP<tspan font-style="normal" font-size="27" x="51.9285" y="322">Running Time</tspan></text><path d="M530.5 405.5C530.5 384.513 548.633 367.5 571 367.5 593.368 367.5 611.5 384.513 611.5 405.5 611.5 426.487 593.368 443.5 571 443.5 548.633 443.5 530.5 426.487 530.5 405.5Z" stroke="#000000" stroke-width="1.33333" stroke-miterlimit="8" fill="#FFFFFF" fill-rule="evenodd"/><text font-family="Arial,Arial_MSFontService,sans-serif" font-style="italic" font-weight="400" font-size="13" transform="translate(542.313 404)">OnlineCP<tspan x="16.58" y="16">split</tspan></text><path d="M746.5 436.5C746.5 415.513 764.633 398.5 787 398.5 809.368 398.5 827.5 415.513 827.5 436.5 827.5 457.487 809.368 474.5 787 474.5 764.633 474.5 746.5 457.487 746.5 436.5Z" stroke="#000000" stroke-width="1.33333" stroke-miterlimit="8" fill="#FFFFFF" fill-rule="evenodd"/><text font-family="Arial,Arial_MSFontService,sans-serif" font-style="italic" font-weight="400" font-size="13" transform="translate(764.897 443)">Full CP</text><path d="M611.5 377.5C611.5 356.513 629.633 339.5 652 339.5 674.368 339.5 692.5 356.513 692.5 377.5 692.5 398.487 674.368 415.5 652 415.5 629.633 415.5 611.5 398.487 611.5 377.5Z" stroke="#000000" stroke-width="1.33333" stroke-miterlimit="8" fill="#FFFFFF" fill-rule="evenodd"/><text font-family="Arial,Arial_MSFontService,sans-serif" font-style="italic" font-weight="400" font-size="13" transform="translate(623.36 376)">OnlineCP<tspan x="9.58002" y="16">trigger</tspan></text><path d="M545.5 324C545.5 302.737 563.633 285.5 586 285.5 608.368 285.5 626.5 302.737 626.5 324 626.5 345.263 608.368 362.5 586 362.5 563.633 362.5 545.5 345.263 545.5 324Z" stroke="#000000" stroke-width="1.33333" stroke-miterlimit="8" fill="#FFFFFF" fill-rule="evenodd"/><text font-family="Arial,Arial_MSFontService,sans-serif" font-style="italic" font-weight="400" font-size="13" transform="translate(556.888 323)">OnlineCP<tspan x="11.08" y="16">select</tspan></text><path d="M1.5-4.23652e-07 1.5001 368.751-1.4999 368.751-1.5 4.23652e-07ZM6.54577 360.507 0.000104764 371.728-6.54557 360.507C-6.96299 359.791-6.72128 358.872-6.0057 358.455-5.29013 358.038-4.37165 358.279-3.95423 358.995L1.29577 367.995-1.29556 367.995 3.95443 358.995C4.37185 358.279 5.29033 358.038 6.00591 358.455 6.72149 358.872 6.96319 359.791 6.54577 360.507Z" transform="matrix(1 0 0 -1 940.5 507.221)"/><path d="M1.5-4.23652e-07 1.5001 368.751-1.4999 368.751-1.5 4.23652e-07ZM6.54577 360.507 0.000104764 371.728-6.54557 360.507C-6.96299 359.791-6.72128 358.872-6.0057 358.455-5.29013 358.038-4.37165 358.279-3.95423 358.995L1.29577 367.995-1.29556 367.995 3.95443 358.995C4.37185 358.279 5.29033 358.038 6.00591 358.455 6.72149 358.872 6.96319 359.791 6.54577 360.507Z" transform="matrix(-4.37114e-08 1 1 4.37114e-08 938.5 507.5)"/><text font-family="Arial,Arial_MSFontService,sans-serif" font-weight="400" font-size="27" transform="matrix(-1.83697e-16 -1 1 -1.83697e-16 928.099 387)">Error Norm</text><path d="M978.5 210C978.5 188.737 996.633 171.5 1019 171.5 1041.37 171.5 1059.5 188.737 1059.5 210 1059.5 231.263 1041.37 248.5 1019 248.5 996.633 248.5 978.5 231.263 978.5 210Z" stroke="#000000" stroke-width="1.33333" stroke-miterlimit="8" fill="#FFFFFF" fill-rule="evenodd"/><text font-family="Arial,Arial_MSFontService,sans-serif" font-style="italic" font-weight="400" font-size="13" transform="translate(989.813 215)">OnlineCP<tspan font-style="normal" font-size="27" x="86.1951" y="322">Memory</tspan></text><path d="M1171.5 377.5C1171.5 356.513 1189.41 339.5 1211.5 339.5 1233.59 339.5 1251.5 356.513 1251.5 377.5 1251.5 398.487 1233.59 415.5 1211.5 415.5 1189.41 415.5 1171.5 398.487 1171.5 377.5Z" stroke="#000000" stroke-width="1.33333" stroke-miterlimit="8" fill="#FFFFFF" fill-rule="evenodd"/><text font-family="Arial,Arial_MSFontService,sans-serif" font-style="italic" font-weight="400" font-size="13" transform="translate(1182.54 376)">OnlineCP<tspan x="16.58" y="16">split</tspan></text><path d="M978.5 436.5C978.5 415.513 996.633 398.5 1019 398.5 1041.37 398.5 1059.5 415.513 1059.5 436.5 1059.5 457.487 1041.37 474.5 1019 474.5 996.633 474.5 978.5 457.487 978.5 436.5Z" stroke="#000000" stroke-width="1.33333" stroke-miterlimit="8" fill="#FFFFFF" fill-rule="evenodd"/><text font-family="Arial,Arial_MSFontService,sans-serif" font-style="italic" font-weight="400" font-size="13" transform="translate(996.316 443)">Full CP</text><path d="M978.5 349.5C978.5 328.513 996.633 311.5 1019 311.5 1041.37 311.5 1059.5 328.513 1059.5 349.5 1059.5 370.487 1041.37 387.5 1019 387.5 996.633 387.5 978.5 370.487 978.5 349.5Z" stroke="#000000" stroke-width="1.33333" stroke-miterlimit="8" fill="#FFFFFF" fill-rule="evenodd"/><text font-family="Arial,Arial_MSFontService,sans-serif" font-style="italic" font-weight="400" font-size="13" transform="translate(989.894 348)">OnlineCP<tspan x="9.57996" y="16">trigger</tspan></text><path d="M1088.5 296C1088.5 274.737 1106.63 257.5 1129 257.5 1151.37 257.5 1169.5 274.737 1169.5 296 1169.5 317.263 1151.37 334.5 1129 334.5 1106.63 334.5 1088.5 317.263 1088.5 296Z" stroke="#000000" stroke-width="1.33333" stroke-miterlimit="8" fill="#FFFFFF" fill-rule="evenodd"/><text font-family="Arial,Arial_MSFontService,sans-serif" font-style="italic" font-weight="400" font-size="13" transform="translate(1099.68 295)">OnlineCP<tspan x="11.08" y="16">select</tspan></text><path d="M470.939 493.687 479.131 501.879 487.322 493.687 492.208 498.573 484.016 506.765 492.208 514.957 487.695 519.47 479.503 511.278 471.311 519.47 466.425 514.584 474.617 506.392 466.425 498.201Z" fill="#FF0000" fill-rule="evenodd"/><text fill="#C00000" font-family="Arial,Arial_MSFontService,sans-serif" font-weight="400" font-size="19" transform="translate(493.204 497)">BEST</text><path d="M931.244 493.687 939.436 501.879 947.628 493.687 952.514 498.573 944.322 506.765 952.514 514.957 948.001 519.47 939.809 511.278 931.617 519.47 926.731 514.584 934.923 506.392 926.731 498.201Z" fill="#FF0000" fill-rule="evenodd"/><text fill="#C00000" font-family="Arial,Arial_MSFontService,sans-serif" font-weight="400" font-size="19" transform="translate(953.165 497)">BEST</text></g></svg>