<?xml version="1.0" encoding="utf-8" standalone="no"?>
<!DOCTYPE svg PUBLIC "-//W3C//DTD SVG 1.1//EN"
  "http://www.w3.org/Graphics/SVG/1.1/DTD/svg11.dtd">
<!-- Created with matplotlib (https://matplotlib.org/) -->
<svg height="304.091875pt" version="1.1" viewBox="0 0 501.051125 304.091875" width="501.051125pt" xmlns="http://www.w3.org/2000/svg" xmlns:xlink="http://www.w3.org/1999/xlink">
 <metadata>
  <rdf:RDF xmlns:cc="http://creativecommons.org/ns#" xmlns:dc="http://purl.org/dc/elements/1.1/" xmlns:rdf="http://www.w3.org/1999/02/22-rdf-syntax-ns#">
   <cc:Work>
    <dc:type rdf:resource="http://purl.org/dc/dcmitype/StillImage"/>
    <dc:date>2021-01-03T15:48:17.220792</dc:date>
    <dc:format>image/svg+xml</dc:format>
    <dc:creator>
     <cc:Agent>
      <dc:title>Matplotlib v3.3.1, https://matplotlib.org/</dc:title>
     </cc:Agent>
    </dc:creator>
   </cc:Work>
  </rdf:RDF>
 </metadata>
 <defs>
  <style type="text/css">*{stroke-linecap:butt;stroke-linejoin:round;}</style>
 </defs>
 <g id="figure_1">
  <g id="patch_1">
   <path d="M 0 304.091875 
L 501.051125 304.091875 
L 501.051125 0 
L 0 0 
z
" style="fill:none;"/>
  </g>
  <g id="axes_1">
   <g id="patch_2">
    <path d="M 54.651125 181.2 
L 501.051125 181.2 
L 501.051125 0 
L 54.651125 0 
z
" style="fill:#ffffff;"/>
   </g>
   <g id="matplotlib.axis_1">
    <g id="xtick_1">
     <g id="line2d_1">
      <defs>
       <path d="M 0 0 
L 0 3.5 
" id="m8001464260" style="stroke:#000000;stroke-width:0.8;"/>
      </defs>
      <g>
       <use style="stroke:#000000;stroke-width:0.8;" x="64.53644" xlink:href="#m8001464260" y="181.2"/>
      </g>
     </g>
    </g>
    <g id="xtick_2">
     <g id="line2d_2">
      <g>
       <use style="stroke:#000000;stroke-width:0.8;" x="116.564412" xlink:href="#m8001464260" y="181.2"/>
      </g>
     </g>
    </g>
    <g id="xtick_3">
     <g id="line2d_3">
      <g>
       <use style="stroke:#000000;stroke-width:0.8;" x="168.592384" xlink:href="#m8001464260" y="181.2"/>
      </g>
     </g>
    </g>
    <g id="xtick_4">
     <g id="line2d_4">
      <g>
       <use style="stroke:#000000;stroke-width:0.8;" x="220.620356" xlink:href="#m8001464260" y="181.2"/>
      </g>
     </g>
    </g>
    <g id="xtick_5">
     <g id="line2d_5">
      <g>
       <use style="stroke:#000000;stroke-width:0.8;" x="272.648328" xlink:href="#m8001464260" y="181.2"/>
      </g>
     </g>
    </g>
    <g id="xtick_6">
     <g id="line2d_6">
      <g>
       <use style="stroke:#000000;stroke-width:0.8;" x="324.6763" xlink:href="#m8001464260" y="181.2"/>
      </g>
     </g>
    </g>
    <g id="xtick_7">
     <g id="line2d_7">
      <g>
       <use style="stroke:#000000;stroke-width:0.8;" x="376.704272" xlink:href="#m8001464260" y="181.2"/>
      </g>
     </g>
    </g>
    <g id="xtick_8">
     <g id="line2d_8">
      <g>
       <use style="stroke:#000000;stroke-width:0.8;" x="428.732244" xlink:href="#m8001464260" y="181.2"/>
      </g>
     </g>
    </g>
    <g id="xtick_9">
     <g id="line2d_9">
      <g>
       <use style="stroke:#000000;stroke-width:0.8;" x="480.760216" xlink:href="#m8001464260" y="181.2"/>
      </g>
     </g>
    </g>
    <g id="text_1">
     <!-- # of Stacked Slices -->
     <g transform="translate(220.164875 194.318125)scale(0.12 -0.12)">
      <defs>
       <path d="M 51.125 44 
L 36.921875 44 
L 32.8125 27.6875 
L 47.125 27.6875 
z
M 43.796875 71.78125 
L 38.71875 51.515625 
L 52.984375 51.515625 
L 58.109375 71.78125 
L 65.921875 71.78125 
L 60.890625 51.515625 
L 76.125 51.515625 
L 76.125 44 
L 58.984375 44 
L 54.984375 27.6875 
L 70.515625 27.6875 
L 70.515625 20.21875 
L 53.078125 20.21875 
L 48 0 
L 40.1875 0 
L 45.21875 20.21875 
L 30.90625 20.21875 
L 25.875 0 
L 18.015625 0 
L 23.09375 20.21875 
L 7.71875 20.21875 
L 7.71875 27.6875 
L 24.90625 27.6875 
L 29 44 
L 13.28125 44 
L 13.28125 51.515625 
L 30.90625 51.515625 
L 35.890625 71.78125 
z
" id="DejaVuSans-35"/>
       <path id="DejaVuSans-32"/>
       <path d="M 30.609375 48.390625 
Q 23.390625 48.390625 19.1875 42.75 
Q 14.984375 37.109375 14.984375 27.296875 
Q 14.984375 17.484375 19.15625 11.84375 
Q 23.34375 6.203125 30.609375 6.203125 
Q 37.796875 6.203125 41.984375 11.859375 
Q 46.1875 17.53125 46.1875 27.296875 
Q 46.1875 37.015625 41.984375 42.703125 
Q 37.796875 48.390625 30.609375 48.390625 
z
M 30.609375 56 
Q 42.328125 56 49.015625 48.375 
Q 55.71875 40.765625 55.71875 27.296875 
Q 55.71875 13.875 49.015625 6.21875 
Q 42.328125 -1.421875 30.609375 -1.421875 
Q 18.84375 -1.421875 12.171875 6.21875 
Q 5.515625 13.875 5.515625 27.296875 
Q 5.515625 40.765625 12.171875 48.375 
Q 18.84375 56 30.609375 56 
z
" id="DejaVuSans-111"/>
       <path d="M 37.109375 75.984375 
L 37.109375 68.5 
L 28.515625 68.5 
Q 23.6875 68.5 21.796875 66.546875 
Q 19.921875 64.59375 19.921875 59.515625 
L 19.921875 54.6875 
L 34.71875 54.6875 
L 34.71875 47.703125 
L 19.921875 47.703125 
L 19.921875 0 
L 10.890625 0 
L 10.890625 47.703125 
L 2.296875 47.703125 
L 2.296875 54.6875 
L 10.890625 54.6875 
L 10.890625 58.5 
Q 10.890625 67.625 15.140625 71.796875 
Q 19.390625 75.984375 28.609375 75.984375 
z
" id="DejaVuSans-102"/>
       <path d="M 53.515625 70.515625 
L 53.515625 60.890625 
Q 47.90625 63.578125 42.921875 64.890625 
Q 37.9375 66.21875 33.296875 66.21875 
Q 25.25 66.21875 20.875 63.09375 
Q 16.5 59.96875 16.5 54.203125 
Q 16.5 49.359375 19.40625 46.890625 
Q 22.3125 44.4375 30.421875 42.921875 
L 36.375 41.703125 
Q 47.40625 39.59375 52.65625 34.296875 
Q 57.90625 29 57.90625 20.125 
Q 57.90625 9.515625 50.796875 4.046875 
Q 43.703125 -1.421875 29.984375 -1.421875 
Q 24.8125 -1.421875 18.96875 -0.25 
Q 13.140625 0.921875 6.890625 3.21875 
L 6.890625 13.375 
Q 12.890625 10.015625 18.65625 8.296875 
Q 24.421875 6.59375 29.984375 6.59375 
Q 38.421875 6.59375 43.015625 9.90625 
Q 47.609375 13.234375 47.609375 19.390625 
Q 47.609375 24.75 44.3125 27.78125 
Q 41.015625 30.8125 33.5 32.328125 
L 27.484375 33.5 
Q 16.453125 35.6875 11.515625 40.375 
Q 6.59375 45.0625 6.59375 53.421875 
Q 6.59375 63.09375 13.40625 68.65625 
Q 20.21875 74.21875 32.171875 74.21875 
Q 37.3125 74.21875 42.625 73.28125 
Q 47.953125 72.359375 53.515625 70.515625 
z
" id="DejaVuSans-83"/>
       <path d="M 18.3125 70.21875 
L 18.3125 54.6875 
L 36.8125 54.6875 
L 36.8125 47.703125 
L 18.3125 47.703125 
L 18.3125 18.015625 
Q 18.3125 11.328125 20.140625 9.421875 
Q 21.96875 7.515625 27.59375 7.515625 
L 36.8125 7.515625 
L 36.8125 0 
L 27.59375 0 
Q 17.1875 0 13.234375 3.875 
Q 9.28125 7.765625 9.28125 18.015625 
L 9.28125 47.703125 
L 2.6875 47.703125 
L 2.6875 54.6875 
L 9.28125 54.6875 
L 9.28125 70.21875 
z
" id="DejaVuSans-116"/>
       <path d="M 34.28125 27.484375 
Q 23.390625 27.484375 19.1875 25 
Q 14.984375 22.515625 14.984375 16.5 
Q 14.984375 11.71875 18.140625 8.90625 
Q 21.296875 6.109375 26.703125 6.109375 
Q 34.1875 6.109375 38.703125 11.40625 
Q 43.21875 16.703125 43.21875 25.484375 
L 43.21875 27.484375 
z
M 52.203125 31.203125 
L 52.203125 0 
L 43.21875 0 
L 43.21875 8.296875 
Q 40.140625 3.328125 35.546875 0.953125 
Q 30.953125 -1.421875 24.3125 -1.421875 
Q 15.921875 -1.421875 10.953125 3.296875 
Q 6 8.015625 6 15.921875 
Q 6 25.140625 12.171875 29.828125 
Q 18.359375 34.515625 30.609375 34.515625 
L 43.21875 34.515625 
L 43.21875 35.40625 
Q 43.21875 41.609375 39.140625 45 
Q 35.0625 48.390625 27.6875 48.390625 
Q 23 48.390625 18.546875 47.265625 
Q 14.109375 46.140625 10.015625 43.890625 
L 10.015625 52.203125 
Q 14.9375 54.109375 19.578125 55.046875 
Q 24.21875 56 28.609375 56 
Q 40.484375 56 46.34375 49.84375 
Q 52.203125 43.703125 52.203125 31.203125 
z
" id="DejaVuSans-97"/>
       <path d="M 48.78125 52.59375 
L 48.78125 44.1875 
Q 44.96875 46.296875 41.140625 47.34375 
Q 37.3125 48.390625 33.40625 48.390625 
Q 24.65625 48.390625 19.8125 42.84375 
Q 14.984375 37.3125 14.984375 27.296875 
Q 14.984375 17.28125 19.8125 11.734375 
Q 24.65625 6.203125 33.40625 6.203125 
Q 37.3125 6.203125 41.140625 7.25 
Q 44.96875 8.296875 48.78125 10.40625 
L 48.78125 2.09375 
Q 45.015625 0.34375 40.984375 -0.53125 
Q 36.96875 -1.421875 32.421875 -1.421875 
Q 20.0625 -1.421875 12.78125 6.34375 
Q 5.515625 14.109375 5.515625 27.296875 
Q 5.515625 40.671875 12.859375 48.328125 
Q 20.21875 56 33.015625 56 
Q 37.15625 56 41.109375 55.140625 
Q 45.0625 54.296875 48.78125 52.59375 
z
" id="DejaVuSans-99"/>
       <path d="M 9.078125 75.984375 
L 18.109375 75.984375 
L 18.109375 31.109375 
L 44.921875 54.6875 
L 56.390625 54.6875 
L 27.390625 29.109375 
L 57.625 0 
L 45.90625 0 
L 18.109375 26.703125 
L 18.109375 0 
L 9.078125 0 
z
" id="DejaVuSans-107"/>
       <path d="M 56.203125 29.59375 
L 56.203125 25.203125 
L 14.890625 25.203125 
Q 15.484375 15.921875 20.484375 11.0625 
Q 25.484375 6.203125 34.421875 6.203125 
Q 39.59375 6.203125 44.453125 7.46875 
Q 49.3125 8.734375 54.109375 11.28125 
L 54.109375 2.78125 
Q 49.265625 0.734375 44.1875 -0.34375 
Q 39.109375 -1.421875 33.890625 -1.421875 
Q 20.796875 -1.421875 13.15625 6.1875 
Q 5.515625 13.8125 5.515625 26.8125 
Q 5.515625 40.234375 12.765625 48.109375 
Q 20.015625 56 32.328125 56 
Q 43.359375 56 49.78125 48.890625 
Q 56.203125 41.796875 56.203125 29.59375 
z
M 47.21875 32.234375 
Q 47.125 39.59375 43.09375 43.984375 
Q 39.0625 48.390625 32.421875 48.390625 
Q 24.90625 48.390625 20.390625 44.140625 
Q 15.875 39.890625 15.1875 32.171875 
z
" id="DejaVuSans-101"/>
       <path d="M 45.40625 46.390625 
L 45.40625 75.984375 
L 54.390625 75.984375 
L 54.390625 0 
L 45.40625 0 
L 45.40625 8.203125 
Q 42.578125 3.328125 38.25 0.953125 
Q 33.9375 -1.421875 27.875 -1.421875 
Q 17.96875 -1.421875 11.734375 6.484375 
Q 5.515625 14.40625 5.515625 27.296875 
Q 5.515625 40.1875 11.734375 48.09375 
Q 17.96875 56 27.875 56 
Q 33.9375 56 38.25 53.625 
Q 42.578125 51.265625 45.40625 46.390625 
z
M 14.796875 27.296875 
Q 14.796875 17.390625 18.875 11.75 
Q 22.953125 6.109375 30.078125 6.109375 
Q 37.203125 6.109375 41.296875 11.75 
Q 45.40625 17.390625 45.40625 27.296875 
Q 45.40625 37.203125 41.296875 42.84375 
Q 37.203125 48.484375 30.078125 48.484375 
Q 22.953125 48.484375 18.875 42.84375 
Q 14.796875 37.203125 14.796875 27.296875 
z
" id="DejaVuSans-100"/>
       <path d="M 9.421875 75.984375 
L 18.40625 75.984375 
L 18.40625 0 
L 9.421875 0 
z
" id="DejaVuSans-108"/>
       <path d="M 9.421875 54.6875 
L 18.40625 54.6875 
L 18.40625 0 
L 9.421875 0 
z
M 9.421875 75.984375 
L 18.40625 75.984375 
L 18.40625 64.59375 
L 9.421875 64.59375 
z
" id="DejaVuSans-105"/>
       <path d="M 44.28125 53.078125 
L 44.28125 44.578125 
Q 40.484375 46.53125 36.375 47.5 
Q 32.28125 48.484375 27.875 48.484375 
Q 21.1875 48.484375 17.84375 46.4375 
Q 14.5 44.390625 14.5 40.28125 
Q 14.5 37.15625 16.890625 35.375 
Q 19.28125 33.59375 26.515625 31.984375 
L 29.59375 31.296875 
Q 39.15625 29.25 43.1875 25.515625 
Q 47.21875 21.78125 47.21875 15.09375 
Q 47.21875 7.46875 41.1875 3.015625 
Q 35.15625 -1.421875 24.609375 -1.421875 
Q 20.21875 -1.421875 15.453125 -0.5625 
Q 10.6875 0.296875 5.421875 2 
L 5.421875 11.28125 
Q 10.40625 8.6875 15.234375 7.390625 
Q 20.0625 6.109375 24.8125 6.109375 
Q 31.15625 6.109375 34.5625 8.28125 
Q 37.984375 10.453125 37.984375 14.40625 
Q 37.984375 18.0625 35.515625 20.015625 
Q 33.0625 21.96875 24.703125 23.78125 
L 21.578125 24.515625 
Q 13.234375 26.265625 9.515625 29.90625 
Q 5.8125 33.546875 5.8125 39.890625 
Q 5.8125 47.609375 11.28125 51.796875 
Q 16.75 56 26.8125 56 
Q 31.78125 56 36.171875 55.265625 
Q 40.578125 54.546875 44.28125 53.078125 
z
" id="DejaVuSans-115"/>
      </defs>
      <use xlink:href="#DejaVuSans-35"/>
      <use x="83.789062" xlink:href="#DejaVuSans-32"/>
      <use x="115.576172" xlink:href="#DejaVuSans-111"/>
      <use x="176.757812" xlink:href="#DejaVuSans-102"/>
      <use x="211.962891" xlink:href="#DejaVuSans-32"/>
      <use x="243.75" xlink:href="#DejaVuSans-83"/>
      <use x="307.226562" xlink:href="#DejaVuSans-116"/>
      <use x="346.435547" xlink:href="#DejaVuSans-97"/>
      <use x="407.714844" xlink:href="#DejaVuSans-99"/>
      <use x="462.695312" xlink:href="#DejaVuSans-107"/>
      <use x="516.980469" xlink:href="#DejaVuSans-101"/>
      <use x="578.503906" xlink:href="#DejaVuSans-100"/>
      <use x="641.980469" xlink:href="#DejaVuSans-32"/>
      <use x="673.767578" xlink:href="#DejaVuSans-83"/>
      <use x="737.244141" xlink:href="#DejaVuSans-108"/>
      <use x="765.027344" xlink:href="#DejaVuSans-105"/>
      <use x="792.810547" xlink:href="#DejaVuSans-99"/>
      <use x="847.791016" xlink:href="#DejaVuSans-101"/>
      <use x="909.314453" xlink:href="#DejaVuSans-115"/>
     </g>
    </g>
   </g>
   <g id="matplotlib.axis_2">
    <g id="ytick_1">
     <g id="line2d_10">
      <defs>
       <path d="M 0 0 
L -3.5 0 
" id="mfb4a8bd080" style="stroke:#000000;stroke-width:0.8;"/>
      </defs>
      <g>
       <use style="stroke:#000000;stroke-width:0.8;" x="54.651125" xlink:href="#mfb4a8bd080" y="161.988682"/>
      </g>
     </g>
     <g id="text_2">
      <!-- 10000 -->
      <g transform="translate(15.838625 165.7879)scale(0.1 -0.1)">
       <defs>
        <path d="M 12.40625 8.296875 
L 28.515625 8.296875 
L 28.515625 63.921875 
L 10.984375 60.40625 
L 10.984375 69.390625 
L 28.421875 72.90625 
L 38.28125 72.90625 
L 38.28125 8.296875 
L 54.390625 8.296875 
L 54.390625 0 
L 12.40625 0 
z
" id="DejaVuSans-49"/>
        <path d="M 31.78125 66.40625 
Q 24.171875 66.40625 20.328125 58.90625 
Q 16.5 51.421875 16.5 36.375 
Q 16.5 21.390625 20.328125 13.890625 
Q 24.171875 6.390625 31.78125 6.390625 
Q 39.453125 6.390625 43.28125 13.890625 
Q 47.125 21.390625 47.125 36.375 
Q 47.125 51.421875 43.28125 58.90625 
Q 39.453125 66.40625 31.78125 66.40625 
z
M 31.78125 74.21875 
Q 44.046875 74.21875 50.515625 64.515625 
Q 56.984375 54.828125 56.984375 36.375 
Q 56.984375 17.96875 50.515625 8.265625 
Q 44.046875 -1.421875 31.78125 -1.421875 
Q 19.53125 -1.421875 13.0625 8.265625 
Q 6.59375 17.96875 6.59375 36.375 
Q 6.59375 54.828125 13.0625 64.515625 
Q 19.53125 74.21875 31.78125 74.21875 
z
" id="DejaVuSans-48"/>
       </defs>
       <use xlink:href="#DejaVuSans-49"/>
       <use x="63.623047" xlink:href="#DejaVuSans-48"/>
       <use x="127.246094" xlink:href="#DejaVuSans-48"/>
       <use x="190.869141" xlink:href="#DejaVuSans-48"/>
       <use x="254.492188" xlink:href="#DejaVuSans-48"/>
      </g>
     </g>
    </g>
    <g id="ytick_2">
     <g id="line2d_11">
      <g>
       <use style="stroke:#000000;stroke-width:0.8;" x="54.651125" xlink:href="#mfb4a8bd080" y="131.027745"/>
      </g>
     </g>
     <g id="text_3">
      <!-- 20000 -->
      <g transform="translate(15.838625 134.826964)scale(0.1 -0.1)">
       <defs>
        <path d="M 19.1875 8.296875 
L 53.609375 8.296875 
L 53.609375 0 
L 7.328125 0 
L 7.328125 8.296875 
Q 12.9375 14.109375 22.625 23.890625 
Q 32.328125 33.6875 34.8125 36.53125 
Q 39.546875 41.84375 41.421875 45.53125 
Q 43.3125 49.21875 43.3125 52.78125 
Q 43.3125 58.59375 39.234375 62.25 
Q 35.15625 65.921875 28.609375 65.921875 
Q 23.96875 65.921875 18.8125 64.3125 
Q 13.671875 62.703125 7.8125 59.421875 
L 7.8125 69.390625 
Q 13.765625 71.78125 18.9375 73 
Q 24.125 74.21875 28.421875 74.21875 
Q 39.75 74.21875 46.484375 68.546875 
Q 53.21875 62.890625 53.21875 53.421875 
Q 53.21875 48.921875 51.53125 44.890625 
Q 49.859375 40.875 45.40625 35.40625 
Q 44.1875 33.984375 37.640625 27.21875 
Q 31.109375 20.453125 19.1875 8.296875 
z
" id="DejaVuSans-50"/>
       </defs>
       <use xlink:href="#DejaVuSans-50"/>
       <use x="63.623047" xlink:href="#DejaVuSans-48"/>
       <use x="127.246094" xlink:href="#DejaVuSans-48"/>
       <use x="190.869141" xlink:href="#DejaVuSans-48"/>
       <use x="254.492188" xlink:href="#DejaVuSans-48"/>
      </g>
     </g>
    </g>
    <g id="ytick_3">
     <g id="line2d_12">
      <g>
       <use style="stroke:#000000;stroke-width:0.8;" x="54.651125" xlink:href="#mfb4a8bd080" y="100.066808"/>
      </g>
     </g>
     <g id="text_4">
      <!-- 30000 -->
      <g transform="translate(15.838625 103.866027)scale(0.1 -0.1)">
       <defs>
        <path d="M 40.578125 39.3125 
Q 47.65625 37.796875 51.625 33 
Q 55.609375 28.21875 55.609375 21.1875 
Q 55.609375 10.40625 48.1875 4.484375 
Q 40.765625 -1.421875 27.09375 -1.421875 
Q 22.515625 -1.421875 17.65625 -0.515625 
Q 12.796875 0.390625 7.625 2.203125 
L 7.625 11.71875 
Q 11.71875 9.328125 16.59375 8.109375 
Q 21.484375 6.890625 26.8125 6.890625 
Q 36.078125 6.890625 40.9375 10.546875 
Q 45.796875 14.203125 45.796875 21.1875 
Q 45.796875 27.640625 41.28125 31.265625 
Q 36.765625 34.90625 28.71875 34.90625 
L 20.21875 34.90625 
L 20.21875 43.015625 
L 29.109375 43.015625 
Q 36.375 43.015625 40.234375 45.921875 
Q 44.09375 48.828125 44.09375 54.296875 
Q 44.09375 59.90625 40.109375 62.90625 
Q 36.140625 65.921875 28.71875 65.921875 
Q 24.65625 65.921875 20.015625 65.03125 
Q 15.375 64.15625 9.8125 62.3125 
L 9.8125 71.09375 
Q 15.4375 72.65625 20.34375 73.4375 
Q 25.25 74.21875 29.59375 74.21875 
Q 40.828125 74.21875 47.359375 69.109375 
Q 53.90625 64.015625 53.90625 55.328125 
Q 53.90625 49.265625 50.4375 45.09375 
Q 46.96875 40.921875 40.578125 39.3125 
z
" id="DejaVuSans-51"/>
       </defs>
       <use xlink:href="#DejaVuSans-51"/>
       <use x="63.623047" xlink:href="#DejaVuSans-48"/>
       <use x="127.246094" xlink:href="#DejaVuSans-48"/>
       <use x="190.869141" xlink:href="#DejaVuSans-48"/>
       <use x="254.492188" xlink:href="#DejaVuSans-48"/>
      </g>
     </g>
    </g>
    <g id="ytick_4">
     <g id="line2d_13">
      <g>
       <use style="stroke:#000000;stroke-width:0.8;" x="54.651125" xlink:href="#mfb4a8bd080" y="69.105872"/>
      </g>
     </g>
     <g id="text_5">
      <!-- 40000 -->
      <g transform="translate(15.838625 72.905091)scale(0.1 -0.1)">
       <defs>
        <path d="M 37.796875 64.3125 
L 12.890625 25.390625 
L 37.796875 25.390625 
z
M 35.203125 72.90625 
L 47.609375 72.90625 
L 47.609375 25.390625 
L 58.015625 25.390625 
L 58.015625 17.1875 
L 47.609375 17.1875 
L 47.609375 0 
L 37.796875 0 
L 37.796875 17.1875 
L 4.890625 17.1875 
L 4.890625 26.703125 
z
" id="DejaVuSans-52"/>
       </defs>
       <use xlink:href="#DejaVuSans-52"/>
       <use x="63.623047" xlink:href="#DejaVuSans-48"/>
       <use x="127.246094" xlink:href="#DejaVuSans-48"/>
       <use x="190.869141" xlink:href="#DejaVuSans-48"/>
       <use x="254.492188" xlink:href="#DejaVuSans-48"/>
      </g>
     </g>
    </g>
    <g id="ytick_5">
     <g id="line2d_14">
      <g>
       <use style="stroke:#000000;stroke-width:0.8;" x="54.651125" xlink:href="#mfb4a8bd080" y="38.144935"/>
      </g>
     </g>
     <g id="text_6">
      <!-- 50000 -->
      <g transform="translate(15.838625 41.944154)scale(0.1 -0.1)">
       <defs>
        <path d="M 10.796875 72.90625 
L 49.515625 72.90625 
L 49.515625 64.59375 
L 19.828125 64.59375 
L 19.828125 46.734375 
Q 21.96875 47.46875 24.109375 47.828125 
Q 26.265625 48.1875 28.421875 48.1875 
Q 40.625 48.1875 47.75 41.5 
Q 54.890625 34.8125 54.890625 23.390625 
Q 54.890625 11.625 47.5625 5.09375 
Q 40.234375 -1.421875 26.90625 -1.421875 
Q 22.3125 -1.421875 17.546875 -0.640625 
Q 12.796875 0.140625 7.71875 1.703125 
L 7.71875 11.625 
Q 12.109375 9.234375 16.796875 8.0625 
Q 21.484375 6.890625 26.703125 6.890625 
Q 35.15625 6.890625 40.078125 11.328125 
Q 45.015625 15.765625 45.015625 23.390625 
Q 45.015625 31 40.078125 35.4375 
Q 35.15625 39.890625 26.703125 39.890625 
Q 22.75 39.890625 18.8125 39.015625 
Q 14.890625 38.140625 10.796875 36.28125 
z
" id="DejaVuSans-53"/>
       </defs>
       <use xlink:href="#DejaVuSans-53"/>
       <use x="63.623047" xlink:href="#DejaVuSans-48"/>
       <use x="127.246094" xlink:href="#DejaVuSans-48"/>
       <use x="190.869141" xlink:href="#DejaVuSans-48"/>
       <use x="254.492188" xlink:href="#DejaVuSans-48"/>
      </g>
     </g>
    </g>
    <g id="ytick_6">
     <g id="line2d_15">
      <g>
       <use style="stroke:#000000;stroke-width:0.8;" x="54.651125" xlink:href="#mfb4a8bd080" y="7.183999"/>
      </g>
     </g>
     <g id="text_7">
      <!-- 60000 -->
      <g transform="translate(15.838625 10.983217)scale(0.1 -0.1)">
       <defs>
        <path d="M 33.015625 40.375 
Q 26.375 40.375 22.484375 35.828125 
Q 18.609375 31.296875 18.609375 23.390625 
Q 18.609375 15.53125 22.484375 10.953125 
Q 26.375 6.390625 33.015625 6.390625 
Q 39.65625 6.390625 43.53125 10.953125 
Q 47.40625 15.53125 47.40625 23.390625 
Q 47.40625 31.296875 43.53125 35.828125 
Q 39.65625 40.375 33.015625 40.375 
z
M 52.59375 71.296875 
L 52.59375 62.3125 
Q 48.875 64.0625 45.09375 64.984375 
Q 41.3125 65.921875 37.59375 65.921875 
Q 27.828125 65.921875 22.671875 59.328125 
Q 17.53125 52.734375 16.796875 39.40625 
Q 19.671875 43.65625 24.015625 45.921875 
Q 28.375 48.1875 33.59375 48.1875 
Q 44.578125 48.1875 50.953125 41.515625 
Q 57.328125 34.859375 57.328125 23.390625 
Q 57.328125 12.15625 50.6875 5.359375 
Q 44.046875 -1.421875 33.015625 -1.421875 
Q 20.359375 -1.421875 13.671875 8.265625 
Q 6.984375 17.96875 6.984375 36.375 
Q 6.984375 53.65625 15.1875 63.9375 
Q 23.390625 74.21875 37.203125 74.21875 
Q 40.921875 74.21875 44.703125 73.484375 
Q 48.484375 72.75 52.59375 71.296875 
z
" id="DejaVuSans-54"/>
       </defs>
       <use xlink:href="#DejaVuSans-54"/>
       <use x="63.623047" xlink:href="#DejaVuSans-48"/>
       <use x="127.246094" xlink:href="#DejaVuSans-48"/>
       <use x="190.869141" xlink:href="#DejaVuSans-48"/>
       <use x="254.492188" xlink:href="#DejaVuSans-48"/>
      </g>
     </g>
    </g>
    <g id="text_8">
     <!-- Local Error Norm -->
     <g transform="translate(9.343 140.954062)rotate(-90)scale(0.12 -0.12)">
      <defs>
       <path d="M 9.8125 72.90625 
L 19.671875 72.90625 
L 19.671875 8.296875 
L 55.171875 8.296875 
L 55.171875 0 
L 9.8125 0 
z
" id="DejaVuSans-76"/>
       <path d="M 9.8125 72.90625 
L 55.90625 72.90625 
L 55.90625 64.59375 
L 19.671875 64.59375 
L 19.671875 43.015625 
L 54.390625 43.015625 
L 54.390625 34.71875 
L 19.671875 34.71875 
L 19.671875 8.296875 
L 56.78125 8.296875 
L 56.78125 0 
L 9.8125 0 
z
" id="DejaVuSans-69"/>
       <path d="M 41.109375 46.296875 
Q 39.59375 47.171875 37.8125 47.578125 
Q 36.03125 48 33.890625 48 
Q 26.265625 48 22.1875 43.046875 
Q 18.109375 38.09375 18.109375 28.8125 
L 18.109375 0 
L 9.078125 0 
L 9.078125 54.6875 
L 18.109375 54.6875 
L 18.109375 46.1875 
Q 20.953125 51.171875 25.484375 53.578125 
Q 30.03125 56 36.53125 56 
Q 37.453125 56 38.578125 55.875 
Q 39.703125 55.765625 41.0625 55.515625 
z
" id="DejaVuSans-114"/>
       <path d="M 9.8125 72.90625 
L 23.09375 72.90625 
L 55.421875 11.921875 
L 55.421875 72.90625 
L 64.984375 72.90625 
L 64.984375 0 
L 51.703125 0 
L 19.390625 60.984375 
L 19.390625 0 
L 9.8125 0 
z
" id="DejaVuSans-78"/>
       <path d="M 52 44.1875 
Q 55.375 50.25 60.0625 53.125 
Q 64.75 56 71.09375 56 
Q 79.640625 56 84.28125 50.015625 
Q 88.921875 44.046875 88.921875 33.015625 
L 88.921875 0 
L 79.890625 0 
L 79.890625 32.71875 
Q 79.890625 40.578125 77.09375 44.375 
Q 74.3125 48.1875 68.609375 48.1875 
Q 61.625 48.1875 57.5625 43.546875 
Q 53.515625 38.921875 53.515625 30.90625 
L 53.515625 0 
L 44.484375 0 
L 44.484375 32.71875 
Q 44.484375 40.625 41.703125 44.40625 
Q 38.921875 48.1875 33.109375 48.1875 
Q 26.21875 48.1875 22.15625 43.53125 
Q 18.109375 38.875 18.109375 30.90625 
L 18.109375 0 
L 9.078125 0 
L 9.078125 54.6875 
L 18.109375 54.6875 
L 18.109375 46.1875 
Q 21.1875 51.21875 25.484375 53.609375 
Q 29.78125 56 35.6875 56 
Q 41.65625 56 45.828125 52.96875 
Q 50 49.953125 52 44.1875 
z
" id="DejaVuSans-109"/>
      </defs>
      <use xlink:href="#DejaVuSans-76"/>
      <use x="53.962891" xlink:href="#DejaVuSans-111"/>
      <use x="115.144531" xlink:href="#DejaVuSans-99"/>
      <use x="170.125" xlink:href="#DejaVuSans-97"/>
      <use x="231.404297" xlink:href="#DejaVuSans-108"/>
      <use x="259.1875" xlink:href="#DejaVuSans-32"/>
      <use x="290.974609" xlink:href="#DejaVuSans-69"/>
      <use x="354.158203" xlink:href="#DejaVuSans-114"/>
      <use x="393.521484" xlink:href="#DejaVuSans-114"/>
      <use x="432.384766" xlink:href="#DejaVuSans-111"/>
      <use x="493.566406" xlink:href="#DejaVuSans-114"/>
      <use x="534.679688" xlink:href="#DejaVuSans-32"/>
      <use x="566.466797" xlink:href="#DejaVuSans-78"/>
      <use x="641.271484" xlink:href="#DejaVuSans-111"/>
      <use x="702.453125" xlink:href="#DejaVuSans-114"/>
      <use x="741.816406" xlink:href="#DejaVuSans-109"/>
     </g>
    </g>
   </g>
   <g id="line2d_16">
    <path clip-path="url(#pfee8d4db0d)" d="M 106.158817 181.2 
L 106.158817 0 
" style="fill:none;stroke:#d3d3d3;stroke-dasharray:7.4,3.2;stroke-dashoffset:0;stroke-width:2;"/>
   </g>
   <g id="line2d_17">
    <path clip-path="url(#pfee8d4db0d)" d="M 272.648328 181.2 
L 272.648328 0 
" style="fill:none;stroke:#d3d3d3;stroke-dasharray:7.4,3.2;stroke-dashoffset:0;stroke-width:2;"/>
   </g>
   <g id="line2d_18">
    <path clip-path="url(#pfee8d4db0d)" d="M 283.053922 181.2 
L 283.053922 0 
" style="fill:none;stroke:#d3d3d3;stroke-dasharray:7.4,3.2;stroke-dashoffset:0;stroke-width:2;"/>
   </g>
   <g id="line2d_19">
    <path clip-path="url(#pfee8d4db0d)" d="M 293.459517 181.2 
L 293.459517 0 
" style="fill:none;stroke:#d3d3d3;stroke-dasharray:7.4,3.2;stroke-dashoffset:0;stroke-width:2;"/>
   </g>
   <g id="line2d_20">
    <path clip-path="url(#pfee8d4db0d)" d="M 303.865111 181.2 
L 303.865111 0 
" style="fill:none;stroke:#d3d3d3;stroke-dasharray:7.4,3.2;stroke-dashoffset:0;stroke-width:2;"/>
   </g>
   <g id="line2d_21">
    <path clip-path="url(#pfee8d4db0d)" d="M 314.270705 181.2 
L 314.270705 0 
" style="fill:none;stroke:#d3d3d3;stroke-dasharray:7.4,3.2;stroke-dashoffset:0;stroke-width:2;"/>
   </g>
   <g id="line2d_22">
    <path clip-path="url(#pfee8d4db0d)" d="M 376.704272 181.2 
L 376.704272 0 
" style="fill:none;stroke:#d3d3d3;stroke-dasharray:7.4,3.2;stroke-dashoffset:0;stroke-width:2;"/>
   </g>
   <g id="line2d_23">
    <path clip-path="url(#pfee8d4db0d)" d="M 387.109866 181.2 
L 387.109866 0 
" style="fill:none;stroke:#d3d3d3;stroke-dasharray:7.4,3.2;stroke-dashoffset:0;stroke-width:2;"/>
   </g>
   <g id="line2d_24">
    <path clip-path="url(#pfee8d4db0d)" d="M 85.347628 181.2 
L 85.347628 0 
" style="fill:none;stroke:#d3d3d3;stroke-linecap:square;stroke-width:2;"/>
   </g>
   <g id="line2d_25">
    <path clip-path="url(#pfee8d4db0d)" d="M 324.6763 181.2 
L 324.6763 0 
" style="fill:none;stroke:#d3d3d3;stroke-linecap:square;stroke-width:2;"/>
   </g>
   <g id="line2d_26">
    <path clip-path="url(#pfee8d4db0d)" d="M 470.354622 181.2 
L 470.354622 0 
" style="fill:none;stroke:#d3d3d3;stroke-linecap:square;stroke-width:2;"/>
   </g>
   <g id="line2d_27">
    <path clip-path="url(#pfee8d4db0d)" d="M 74.942034 150.045741 
L 85.347628 145.005967 
L 85.347628 157.432476 
L 95.753223 147.130907 
L 106.158817 132.097364 
L 106.158817 136.345129 
L 116.564412 131.32281 
L 126.970006 134.868973 
L 137.375601 136.323784 
L 147.781195 138.049898 
L 158.186789 139.496903 
L 168.592384 141.698472 
L 178.997978 143.290515 
L 189.403573 134.211842 
L 199.809167 133.950737 
L 210.214761 136.817655 
L 220.620356 139.540324 
L 231.02595 139.215211 
L 241.431545 141.872189 
L 251.837139 143.04748 
L 262.242733 128.176465 
L 272.648328 114.894784 
L 272.648328 120.677113 
L 283.053922 116.205327 
L 283.053922 120.979006 
L 293.459517 106.028848 
L 293.459517 112.733311 
L 303.865111 104.82138 
L 303.865111 112.077624 
L 314.270705 107.904354 
L 314.270705 112.154991 
L 324.6763 15.688342 
L 324.6763 165.93757 
L 335.081894 172.963636 
L 345.487489 171.236186 
L 355.893083 168.363602 
L 366.298677 162.421912 
L 376.704272 147.954087 
L 376.704272 152.012876 
L 387.109866 146.694774 
L 387.109866 150.762406 
L 397.515461 148.304142 
L 407.921055 149.252233 
L 418.326649 151.642362 
L 428.732244 154.432326 
L 439.137838 156.981885 
L 449.543433 157.939243 
L 459.949027 158.239602 
L 470.354622 69.360169 
L 470.354622 166.15151 
L 480.760216 160.124784 
" style="fill:none;stroke:#1e90ff;stroke-linecap:square;"/>
    <defs>
     <path d="M -3 0 
L 3 0 
M 0 3 
L 0 -3 
" id="m443aa29d2d" style="stroke:#1e90ff;"/>
    </defs>
    <g clip-path="url(#pfee8d4db0d)">
     <use style="fill:#1e90ff;stroke:#1e90ff;" x="74.942034" xlink:href="#m443aa29d2d" y="150.045741"/>
     <use style="fill:#1e90ff;stroke:#1e90ff;" x="85.347628" xlink:href="#m443aa29d2d" y="145.005967"/>
     <use style="fill:#1e90ff;stroke:#1e90ff;" x="85.347628" xlink:href="#m443aa29d2d" y="157.432476"/>
     <use style="fill:#1e90ff;stroke:#1e90ff;" x="95.753223" xlink:href="#m443aa29d2d" y="147.130907"/>
     <use style="fill:#1e90ff;stroke:#1e90ff;" x="106.158817" xlink:href="#m443aa29d2d" y="132.097364"/>
     <use style="fill:#1e90ff;stroke:#1e90ff;" x="106.158817" xlink:href="#m443aa29d2d" y="136.345129"/>
     <use style="fill:#1e90ff;stroke:#1e90ff;" x="116.564412" xlink:href="#m443aa29d2d" y="131.32281"/>
     <use style="fill:#1e90ff;stroke:#1e90ff;" x="126.970006" xlink:href="#m443aa29d2d" y="134.868973"/>
     <use style="fill:#1e90ff;stroke:#1e90ff;" x="137.375601" xlink:href="#m443aa29d2d" y="136.323784"/>
     <use style="fill:#1e90ff;stroke:#1e90ff;" x="147.781195" xlink:href="#m443aa29d2d" y="138.049898"/>
     <use style="fill:#1e90ff;stroke:#1e90ff;" x="158.186789" xlink:href="#m443aa29d2d" y="139.496903"/>
     <use style="fill:#1e90ff;stroke:#1e90ff;" x="168.592384" xlink:href="#m443aa29d2d" y="141.698472"/>
     <use style="fill:#1e90ff;stroke:#1e90ff;" x="178.997978" xlink:href="#m443aa29d2d" y="143.290515"/>
     <use style="fill:#1e90ff;stroke:#1e90ff;" x="189.403573" xlink:href="#m443aa29d2d" y="134.211842"/>
     <use style="fill:#1e90ff;stroke:#1e90ff;" x="199.809167" xlink:href="#m443aa29d2d" y="133.950737"/>
     <use style="fill:#1e90ff;stroke:#1e90ff;" x="210.214761" xlink:href="#m443aa29d2d" y="136.817655"/>
     <use style="fill:#1e90ff;stroke:#1e90ff;" x="220.620356" xlink:href="#m443aa29d2d" y="139.540324"/>
     <use style="fill:#1e90ff;stroke:#1e90ff;" x="231.02595" xlink:href="#m443aa29d2d" y="139.215211"/>
     <use style="fill:#1e90ff;stroke:#1e90ff;" x="241.431545" xlink:href="#m443aa29d2d" y="141.872189"/>
     <use style="fill:#1e90ff;stroke:#1e90ff;" x="251.837139" xlink:href="#m443aa29d2d" y="143.04748"/>
     <use style="fill:#1e90ff;stroke:#1e90ff;" x="262.242733" xlink:href="#m443aa29d2d" y="128.176465"/>
     <use style="fill:#1e90ff;stroke:#1e90ff;" x="272.648328" xlink:href="#m443aa29d2d" y="114.894784"/>
     <use style="fill:#1e90ff;stroke:#1e90ff;" x="272.648328" xlink:href="#m443aa29d2d" y="120.677113"/>
     <use style="fill:#1e90ff;stroke:#1e90ff;" x="283.053922" xlink:href="#m443aa29d2d" y="116.205327"/>
     <use style="fill:#1e90ff;stroke:#1e90ff;" x="283.053922" xlink:href="#m443aa29d2d" y="120.979006"/>
     <use style="fill:#1e90ff;stroke:#1e90ff;" x="293.459517" xlink:href="#m443aa29d2d" y="106.028848"/>
     <use style="fill:#1e90ff;stroke:#1e90ff;" x="293.459517" xlink:href="#m443aa29d2d" y="112.733311"/>
     <use style="fill:#1e90ff;stroke:#1e90ff;" x="303.865111" xlink:href="#m443aa29d2d" y="104.82138"/>
     <use style="fill:#1e90ff;stroke:#1e90ff;" x="303.865111" xlink:href="#m443aa29d2d" y="112.077624"/>
     <use style="fill:#1e90ff;stroke:#1e90ff;" x="314.270705" xlink:href="#m443aa29d2d" y="107.904354"/>
     <use style="fill:#1e90ff;stroke:#1e90ff;" x="314.270705" xlink:href="#m443aa29d2d" y="112.154991"/>
     <use style="fill:#1e90ff;stroke:#1e90ff;" x="324.6763" xlink:href="#m443aa29d2d" y="15.688342"/>
     <use style="fill:#1e90ff;stroke:#1e90ff;" x="324.6763" xlink:href="#m443aa29d2d" y="165.93757"/>
     <use style="fill:#1e90ff;stroke:#1e90ff;" x="335.081894" xlink:href="#m443aa29d2d" y="172.963636"/>
     <use style="fill:#1e90ff;stroke:#1e90ff;" x="345.487489" xlink:href="#m443aa29d2d" y="171.236186"/>
     <use style="fill:#1e90ff;stroke:#1e90ff;" x="355.893083" xlink:href="#m443aa29d2d" y="168.363602"/>
     <use style="fill:#1e90ff;stroke:#1e90ff;" x="366.298677" xlink:href="#m443aa29d2d" y="162.421912"/>
     <use style="fill:#1e90ff;stroke:#1e90ff;" x="376.704272" xlink:href="#m443aa29d2d" y="147.954087"/>
     <use style="fill:#1e90ff;stroke:#1e90ff;" x="376.704272" xlink:href="#m443aa29d2d" y="152.012876"/>
     <use style="fill:#1e90ff;stroke:#1e90ff;" x="387.109866" xlink:href="#m443aa29d2d" y="146.694774"/>
     <use style="fill:#1e90ff;stroke:#1e90ff;" x="387.109866" xlink:href="#m443aa29d2d" y="150.762406"/>
     <use style="fill:#1e90ff;stroke:#1e90ff;" x="397.515461" xlink:href="#m443aa29d2d" y="148.304142"/>
     <use style="fill:#1e90ff;stroke:#1e90ff;" x="407.921055" xlink:href="#m443aa29d2d" y="149.252233"/>
     <use style="fill:#1e90ff;stroke:#1e90ff;" x="418.326649" xlink:href="#m443aa29d2d" y="151.642362"/>
     <use style="fill:#1e90ff;stroke:#1e90ff;" x="428.732244" xlink:href="#m443aa29d2d" y="154.432326"/>
     <use style="fill:#1e90ff;stroke:#1e90ff;" x="439.137838" xlink:href="#m443aa29d2d" y="156.981885"/>
     <use style="fill:#1e90ff;stroke:#1e90ff;" x="449.543433" xlink:href="#m443aa29d2d" y="157.939243"/>
     <use style="fill:#1e90ff;stroke:#1e90ff;" x="459.949027" xlink:href="#m443aa29d2d" y="158.239602"/>
     <use style="fill:#1e90ff;stroke:#1e90ff;" x="470.354622" xlink:href="#m443aa29d2d" y="69.360169"/>
     <use style="fill:#1e90ff;stroke:#1e90ff;" x="470.354622" xlink:href="#m443aa29d2d" y="166.15151"/>
     <use style="fill:#1e90ff;stroke:#1e90ff;" x="480.760216" xlink:href="#m443aa29d2d" y="160.124784"/>
    </g>
   </g>
   <g id="line2d_28">
    <path clip-path="url(#pfee8d4db0d)" d="M 74.942034 149.433264 
L 85.347628 143.728546 
L 95.753223 135.799869 
L 106.158817 119.668367 
L 116.564412 118.715032 
L 126.970006 125.360834 
L 137.375601 128.170405 
L 147.781195 130.257349 
L 158.186789 132.252401 
L 168.592384 134.627486 
L 178.997978 136.074908 
L 189.403573 128.595779 
L 199.809167 128.558383 
L 210.214761 131.419928 
L 220.620356 134.341977 
L 231.02595 134.466749 
L 241.431545 137.159652 
L 251.837139 137.890235 
L 262.242733 126.021387 
L 272.648328 113.12679 
L 283.053922 106.615121 
L 293.459517 99.83567 
L 303.865111 98.53203 
L 314.270705 104.499389 
L 324.6763 8.236364 
L 335.081894 82.906251 
L 345.487489 107.440353 
L 355.893083 119.534691 
L 366.298677 124.667811 
L 376.704272 121.209588 
L 387.109866 121.859177 
L 397.515461 121.939789 
L 407.921055 126.744458 
L 418.326649 129.631497 
L 428.732244 132.138323 
L 439.137838 134.782874 
L 449.543433 136.591005 
L 459.949027 137.925206 
L 470.354622 53.762508 
L 480.760216 79.328238 
" style="fill:none;stroke:#3cb371;stroke-linecap:square;"/>
    <defs>
     <path d="M -3 3 
L 3 -3 
M -3 -3 
L 3 3 
" id="me467bb7abd" style="stroke:#3cb371;"/>
    </defs>
    <g clip-path="url(#pfee8d4db0d)">
     <use style="fill:#3cb371;stroke:#3cb371;" x="74.942034" xlink:href="#me467bb7abd" y="149.433264"/>
     <use style="fill:#3cb371;stroke:#3cb371;" x="85.347628" xlink:href="#me467bb7abd" y="143.728546"/>
     <use style="fill:#3cb371;stroke:#3cb371;" x="95.753223" xlink:href="#me467bb7abd" y="135.799869"/>
     <use style="fill:#3cb371;stroke:#3cb371;" x="106.158817" xlink:href="#me467bb7abd" y="119.668367"/>
     <use style="fill:#3cb371;stroke:#3cb371;" x="116.564412" xlink:href="#me467bb7abd" y="118.715032"/>
     <use style="fill:#3cb371;stroke:#3cb371;" x="126.970006" xlink:href="#me467bb7abd" y="125.360834"/>
     <use style="fill:#3cb371;stroke:#3cb371;" x="137.375601" xlink:href="#me467bb7abd" y="128.170405"/>
     <use style="fill:#3cb371;stroke:#3cb371;" x="147.781195" xlink:href="#me467bb7abd" y="130.257349"/>
     <use style="fill:#3cb371;stroke:#3cb371;" x="158.186789" xlink:href="#me467bb7abd" y="132.252401"/>
     <use style="fill:#3cb371;stroke:#3cb371;" x="168.592384" xlink:href="#me467bb7abd" y="134.627486"/>
     <use style="fill:#3cb371;stroke:#3cb371;" x="178.997978" xlink:href="#me467bb7abd" y="136.074908"/>
     <use style="fill:#3cb371;stroke:#3cb371;" x="189.403573" xlink:href="#me467bb7abd" y="128.595779"/>
     <use style="fill:#3cb371;stroke:#3cb371;" x="199.809167" xlink:href="#me467bb7abd" y="128.558383"/>
     <use style="fill:#3cb371;stroke:#3cb371;" x="210.214761" xlink:href="#me467bb7abd" y="131.419928"/>
     <use style="fill:#3cb371;stroke:#3cb371;" x="220.620356" xlink:href="#me467bb7abd" y="134.341977"/>
     <use style="fill:#3cb371;stroke:#3cb371;" x="231.02595" xlink:href="#me467bb7abd" y="134.466749"/>
     <use style="fill:#3cb371;stroke:#3cb371;" x="241.431545" xlink:href="#me467bb7abd" y="137.159652"/>
     <use style="fill:#3cb371;stroke:#3cb371;" x="251.837139" xlink:href="#me467bb7abd" y="137.890235"/>
     <use style="fill:#3cb371;stroke:#3cb371;" x="262.242733" xlink:href="#me467bb7abd" y="126.021387"/>
     <use style="fill:#3cb371;stroke:#3cb371;" x="272.648328" xlink:href="#me467bb7abd" y="113.12679"/>
     <use style="fill:#3cb371;stroke:#3cb371;" x="283.053922" xlink:href="#me467bb7abd" y="106.615121"/>
     <use style="fill:#3cb371;stroke:#3cb371;" x="293.459517" xlink:href="#me467bb7abd" y="99.83567"/>
     <use style="fill:#3cb371;stroke:#3cb371;" x="303.865111" xlink:href="#me467bb7abd" y="98.53203"/>
     <use style="fill:#3cb371;stroke:#3cb371;" x="314.270705" xlink:href="#me467bb7abd" y="104.499389"/>
     <use style="fill:#3cb371;stroke:#3cb371;" x="324.6763" xlink:href="#me467bb7abd" y="8.236364"/>
     <use style="fill:#3cb371;stroke:#3cb371;" x="335.081894" xlink:href="#me467bb7abd" y="82.906251"/>
     <use style="fill:#3cb371;stroke:#3cb371;" x="345.487489" xlink:href="#me467bb7abd" y="107.440353"/>
     <use style="fill:#3cb371;stroke:#3cb371;" x="355.893083" xlink:href="#me467bb7abd" y="119.534691"/>
     <use style="fill:#3cb371;stroke:#3cb371;" x="366.298677" xlink:href="#me467bb7abd" y="124.667811"/>
     <use style="fill:#3cb371;stroke:#3cb371;" x="376.704272" xlink:href="#me467bb7abd" y="121.209588"/>
     <use style="fill:#3cb371;stroke:#3cb371;" x="387.109866" xlink:href="#me467bb7abd" y="121.859177"/>
     <use style="fill:#3cb371;stroke:#3cb371;" x="397.515461" xlink:href="#me467bb7abd" y="121.939789"/>
     <use style="fill:#3cb371;stroke:#3cb371;" x="407.921055" xlink:href="#me467bb7abd" y="126.744458"/>
     <use style="fill:#3cb371;stroke:#3cb371;" x="418.326649" xlink:href="#me467bb7abd" y="129.631497"/>
     <use style="fill:#3cb371;stroke:#3cb371;" x="428.732244" xlink:href="#me467bb7abd" y="132.138323"/>
     <use style="fill:#3cb371;stroke:#3cb371;" x="439.137838" xlink:href="#me467bb7abd" y="134.782874"/>
     <use style="fill:#3cb371;stroke:#3cb371;" x="449.543433" xlink:href="#me467bb7abd" y="136.591005"/>
     <use style="fill:#3cb371;stroke:#3cb371;" x="459.949027" xlink:href="#me467bb7abd" y="137.925206"/>
     <use style="fill:#3cb371;stroke:#3cb371;" x="470.354622" xlink:href="#me467bb7abd" y="53.762508"/>
     <use style="fill:#3cb371;stroke:#3cb371;" x="480.760216" xlink:href="#me467bb7abd" y="79.328238"/>
    </g>
   </g>
   <g id="line2d_29">
    <path clip-path="url(#pfee8d4db0d)" d="M 74.942034 150.784922 
L 85.347628 145.911269 
L 95.753223 139.12583 
L 106.158817 124.350801 
L 116.564412 124.498182 
L 126.970006 129.089613 
L 137.375601 130.908083 
L 147.781195 132.536067 
L 158.186789 133.949221 
L 168.592384 136.003068 
L 178.997978 137.68467 
L 189.403573 130.770979 
L 199.809167 130.660721 
L 210.214761 133.4602 
L 220.620356 136.260367 
L 231.02595 136.354565 
L 241.431545 139.026163 
L 251.837139 140.013639 
L 262.242733 126.361435 
L 272.648328 112.427947 
L 283.053922 107.758902 
L 293.459517 101.19311 
L 303.865111 99.44746 
L 314.270705 106.130337 
L 324.6763 23.367008 
L 335.081894 103.630505 
L 345.487489 121.325531 
L 355.893083 128.966437 
L 366.298677 131.182114 
L 376.704272 125.927527 
L 387.109866 124.403939 
L 397.515461 123.789686 
L 407.921055 128.964844 
L 418.326649 131.60244 
L 428.732244 133.46455 
L 439.137838 135.507507 
L 449.543433 136.786089 
L 459.949027 137.618962 
L 470.354622 59.478812 
L 480.760216 84.521987 
" style="fill:none;stroke:#ff69b4;stroke-linecap:square;"/>
    <defs>
     <path d="M 0 0 
L 0 3 
M 0 0 
L 2.4 -1.5 
M 0 0 
L -2.4 -1.5 
" id="m8347c48e02" style="stroke:#ff69b4;"/>
    </defs>
    <g clip-path="url(#pfee8d4db0d)">
     <use style="fill:#ff69b4;stroke:#ff69b4;" x="74.942034" xlink:href="#m8347c48e02" y="150.784922"/>
     <use style="fill:#ff69b4;stroke:#ff69b4;" x="85.347628" xlink:href="#m8347c48e02" y="145.911269"/>
     <use style="fill:#ff69b4;stroke:#ff69b4;" x="95.753223" xlink:href="#m8347c48e02" y="139.12583"/>
     <use style="fill:#ff69b4;stroke:#ff69b4;" x="106.158817" xlink:href="#m8347c48e02" y="124.350801"/>
     <use style="fill:#ff69b4;stroke:#ff69b4;" x="116.564412" xlink:href="#m8347c48e02" y="124.498182"/>
     <use style="fill:#ff69b4;stroke:#ff69b4;" x="126.970006" xlink:href="#m8347c48e02" y="129.089613"/>
     <use style="fill:#ff69b4;stroke:#ff69b4;" x="137.375601" xlink:href="#m8347c48e02" y="130.908083"/>
     <use style="fill:#ff69b4;stroke:#ff69b4;" x="147.781195" xlink:href="#m8347c48e02" y="132.536067"/>
     <use style="fill:#ff69b4;stroke:#ff69b4;" x="158.186789" xlink:href="#m8347c48e02" y="133.949221"/>
     <use style="fill:#ff69b4;stroke:#ff69b4;" x="168.592384" xlink:href="#m8347c48e02" y="136.003068"/>
     <use style="fill:#ff69b4;stroke:#ff69b4;" x="178.997978" xlink:href="#m8347c48e02" y="137.68467"/>
     <use style="fill:#ff69b4;stroke:#ff69b4;" x="189.403573" xlink:href="#m8347c48e02" y="130.770979"/>
     <use style="fill:#ff69b4;stroke:#ff69b4;" x="199.809167" xlink:href="#m8347c48e02" y="130.660721"/>
     <use style="fill:#ff69b4;stroke:#ff69b4;" x="210.214761" xlink:href="#m8347c48e02" y="133.4602"/>
     <use style="fill:#ff69b4;stroke:#ff69b4;" x="220.620356" xlink:href="#m8347c48e02" y="136.260367"/>
     <use style="fill:#ff69b4;stroke:#ff69b4;" x="231.02595" xlink:href="#m8347c48e02" y="136.354565"/>
     <use style="fill:#ff69b4;stroke:#ff69b4;" x="241.431545" xlink:href="#m8347c48e02" y="139.026163"/>
     <use style="fill:#ff69b4;stroke:#ff69b4;" x="251.837139" xlink:href="#m8347c48e02" y="140.013639"/>
     <use style="fill:#ff69b4;stroke:#ff69b4;" x="262.242733" xlink:href="#m8347c48e02" y="126.361435"/>
     <use style="fill:#ff69b4;stroke:#ff69b4;" x="272.648328" xlink:href="#m8347c48e02" y="112.427947"/>
     <use style="fill:#ff69b4;stroke:#ff69b4;" x="283.053922" xlink:href="#m8347c48e02" y="107.758902"/>
     <use style="fill:#ff69b4;stroke:#ff69b4;" x="293.459517" xlink:href="#m8347c48e02" y="101.19311"/>
     <use style="fill:#ff69b4;stroke:#ff69b4;" x="303.865111" xlink:href="#m8347c48e02" y="99.44746"/>
     <use style="fill:#ff69b4;stroke:#ff69b4;" x="314.270705" xlink:href="#m8347c48e02" y="106.130337"/>
     <use style="fill:#ff69b4;stroke:#ff69b4;" x="324.6763" xlink:href="#m8347c48e02" y="23.367008"/>
     <use style="fill:#ff69b4;stroke:#ff69b4;" x="335.081894" xlink:href="#m8347c48e02" y="103.630505"/>
     <use style="fill:#ff69b4;stroke:#ff69b4;" x="345.487489" xlink:href="#m8347c48e02" y="121.325531"/>
     <use style="fill:#ff69b4;stroke:#ff69b4;" x="355.893083" xlink:href="#m8347c48e02" y="128.966437"/>
     <use style="fill:#ff69b4;stroke:#ff69b4;" x="366.298677" xlink:href="#m8347c48e02" y="131.182114"/>
     <use style="fill:#ff69b4;stroke:#ff69b4;" x="376.704272" xlink:href="#m8347c48e02" y="125.927527"/>
     <use style="fill:#ff69b4;stroke:#ff69b4;" x="387.109866" xlink:href="#m8347c48e02" y="124.403939"/>
     <use style="fill:#ff69b4;stroke:#ff69b4;" x="397.515461" xlink:href="#m8347c48e02" y="123.789686"/>
     <use style="fill:#ff69b4;stroke:#ff69b4;" x="407.921055" xlink:href="#m8347c48e02" y="128.964844"/>
     <use style="fill:#ff69b4;stroke:#ff69b4;" x="418.326649" xlink:href="#m8347c48e02" y="131.60244"/>
     <use style="fill:#ff69b4;stroke:#ff69b4;" x="428.732244" xlink:href="#m8347c48e02" y="133.46455"/>
     <use style="fill:#ff69b4;stroke:#ff69b4;" x="439.137838" xlink:href="#m8347c48e02" y="135.507507"/>
     <use style="fill:#ff69b4;stroke:#ff69b4;" x="449.543433" xlink:href="#m8347c48e02" y="136.786089"/>
     <use style="fill:#ff69b4;stroke:#ff69b4;" x="459.949027" xlink:href="#m8347c48e02" y="137.618962"/>
     <use style="fill:#ff69b4;stroke:#ff69b4;" x="470.354622" xlink:href="#m8347c48e02" y="59.478812"/>
     <use style="fill:#ff69b4;stroke:#ff69b4;" x="480.760216" xlink:href="#m8347c48e02" y="84.521987"/>
    </g>
   </g>
   <g id="patch_3">
    <path d="M 54.651125 181.2 
L 54.651125 0 
" style="fill:none;stroke:#000000;stroke-linecap:square;stroke-linejoin:miter;stroke-width:0.8;"/>
   </g>
   <g id="patch_4">
    <path d="M 501.051125 181.2 
L 501.051125 0 
" style="fill:none;stroke:#000000;stroke-linecap:square;stroke-linejoin:miter;stroke-width:0.8;"/>
   </g>
   <g id="patch_5">
    <path d="M 54.651125 181.2 
L 501.051125 181.2 
" style="fill:none;stroke:#000000;stroke-linecap:square;stroke-linejoin:miter;stroke-width:0.8;"/>
   </g>
   <g id="patch_6">
    <path d="M 54.651125 0 
L 501.051125 0 
" style="fill:none;stroke:#000000;stroke-linecap:square;stroke-linejoin:miter;stroke-width:0.8;"/>
   </g>
  </g>
  <g id="axes_2">
   <g id="patch_7">
    <path d="M 54.651125 271.8 
L 501.051125 271.8 
L 501.051125 181.2 
L 54.651125 181.2 
z
" style="fill:#ffffff;"/>
   </g>
   <g id="matplotlib.axis_3">
    <g id="xtick_10">
     <g id="line2d_30">
      <g>
       <use style="stroke:#000000;stroke-width:0.8;" x="64.53644" xlink:href="#m8001464260" y="271.8"/>
      </g>
     </g>
     <g id="text_9">
      <!-- 0 -->
      <g transform="translate(61.35519 286.398437)scale(0.1 -0.1)">
       <use xlink:href="#DejaVuSans-48"/>
      </g>
     </g>
    </g>
    <g id="xtick_11">
     <g id="line2d_31">
      <g>
       <use style="stroke:#000000;stroke-width:0.8;" x="116.564412" xlink:href="#m8001464260" y="271.8"/>
      </g>
     </g>
     <g id="text_10">
      <!-- 5 -->
      <g transform="translate(113.383162 286.398437)scale(0.1 -0.1)">
       <use xlink:href="#DejaVuSans-53"/>
      </g>
     </g>
    </g>
    <g id="xtick_12">
     <g id="line2d_32">
      <g>
       <use style="stroke:#000000;stroke-width:0.8;" x="168.592384" xlink:href="#m8001464260" y="271.8"/>
      </g>
     </g>
     <g id="text_11">
      <!-- 10 -->
      <g transform="translate(162.229884 286.398437)scale(0.1 -0.1)">
       <use xlink:href="#DejaVuSans-49"/>
       <use x="63.623047" xlink:href="#DejaVuSans-48"/>
      </g>
     </g>
    </g>
    <g id="xtick_13">
     <g id="line2d_33">
      <g>
       <use style="stroke:#000000;stroke-width:0.8;" x="220.620356" xlink:href="#m8001464260" y="271.8"/>
      </g>
     </g>
     <g id="text_12">
      <!-- 15 -->
      <g transform="translate(214.257856 286.398437)scale(0.1 -0.1)">
       <use xlink:href="#DejaVuSans-49"/>
       <use x="63.623047" xlink:href="#DejaVuSans-53"/>
      </g>
     </g>
    </g>
    <g id="xtick_14">
     <g id="line2d_34">
      <g>
       <use style="stroke:#000000;stroke-width:0.8;" x="272.648328" xlink:href="#m8001464260" y="271.8"/>
      </g>
     </g>
     <g id="text_13">
      <!-- 20 -->
      <g transform="translate(266.285828 286.398437)scale(0.1 -0.1)">
       <use xlink:href="#DejaVuSans-50"/>
       <use x="63.623047" xlink:href="#DejaVuSans-48"/>
      </g>
     </g>
    </g>
    <g id="xtick_15">
     <g id="line2d_35">
      <g>
       <use style="stroke:#000000;stroke-width:0.8;" x="324.6763" xlink:href="#m8001464260" y="271.8"/>
      </g>
     </g>
     <g id="text_14">
      <!-- 25 -->
      <g transform="translate(318.3138 286.398437)scale(0.1 -0.1)">
       <use xlink:href="#DejaVuSans-50"/>
       <use x="63.623047" xlink:href="#DejaVuSans-53"/>
      </g>
     </g>
    </g>
    <g id="xtick_16">
     <g id="line2d_36">
      <g>
       <use style="stroke:#000000;stroke-width:0.8;" x="376.704272" xlink:href="#m8001464260" y="271.8"/>
      </g>
     </g>
     <g id="text_15">
      <!-- 30 -->
      <g transform="translate(370.341772 286.398437)scale(0.1 -0.1)">
       <use xlink:href="#DejaVuSans-51"/>
       <use x="63.623047" xlink:href="#DejaVuSans-48"/>
      </g>
     </g>
    </g>
    <g id="xtick_17">
     <g id="line2d_37">
      <g>
       <use style="stroke:#000000;stroke-width:0.8;" x="428.732244" xlink:href="#m8001464260" y="271.8"/>
      </g>
     </g>
     <g id="text_16">
      <!-- 35 -->
      <g transform="translate(422.369744 286.398437)scale(0.1 -0.1)">
       <use xlink:href="#DejaVuSans-51"/>
       <use x="63.623047" xlink:href="#DejaVuSans-53"/>
      </g>
     </g>
    </g>
    <g id="xtick_18">
     <g id="line2d_38">
      <g>
       <use style="stroke:#000000;stroke-width:0.8;" x="480.760216" xlink:href="#m8001464260" y="271.8"/>
      </g>
     </g>
     <g id="text_17">
      <!-- 40 -->
      <g transform="translate(474.397716 286.398437)scale(0.1 -0.1)">
       <use xlink:href="#DejaVuSans-52"/>
       <use x="63.623047" xlink:href="#DejaVuSans-48"/>
      </g>
     </g>
    </g>
    <g id="text_18">
     <!-- # of Stacked Slices -->
     <g transform="translate(220.164875 301.59625)scale(0.12 -0.12)">
      <use xlink:href="#DejaVuSans-35"/>
      <use x="83.789062" xlink:href="#DejaVuSans-32"/>
      <use x="115.576172" xlink:href="#DejaVuSans-111"/>
      <use x="176.757812" xlink:href="#DejaVuSans-102"/>
      <use x="211.962891" xlink:href="#DejaVuSans-32"/>
      <use x="243.75" xlink:href="#DejaVuSans-83"/>
      <use x="307.226562" xlink:href="#DejaVuSans-116"/>
      <use x="346.435547" xlink:href="#DejaVuSans-97"/>
      <use x="407.714844" xlink:href="#DejaVuSans-99"/>
      <use x="462.695312" xlink:href="#DejaVuSans-107"/>
      <use x="516.980469" xlink:href="#DejaVuSans-101"/>
      <use x="578.503906" xlink:href="#DejaVuSans-100"/>
      <use x="641.980469" xlink:href="#DejaVuSans-32"/>
      <use x="673.767578" xlink:href="#DejaVuSans-83"/>
      <use x="737.244141" xlink:href="#DejaVuSans-108"/>
      <use x="765.027344" xlink:href="#DejaVuSans-105"/>
      <use x="792.810547" xlink:href="#DejaVuSans-99"/>
      <use x="847.791016" xlink:href="#DejaVuSans-101"/>
      <use x="909.314453" xlink:href="#DejaVuSans-115"/>
     </g>
    </g>
   </g>
   <g id="matplotlib.axis_4">
    <g id="ytick_7">
     <g id="line2d_39">
      <g>
       <use style="stroke:#000000;stroke-width:0.8;" x="54.651125" xlink:href="#mfb4a8bd080" y="236.220978"/>
      </g>
     </g>
     <g id="text_19">
      <!-- $\mathdefault{10^{0}}$ -->
      <g transform="translate(30.051125 240.020197)scale(0.1 -0.1)">
       <use transform="translate(0 0.765625)" xlink:href="#DejaVuSans-49"/>
       <use transform="translate(63.623047 0.765625)" xlink:href="#DejaVuSans-48"/>
       <use transform="translate(128.203125 39.046875)scale(0.7)" xlink:href="#DejaVuSans-48"/>
      </g>
     </g>
    </g>
    <g id="ytick_8">
     <g id="line2d_40">
      <g>
       <use style="stroke:#000000;stroke-width:0.8;" x="54.651125" xlink:href="#mfb4a8bd080" y="197.47873"/>
      </g>
     </g>
     <g id="text_20">
      <!-- $\mathdefault{10^{1}}$ -->
      <g transform="translate(30.051125 201.277949)scale(0.1 -0.1)">
       <use transform="translate(0 0.684375)" xlink:href="#DejaVuSans-49"/>
       <use transform="translate(63.623047 0.684375)" xlink:href="#DejaVuSans-48"/>
       <use transform="translate(128.203125 38.965625)scale(0.7)" xlink:href="#DejaVuSans-49"/>
      </g>
     </g>
    </g>
    <g id="ytick_9">
     <g id="line2d_41">
      <defs>
       <path d="M 0 0 
L -2 0 
" id="m46ca25904b" style="stroke:#000000;stroke-width:0.6;"/>
      </defs>
      <g>
       <use style="stroke:#000000;stroke-width:0.6;" x="54.651125" xlink:href="#m46ca25904b" y="263.300647"/>
      </g>
     </g>
    </g>
    <g id="ytick_10">
     <g id="line2d_42">
      <g>
       <use style="stroke:#000000;stroke-width:0.6;" x="54.651125" xlink:href="#m46ca25904b" y="256.478476"/>
      </g>
     </g>
    </g>
    <g id="ytick_11">
     <g id="line2d_43">
      <g>
       <use style="stroke:#000000;stroke-width:0.6;" x="54.651125" xlink:href="#m46ca25904b" y="251.638069"/>
      </g>
     </g>
    </g>
    <g id="ytick_12">
     <g id="line2d_44">
      <g>
       <use style="stroke:#000000;stroke-width:0.6;" x="54.651125" xlink:href="#m46ca25904b" y="247.883557"/>
      </g>
     </g>
    </g>
    <g id="ytick_13">
     <g id="line2d_45">
      <g>
       <use style="stroke:#000000;stroke-width:0.6;" x="54.651125" xlink:href="#m46ca25904b" y="244.815897"/>
      </g>
     </g>
    </g>
    <g id="ytick_14">
     <g id="line2d_46">
      <g>
       <use style="stroke:#000000;stroke-width:0.6;" x="54.651125" xlink:href="#m46ca25904b" y="242.222228"/>
      </g>
     </g>
    </g>
    <g id="ytick_15">
     <g id="line2d_47">
      <g>
       <use style="stroke:#000000;stroke-width:0.6;" x="54.651125" xlink:href="#m46ca25904b" y="239.97549"/>
      </g>
     </g>
    </g>
    <g id="ytick_16">
     <g id="line2d_48">
      <g>
       <use style="stroke:#000000;stroke-width:0.6;" x="54.651125" xlink:href="#m46ca25904b" y="237.993726"/>
      </g>
     </g>
    </g>
    <g id="ytick_17">
     <g id="line2d_49">
      <g>
       <use style="stroke:#000000;stroke-width:0.6;" x="54.651125" xlink:href="#m46ca25904b" y="224.5584"/>
      </g>
     </g>
    </g>
    <g id="ytick_18">
     <g id="line2d_50">
      <g>
       <use style="stroke:#000000;stroke-width:0.6;" x="54.651125" xlink:href="#m46ca25904b" y="217.736228"/>
      </g>
     </g>
    </g>
    <g id="ytick_19">
     <g id="line2d_51">
      <g>
       <use style="stroke:#000000;stroke-width:0.6;" x="54.651125" xlink:href="#m46ca25904b" y="212.895821"/>
      </g>
     </g>
    </g>
    <g id="ytick_20">
     <g id="line2d_52">
      <g>
       <use style="stroke:#000000;stroke-width:0.6;" x="54.651125" xlink:href="#m46ca25904b" y="209.141309"/>
      </g>
     </g>
    </g>
    <g id="ytick_21">
     <g id="line2d_53">
      <g>
       <use style="stroke:#000000;stroke-width:0.6;" x="54.651125" xlink:href="#m46ca25904b" y="206.07365"/>
      </g>
     </g>
    </g>
    <g id="ytick_22">
     <g id="line2d_54">
      <g>
       <use style="stroke:#000000;stroke-width:0.6;" x="54.651125" xlink:href="#m46ca25904b" y="203.479981"/>
      </g>
     </g>
    </g>
    <g id="ytick_23">
     <g id="line2d_55">
      <g>
       <use style="stroke:#000000;stroke-width:0.6;" x="54.651125" xlink:href="#m46ca25904b" y="201.233242"/>
      </g>
     </g>
    </g>
    <g id="ytick_24">
     <g id="line2d_56">
      <g>
       <use style="stroke:#000000;stroke-width:0.6;" x="54.651125" xlink:href="#m46ca25904b" y="199.251478"/>
      </g>
     </g>
    </g>
    <g id="ytick_25">
     <g id="line2d_57">
      <g>
       <use style="stroke:#000000;stroke-width:0.6;" x="54.651125" xlink:href="#m46ca25904b" y="185.816152"/>
      </g>
     </g>
    </g>
    <g id="text_21">
     <!-- Local Running -->
     <g transform="translate(9.118125 268.544062)rotate(-90)scale(0.12 -0.12)">
      <defs>
       <path d="M 44.390625 34.1875 
Q 47.5625 33.109375 50.5625 29.59375 
Q 53.5625 26.078125 56.59375 19.921875 
L 66.609375 0 
L 56 0 
L 46.6875 18.703125 
Q 43.0625 26.03125 39.671875 28.421875 
Q 36.28125 30.8125 30.421875 30.8125 
L 19.671875 30.8125 
L 19.671875 0 
L 9.8125 0 
L 9.8125 72.90625 
L 32.078125 72.90625 
Q 44.578125 72.90625 50.734375 67.671875 
Q 56.890625 62.453125 56.890625 51.90625 
Q 56.890625 45.015625 53.6875 40.46875 
Q 50.484375 35.9375 44.390625 34.1875 
z
M 19.671875 64.796875 
L 19.671875 38.921875 
L 32.078125 38.921875 
Q 39.203125 38.921875 42.84375 42.21875 
Q 46.484375 45.515625 46.484375 51.90625 
Q 46.484375 58.296875 42.84375 61.546875 
Q 39.203125 64.796875 32.078125 64.796875 
z
" id="DejaVuSans-82"/>
       <path d="M 8.5 21.578125 
L 8.5 54.6875 
L 17.484375 54.6875 
L 17.484375 21.921875 
Q 17.484375 14.15625 20.5 10.265625 
Q 23.53125 6.390625 29.59375 6.390625 
Q 36.859375 6.390625 41.078125 11.03125 
Q 45.3125 15.671875 45.3125 23.6875 
L 45.3125 54.6875 
L 54.296875 54.6875 
L 54.296875 0 
L 45.3125 0 
L 45.3125 8.40625 
Q 42.046875 3.421875 37.71875 1 
Q 33.40625 -1.421875 27.6875 -1.421875 
Q 18.265625 -1.421875 13.375 4.4375 
Q 8.5 10.296875 8.5 21.578125 
z
M 31.109375 56 
z
" id="DejaVuSans-117"/>
       <path d="M 54.890625 33.015625 
L 54.890625 0 
L 45.90625 0 
L 45.90625 32.71875 
Q 45.90625 40.484375 42.875 44.328125 
Q 39.84375 48.1875 33.796875 48.1875 
Q 26.515625 48.1875 22.3125 43.546875 
Q 18.109375 38.921875 18.109375 30.90625 
L 18.109375 0 
L 9.078125 0 
L 9.078125 54.6875 
L 18.109375 54.6875 
L 18.109375 46.1875 
Q 21.34375 51.125 25.703125 53.5625 
Q 30.078125 56 35.796875 56 
Q 45.21875 56 50.046875 50.171875 
Q 54.890625 44.34375 54.890625 33.015625 
z
" id="DejaVuSans-110"/>
       <path d="M 45.40625 27.984375 
Q 45.40625 37.75 41.375 43.109375 
Q 37.359375 48.484375 30.078125 48.484375 
Q 22.859375 48.484375 18.828125 43.109375 
Q 14.796875 37.75 14.796875 27.984375 
Q 14.796875 18.265625 18.828125 12.890625 
Q 22.859375 7.515625 30.078125 7.515625 
Q 37.359375 7.515625 41.375 12.890625 
Q 45.40625 18.265625 45.40625 27.984375 
z
M 54.390625 6.78125 
Q 54.390625 -7.171875 48.1875 -13.984375 
Q 42 -20.796875 29.203125 -20.796875 
Q 24.46875 -20.796875 20.265625 -20.09375 
Q 16.0625 -19.390625 12.109375 -17.921875 
L 12.109375 -9.1875 
Q 16.0625 -11.328125 19.921875 -12.34375 
Q 23.78125 -13.375 27.78125 -13.375 
Q 36.625 -13.375 41.015625 -8.765625 
Q 45.40625 -4.15625 45.40625 5.171875 
L 45.40625 9.625 
Q 42.625 4.78125 38.28125 2.390625 
Q 33.9375 0 27.875 0 
Q 17.828125 0 11.671875 7.65625 
Q 5.515625 15.328125 5.515625 27.984375 
Q 5.515625 40.671875 11.671875 48.328125 
Q 17.828125 56 27.875 56 
Q 33.9375 56 38.28125 53.609375 
Q 42.625 51.21875 45.40625 46.390625 
L 45.40625 54.6875 
L 54.390625 54.6875 
z
" id="DejaVuSans-103"/>
      </defs>
      <use xlink:href="#DejaVuSans-76"/>
      <use x="53.962891" xlink:href="#DejaVuSans-111"/>
      <use x="115.144531" xlink:href="#DejaVuSans-99"/>
      <use x="170.125" xlink:href="#DejaVuSans-97"/>
      <use x="231.404297" xlink:href="#DejaVuSans-108"/>
      <use x="259.1875" xlink:href="#DejaVuSans-32"/>
      <use x="290.974609" xlink:href="#DejaVuSans-82"/>
      <use x="355.957031" xlink:href="#DejaVuSans-117"/>
      <use x="419.335938" xlink:href="#DejaVuSans-110"/>
      <use x="482.714844" xlink:href="#DejaVuSans-110"/>
      <use x="546.09375" xlink:href="#DejaVuSans-105"/>
      <use x="573.876953" xlink:href="#DejaVuSans-110"/>
      <use x="637.255859" xlink:href="#DejaVuSans-103"/>
     </g>
     <!-- Time (s) -->
     <g transform="translate(22.5555 250.894687)rotate(-90)scale(0.12 -0.12)">
      <defs>
       <path d="M -0.296875 72.90625 
L 61.375 72.90625 
L 61.375 64.59375 
L 35.5 64.59375 
L 35.5 0 
L 25.59375 0 
L 25.59375 64.59375 
L -0.296875 64.59375 
z
" id="DejaVuSans-84"/>
       <path d="M 31 75.875 
Q 24.46875 64.65625 21.28125 53.65625 
Q 18.109375 42.671875 18.109375 31.390625 
Q 18.109375 20.125 21.3125 9.0625 
Q 24.515625 -2 31 -13.1875 
L 23.1875 -13.1875 
Q 15.875 -1.703125 12.234375 9.375 
Q 8.59375 20.453125 8.59375 31.390625 
Q 8.59375 42.28125 12.203125 53.3125 
Q 15.828125 64.359375 23.1875 75.875 
z
" id="DejaVuSans-40"/>
       <path d="M 8.015625 75.875 
L 15.828125 75.875 
Q 23.140625 64.359375 26.78125 53.3125 
Q 30.421875 42.28125 30.421875 31.390625 
Q 30.421875 20.453125 26.78125 9.375 
Q 23.140625 -1.703125 15.828125 -13.1875 
L 8.015625 -13.1875 
Q 14.5 -2 17.703125 9.0625 
Q 20.90625 20.125 20.90625 31.390625 
Q 20.90625 42.671875 17.703125 53.65625 
Q 14.5 64.65625 8.015625 75.875 
z
" id="DejaVuSans-41"/>
      </defs>
      <use xlink:href="#DejaVuSans-84"/>
      <use x="57.958984" xlink:href="#DejaVuSans-105"/>
      <use x="85.742188" xlink:href="#DejaVuSans-109"/>
      <use x="183.154297" xlink:href="#DejaVuSans-101"/>
      <use x="244.677734" xlink:href="#DejaVuSans-32"/>
      <use x="276.464844" xlink:href="#DejaVuSans-40"/>
      <use x="315.478516" xlink:href="#DejaVuSans-115"/>
      <use x="367.578125" xlink:href="#DejaVuSans-41"/>
     </g>
    </g>
   </g>
   <g id="line2d_58">
    <path clip-path="url(#p51438f4ff7)" d="M 106.158817 271.8 
L 106.158817 181.2 
" style="fill:none;stroke:#d3d3d3;stroke-dasharray:7.4,3.2;stroke-dashoffset:0;stroke-width:2;"/>
   </g>
   <g id="line2d_59">
    <path clip-path="url(#p51438f4ff7)" d="M 272.648328 271.8 
L 272.648328 181.2 
" style="fill:none;stroke:#d3d3d3;stroke-dasharray:7.4,3.2;stroke-dashoffset:0;stroke-width:2;"/>
   </g>
   <g id="line2d_60">
    <path clip-path="url(#p51438f4ff7)" d="M 283.053922 271.8 
L 283.053922 181.2 
" style="fill:none;stroke:#d3d3d3;stroke-dasharray:7.4,3.2;stroke-dashoffset:0;stroke-width:2;"/>
   </g>
   <g id="line2d_61">
    <path clip-path="url(#p51438f4ff7)" d="M 293.459517 271.8 
L 293.459517 181.2 
" style="fill:none;stroke:#d3d3d3;stroke-dasharray:7.4,3.2;stroke-dashoffset:0;stroke-width:2;"/>
   </g>
   <g id="line2d_62">
    <path clip-path="url(#p51438f4ff7)" d="M 303.865111 271.8 
L 303.865111 181.2 
" style="fill:none;stroke:#d3d3d3;stroke-dasharray:7.4,3.2;stroke-dashoffset:0;stroke-width:2;"/>
   </g>
   <g id="line2d_63">
    <path clip-path="url(#p51438f4ff7)" d="M 314.270705 271.8 
L 314.270705 181.2 
" style="fill:none;stroke:#d3d3d3;stroke-dasharray:7.4,3.2;stroke-dashoffset:0;stroke-width:2;"/>
   </g>
   <g id="line2d_64">
    <path clip-path="url(#p51438f4ff7)" d="M 376.704272 271.8 
L 376.704272 181.2 
" style="fill:none;stroke:#d3d3d3;stroke-dasharray:7.4,3.2;stroke-dashoffset:0;stroke-width:2;"/>
   </g>
   <g id="line2d_65">
    <path clip-path="url(#p51438f4ff7)" d="M 387.109866 271.8 
L 387.109866 181.2 
" style="fill:none;stroke:#d3d3d3;stroke-dasharray:7.4,3.2;stroke-dashoffset:0;stroke-width:2;"/>
   </g>
   <g id="line2d_66">
    <path clip-path="url(#p51438f4ff7)" d="M 85.347628 271.8 
L 85.347628 181.2 
" style="fill:none;stroke:#d3d3d3;stroke-linecap:square;stroke-width:2;"/>
   </g>
   <g id="line2d_67">
    <path clip-path="url(#p51438f4ff7)" d="M 324.6763 271.8 
L 324.6763 181.2 
" style="fill:none;stroke:#d3d3d3;stroke-linecap:square;stroke-width:2;"/>
   </g>
   <g id="line2d_68">
    <path clip-path="url(#p51438f4ff7)" d="M 470.354622 271.8 
L 470.354622 181.2 
" style="fill:none;stroke:#d3d3d3;stroke-linecap:square;stroke-width:2;"/>
   </g>
   <g id="line2d_69">
    <path clip-path="url(#p51438f4ff7)" d="M 74.942034 254.295791 
L 85.347628 186.351888 
L 85.347628 264.836864 
L 95.753223 250.43693 
L 106.158817 246.177805 
L 106.158817 231.695702 
L 116.564412 250.043504 
L 126.970006 251.619822 
L 137.375601 254.066329 
L 147.781195 255.67715 
L 158.186789 254.502045 
L 168.592384 249.204113 
L 178.997978 253.505716 
L 189.403573 254.268272 
L 199.809167 253.237208 
L 210.214761 253.469034 
L 220.620356 254.726396 
L 231.02595 255.591891 
L 241.431545 252.452295 
L 251.837139 253.649544 
L 262.242733 255.148161 
L 272.648328 251.106082 
L 272.648328 237.728713 
L 283.053922 255.107623 
L 283.053922 238.489599 
L 293.459517 254.053508 
L 293.459517 238.877928 
L 303.865111 253.481013 
L 303.865111 237.823974 
L 314.270705 254.808956 
L 314.270705 239.000112 
L 324.6763 185.318182 
L 324.6763 266.697368 
L 335.081894 253.006064 
L 345.487489 254.196499 
L 355.893083 252.807042 
L 366.298677 252.435104 
L 376.704272 250.375748 
L 376.704272 237.440323 
L 387.109866 256.15318 
L 387.109866 237.384704 
L 397.515461 251.901894 
L 407.921055 249.755456 
L 418.326649 255.99729 
L 428.732244 248.510368 
L 439.137838 251.253594 
L 449.543433 246.686776 
L 459.949027 252.878533 
L 470.354622 186.1389 
L 470.354622 267.681818 
L 480.760216 253.204837 
" style="fill:none;stroke:#1e90ff;stroke-linecap:square;"/>
    <g clip-path="url(#p51438f4ff7)">
     <use style="fill:#1e90ff;stroke:#1e90ff;" x="74.942034" xlink:href="#m443aa29d2d" y="254.295791"/>
     <use style="fill:#1e90ff;stroke:#1e90ff;" x="85.347628" xlink:href="#m443aa29d2d" y="186.351888"/>
     <use style="fill:#1e90ff;stroke:#1e90ff;" x="85.347628" xlink:href="#m443aa29d2d" y="264.836864"/>
     <use style="fill:#1e90ff;stroke:#1e90ff;" x="95.753223" xlink:href="#m443aa29d2d" y="250.43693"/>
     <use style="fill:#1e90ff;stroke:#1e90ff;" x="106.158817" xlink:href="#m443aa29d2d" y="246.177805"/>
     <use style="fill:#1e90ff;stroke:#1e90ff;" x="106.158817" xlink:href="#m443aa29d2d" y="231.695702"/>
     <use style="fill:#1e90ff;stroke:#1e90ff;" x="116.564412" xlink:href="#m443aa29d2d" y="250.043504"/>
     <use style="fill:#1e90ff;stroke:#1e90ff;" x="126.970006" xlink:href="#m443aa29d2d" y="251.619822"/>
     <use style="fill:#1e90ff;stroke:#1e90ff;" x="137.375601" xlink:href="#m443aa29d2d" y="254.066329"/>
     <use style="fill:#1e90ff;stroke:#1e90ff;" x="147.781195" xlink:href="#m443aa29d2d" y="255.67715"/>
     <use style="fill:#1e90ff;stroke:#1e90ff;" x="158.186789" xlink:href="#m443aa29d2d" y="254.502045"/>
     <use style="fill:#1e90ff;stroke:#1e90ff;" x="168.592384" xlink:href="#m443aa29d2d" y="249.204113"/>
     <use style="fill:#1e90ff;stroke:#1e90ff;" x="178.997978" xlink:href="#m443aa29d2d" y="253.505716"/>
     <use style="fill:#1e90ff;stroke:#1e90ff;" x="189.403573" xlink:href="#m443aa29d2d" y="254.268272"/>
     <use style="fill:#1e90ff;stroke:#1e90ff;" x="199.809167" xlink:href="#m443aa29d2d" y="253.237208"/>
     <use style="fill:#1e90ff;stroke:#1e90ff;" x="210.214761" xlink:href="#m443aa29d2d" y="253.469034"/>
     <use style="fill:#1e90ff;stroke:#1e90ff;" x="220.620356" xlink:href="#m443aa29d2d" y="254.726396"/>
     <use style="fill:#1e90ff;stroke:#1e90ff;" x="231.02595" xlink:href="#m443aa29d2d" y="255.591891"/>
     <use style="fill:#1e90ff;stroke:#1e90ff;" x="241.431545" xlink:href="#m443aa29d2d" y="252.452295"/>
     <use style="fill:#1e90ff;stroke:#1e90ff;" x="251.837139" xlink:href="#m443aa29d2d" y="253.649544"/>
     <use style="fill:#1e90ff;stroke:#1e90ff;" x="262.242733" xlink:href="#m443aa29d2d" y="255.148161"/>
     <use style="fill:#1e90ff;stroke:#1e90ff;" x="272.648328" xlink:href="#m443aa29d2d" y="251.106082"/>
     <use style="fill:#1e90ff;stroke:#1e90ff;" x="272.648328" xlink:href="#m443aa29d2d" y="237.728713"/>
     <use style="fill:#1e90ff;stroke:#1e90ff;" x="283.053922" xlink:href="#m443aa29d2d" y="255.107623"/>
     <use style="fill:#1e90ff;stroke:#1e90ff;" x="283.053922" xlink:href="#m443aa29d2d" y="238.489599"/>
     <use style="fill:#1e90ff;stroke:#1e90ff;" x="293.459517" xlink:href="#m443aa29d2d" y="254.053508"/>
     <use style="fill:#1e90ff;stroke:#1e90ff;" x="293.459517" xlink:href="#m443aa29d2d" y="238.877928"/>
     <use style="fill:#1e90ff;stroke:#1e90ff;" x="303.865111" xlink:href="#m443aa29d2d" y="253.481013"/>
     <use style="fill:#1e90ff;stroke:#1e90ff;" x="303.865111" xlink:href="#m443aa29d2d" y="237.823974"/>
     <use style="fill:#1e90ff;stroke:#1e90ff;" x="314.270705" xlink:href="#m443aa29d2d" y="254.808956"/>
     <use style="fill:#1e90ff;stroke:#1e90ff;" x="314.270705" xlink:href="#m443aa29d2d" y="239.000112"/>
     <use style="fill:#1e90ff;stroke:#1e90ff;" x="324.6763" xlink:href="#m443aa29d2d" y="185.318182"/>
     <use style="fill:#1e90ff;stroke:#1e90ff;" x="324.6763" xlink:href="#m443aa29d2d" y="266.697368"/>
     <use style="fill:#1e90ff;stroke:#1e90ff;" x="335.081894" xlink:href="#m443aa29d2d" y="253.006064"/>
     <use style="fill:#1e90ff;stroke:#1e90ff;" x="345.487489" xlink:href="#m443aa29d2d" y="254.196499"/>
     <use style="fill:#1e90ff;stroke:#1e90ff;" x="355.893083" xlink:href="#m443aa29d2d" y="252.807042"/>
     <use style="fill:#1e90ff;stroke:#1e90ff;" x="366.298677" xlink:href="#m443aa29d2d" y="252.435104"/>
     <use style="fill:#1e90ff;stroke:#1e90ff;" x="376.704272" xlink:href="#m443aa29d2d" y="250.375748"/>
     <use style="fill:#1e90ff;stroke:#1e90ff;" x="376.704272" xlink:href="#m443aa29d2d" y="237.440323"/>
     <use style="fill:#1e90ff;stroke:#1e90ff;" x="387.109866" xlink:href="#m443aa29d2d" y="256.15318"/>
     <use style="fill:#1e90ff;stroke:#1e90ff;" x="387.109866" xlink:href="#m443aa29d2d" y="237.384704"/>
     <use style="fill:#1e90ff;stroke:#1e90ff;" x="397.515461" xlink:href="#m443aa29d2d" y="251.901894"/>
     <use style="fill:#1e90ff;stroke:#1e90ff;" x="407.921055" xlink:href="#m443aa29d2d" y="249.755456"/>
     <use style="fill:#1e90ff;stroke:#1e90ff;" x="418.326649" xlink:href="#m443aa29d2d" y="255.99729"/>
     <use style="fill:#1e90ff;stroke:#1e90ff;" x="428.732244" xlink:href="#m443aa29d2d" y="248.510368"/>
     <use style="fill:#1e90ff;stroke:#1e90ff;" x="439.137838" xlink:href="#m443aa29d2d" y="251.253594"/>
     <use style="fill:#1e90ff;stroke:#1e90ff;" x="449.543433" xlink:href="#m443aa29d2d" y="246.686776"/>
     <use style="fill:#1e90ff;stroke:#1e90ff;" x="459.949027" xlink:href="#m443aa29d2d" y="252.878533"/>
     <use style="fill:#1e90ff;stroke:#1e90ff;" x="470.354622" xlink:href="#m443aa29d2d" y="186.1389"/>
     <use style="fill:#1e90ff;stroke:#1e90ff;" x="470.354622" xlink:href="#m443aa29d2d" y="267.681818"/>
     <use style="fill:#1e90ff;stroke:#1e90ff;" x="480.760216" xlink:href="#m443aa29d2d" y="253.204837"/>
    </g>
   </g>
   <g id="line2d_70">
    <path clip-path="url(#p51438f4ff7)" d="M 74.942034 256.906532 
L 85.347628 252.832313 
L 95.753223 249.784886 
L 106.158817 255.212692 
L 116.564412 251.120449 
L 126.970006 253.246232 
L 137.375601 254.180604 
L 147.781195 251.792462 
L 158.186789 243.449019 
L 168.592384 254.500131 
L 178.997978 255.511519 
L 189.403573 255.30627 
L 199.809167 254.33018 
L 210.214761 250.623202 
L 220.620356 251.900977 
L 231.02595 248.092631 
L 241.431545 253.685852 
L 251.837139 253.428359 
L 262.242733 245.885292 
L 272.648328 250.632637 
L 283.053922 255.033795 
L 293.459517 254.809549 
L 303.865111 254.1086 
L 314.270705 254.538503 
L 324.6763 254.76495 
L 335.081894 255.019456 
L 345.487489 254.894028 
L 355.893083 252.561085 
L 366.298677 253.192491 
L 376.704272 250.682061 
L 387.109866 255.367468 
L 397.515461 254.918227 
L 407.921055 254.706189 
L 418.326649 255.273861 
L 428.732244 254.377735 
L 439.137838 255.135267 
L 449.543433 252.717975 
L 459.949027 255.203219 
L 470.354622 254.898324 
L 480.760216 255.089785 
" style="fill:none;stroke:#3cb371;stroke-linecap:square;"/>
    <g clip-path="url(#p51438f4ff7)">
     <use style="fill:#3cb371;stroke:#3cb371;" x="74.942034" xlink:href="#me467bb7abd" y="256.906532"/>
     <use style="fill:#3cb371;stroke:#3cb371;" x="85.347628" xlink:href="#me467bb7abd" y="252.832313"/>
     <use style="fill:#3cb371;stroke:#3cb371;" x="95.753223" xlink:href="#me467bb7abd" y="249.784886"/>
     <use style="fill:#3cb371;stroke:#3cb371;" x="106.158817" xlink:href="#me467bb7abd" y="255.212692"/>
     <use style="fill:#3cb371;stroke:#3cb371;" x="116.564412" xlink:href="#me467bb7abd" y="251.120449"/>
     <use style="fill:#3cb371;stroke:#3cb371;" x="126.970006" xlink:href="#me467bb7abd" y="253.246232"/>
     <use style="fill:#3cb371;stroke:#3cb371;" x="137.375601" xlink:href="#me467bb7abd" y="254.180604"/>
     <use style="fill:#3cb371;stroke:#3cb371;" x="147.781195" xlink:href="#me467bb7abd" y="251.792462"/>
     <use style="fill:#3cb371;stroke:#3cb371;" x="158.186789" xlink:href="#me467bb7abd" y="243.449019"/>
     <use style="fill:#3cb371;stroke:#3cb371;" x="168.592384" xlink:href="#me467bb7abd" y="254.500131"/>
     <use style="fill:#3cb371;stroke:#3cb371;" x="178.997978" xlink:href="#me467bb7abd" y="255.511519"/>
     <use style="fill:#3cb371;stroke:#3cb371;" x="189.403573" xlink:href="#me467bb7abd" y="255.30627"/>
     <use style="fill:#3cb371;stroke:#3cb371;" x="199.809167" xlink:href="#me467bb7abd" y="254.33018"/>
     <use style="fill:#3cb371;stroke:#3cb371;" x="210.214761" xlink:href="#me467bb7abd" y="250.623202"/>
     <use style="fill:#3cb371;stroke:#3cb371;" x="220.620356" xlink:href="#me467bb7abd" y="251.900977"/>
     <use style="fill:#3cb371;stroke:#3cb371;" x="231.02595" xlink:href="#me467bb7abd" y="248.092631"/>
     <use style="fill:#3cb371;stroke:#3cb371;" x="241.431545" xlink:href="#me467bb7abd" y="253.685852"/>
     <use style="fill:#3cb371;stroke:#3cb371;" x="251.837139" xlink:href="#me467bb7abd" y="253.428359"/>
     <use style="fill:#3cb371;stroke:#3cb371;" x="262.242733" xlink:href="#me467bb7abd" y="245.885292"/>
     <use style="fill:#3cb371;stroke:#3cb371;" x="272.648328" xlink:href="#me467bb7abd" y="250.632637"/>
     <use style="fill:#3cb371;stroke:#3cb371;" x="283.053922" xlink:href="#me467bb7abd" y="255.033795"/>
     <use style="fill:#3cb371;stroke:#3cb371;" x="293.459517" xlink:href="#me467bb7abd" y="254.809549"/>
     <use style="fill:#3cb371;stroke:#3cb371;" x="303.865111" xlink:href="#me467bb7abd" y="254.1086"/>
     <use style="fill:#3cb371;stroke:#3cb371;" x="314.270705" xlink:href="#me467bb7abd" y="254.538503"/>
     <use style="fill:#3cb371;stroke:#3cb371;" x="324.6763" xlink:href="#me467bb7abd" y="254.76495"/>
     <use style="fill:#3cb371;stroke:#3cb371;" x="335.081894" xlink:href="#me467bb7abd" y="255.019456"/>
     <use style="fill:#3cb371;stroke:#3cb371;" x="345.487489" xlink:href="#me467bb7abd" y="254.894028"/>
     <use style="fill:#3cb371;stroke:#3cb371;" x="355.893083" xlink:href="#me467bb7abd" y="252.561085"/>
     <use style="fill:#3cb371;stroke:#3cb371;" x="366.298677" xlink:href="#me467bb7abd" y="253.192491"/>
     <use style="fill:#3cb371;stroke:#3cb371;" x="376.704272" xlink:href="#me467bb7abd" y="250.682061"/>
     <use style="fill:#3cb371;stroke:#3cb371;" x="387.109866" xlink:href="#me467bb7abd" y="255.367468"/>
     <use style="fill:#3cb371;stroke:#3cb371;" x="397.515461" xlink:href="#me467bb7abd" y="254.918227"/>
     <use style="fill:#3cb371;stroke:#3cb371;" x="407.921055" xlink:href="#me467bb7abd" y="254.706189"/>
     <use style="fill:#3cb371;stroke:#3cb371;" x="418.326649" xlink:href="#me467bb7abd" y="255.273861"/>
     <use style="fill:#3cb371;stroke:#3cb371;" x="428.732244" xlink:href="#me467bb7abd" y="254.377735"/>
     <use style="fill:#3cb371;stroke:#3cb371;" x="439.137838" xlink:href="#me467bb7abd" y="255.135267"/>
     <use style="fill:#3cb371;stroke:#3cb371;" x="449.543433" xlink:href="#me467bb7abd" y="252.717975"/>
     <use style="fill:#3cb371;stroke:#3cb371;" x="459.949027" xlink:href="#me467bb7abd" y="255.203219"/>
     <use style="fill:#3cb371;stroke:#3cb371;" x="470.354622" xlink:href="#me467bb7abd" y="254.898324"/>
     <use style="fill:#3cb371;stroke:#3cb371;" x="480.760216" xlink:href="#me467bb7abd" y="255.089785"/>
    </g>
   </g>
   <g id="line2d_71">
    <path clip-path="url(#p51438f4ff7)" d="M 74.942034 252.315039 
L 85.347628 250.952879 
L 95.753223 250.35664 
L 106.158817 251.56718 
L 116.564412 251.081293 
L 126.970006 251.397912 
L 137.375601 251.342509 
L 147.781195 251.342618 
L 158.186789 250.849009 
L 168.592384 251.54312 
L 178.997978 252.363689 
L 189.403573 251.466299 
L 199.809167 248.394457 
L 210.214761 251.424261 
L 220.620356 252.335619 
L 231.02595 252.322234 
L 241.431545 252.423741 
L 251.837139 252.31174 
L 262.242733 252.0862 
L 272.648328 250.792721 
L 283.053922 250.938423 
L 293.459517 250.316549 
L 303.865111 251.573563 
L 314.270705 252.164162 
L 324.6763 252.292387 
L 335.081894 252.028396 
L 345.487489 252.578098 
L 355.893083 252.484419 
L 366.298677 249.87976 
L 376.704272 251.13918 
L 387.109866 249.249883 
L 397.515461 251.640371 
L 407.921055 251.767016 
L 418.326649 251.396518 
L 428.732244 250.385967 
L 439.137838 250.834699 
L 449.543433 248.654677 
L 459.949027 250.583386 
L 470.354622 251.853229 
L 480.760216 252.027472 
" style="fill:none;stroke:#ff69b4;stroke-linecap:square;"/>
    <g clip-path="url(#p51438f4ff7)">
     <use style="fill:#ff69b4;stroke:#ff69b4;" x="74.942034" xlink:href="#m8347c48e02" y="252.315039"/>
     <use style="fill:#ff69b4;stroke:#ff69b4;" x="85.347628" xlink:href="#m8347c48e02" y="250.952879"/>
     <use style="fill:#ff69b4;stroke:#ff69b4;" x="95.753223" xlink:href="#m8347c48e02" y="250.35664"/>
     <use style="fill:#ff69b4;stroke:#ff69b4;" x="106.158817" xlink:href="#m8347c48e02" y="251.56718"/>
     <use style="fill:#ff69b4;stroke:#ff69b4;" x="116.564412" xlink:href="#m8347c48e02" y="251.081293"/>
     <use style="fill:#ff69b4;stroke:#ff69b4;" x="126.970006" xlink:href="#m8347c48e02" y="251.397912"/>
     <use style="fill:#ff69b4;stroke:#ff69b4;" x="137.375601" xlink:href="#m8347c48e02" y="251.342509"/>
     <use style="fill:#ff69b4;stroke:#ff69b4;" x="147.781195" xlink:href="#m8347c48e02" y="251.342618"/>
     <use style="fill:#ff69b4;stroke:#ff69b4;" x="158.186789" xlink:href="#m8347c48e02" y="250.849009"/>
     <use style="fill:#ff69b4;stroke:#ff69b4;" x="168.592384" xlink:href="#m8347c48e02" y="251.54312"/>
     <use style="fill:#ff69b4;stroke:#ff69b4;" x="178.997978" xlink:href="#m8347c48e02" y="252.363689"/>
     <use style="fill:#ff69b4;stroke:#ff69b4;" x="189.403573" xlink:href="#m8347c48e02" y="251.466299"/>
     <use style="fill:#ff69b4;stroke:#ff69b4;" x="199.809167" xlink:href="#m8347c48e02" y="248.394457"/>
     <use style="fill:#ff69b4;stroke:#ff69b4;" x="210.214761" xlink:href="#m8347c48e02" y="251.424261"/>
     <use style="fill:#ff69b4;stroke:#ff69b4;" x="220.620356" xlink:href="#m8347c48e02" y="252.335619"/>
     <use style="fill:#ff69b4;stroke:#ff69b4;" x="231.02595" xlink:href="#m8347c48e02" y="252.322234"/>
     <use style="fill:#ff69b4;stroke:#ff69b4;" x="241.431545" xlink:href="#m8347c48e02" y="252.423741"/>
     <use style="fill:#ff69b4;stroke:#ff69b4;" x="251.837139" xlink:href="#m8347c48e02" y="252.31174"/>
     <use style="fill:#ff69b4;stroke:#ff69b4;" x="262.242733" xlink:href="#m8347c48e02" y="252.0862"/>
     <use style="fill:#ff69b4;stroke:#ff69b4;" x="272.648328" xlink:href="#m8347c48e02" y="250.792721"/>
     <use style="fill:#ff69b4;stroke:#ff69b4;" x="283.053922" xlink:href="#m8347c48e02" y="250.938423"/>
     <use style="fill:#ff69b4;stroke:#ff69b4;" x="293.459517" xlink:href="#m8347c48e02" y="250.316549"/>
     <use style="fill:#ff69b4;stroke:#ff69b4;" x="303.865111" xlink:href="#m8347c48e02" y="251.573563"/>
     <use style="fill:#ff69b4;stroke:#ff69b4;" x="314.270705" xlink:href="#m8347c48e02" y="252.164162"/>
     <use style="fill:#ff69b4;stroke:#ff69b4;" x="324.6763" xlink:href="#m8347c48e02" y="252.292387"/>
     <use style="fill:#ff69b4;stroke:#ff69b4;" x="335.081894" xlink:href="#m8347c48e02" y="252.028396"/>
     <use style="fill:#ff69b4;stroke:#ff69b4;" x="345.487489" xlink:href="#m8347c48e02" y="252.578098"/>
     <use style="fill:#ff69b4;stroke:#ff69b4;" x="355.893083" xlink:href="#m8347c48e02" y="252.484419"/>
     <use style="fill:#ff69b4;stroke:#ff69b4;" x="366.298677" xlink:href="#m8347c48e02" y="249.87976"/>
     <use style="fill:#ff69b4;stroke:#ff69b4;" x="376.704272" xlink:href="#m8347c48e02" y="251.13918"/>
     <use style="fill:#ff69b4;stroke:#ff69b4;" x="387.109866" xlink:href="#m8347c48e02" y="249.249883"/>
     <use style="fill:#ff69b4;stroke:#ff69b4;" x="397.515461" xlink:href="#m8347c48e02" y="251.640371"/>
     <use style="fill:#ff69b4;stroke:#ff69b4;" x="407.921055" xlink:href="#m8347c48e02" y="251.767016"/>
     <use style="fill:#ff69b4;stroke:#ff69b4;" x="418.326649" xlink:href="#m8347c48e02" y="251.396518"/>
     <use style="fill:#ff69b4;stroke:#ff69b4;" x="428.732244" xlink:href="#m8347c48e02" y="250.385967"/>
     <use style="fill:#ff69b4;stroke:#ff69b4;" x="439.137838" xlink:href="#m8347c48e02" y="250.834699"/>
     <use style="fill:#ff69b4;stroke:#ff69b4;" x="449.543433" xlink:href="#m8347c48e02" y="248.654677"/>
     <use style="fill:#ff69b4;stroke:#ff69b4;" x="459.949027" xlink:href="#m8347c48e02" y="250.583386"/>
     <use style="fill:#ff69b4;stroke:#ff69b4;" x="470.354622" xlink:href="#m8347c48e02" y="251.853229"/>
     <use style="fill:#ff69b4;stroke:#ff69b4;" x="480.760216" xlink:href="#m8347c48e02" y="252.027472"/>
    </g>
   </g>
   <g id="patch_8">
    <path d="M 54.651125 271.8 
L 54.651125 181.2 
" style="fill:none;stroke:#000000;stroke-linecap:square;stroke-linejoin:miter;stroke-width:0.8;"/>
   </g>
   <g id="patch_9">
    <path d="M 501.051125 271.8 
L 501.051125 181.2 
" style="fill:none;stroke:#000000;stroke-linecap:square;stroke-linejoin:miter;stroke-width:0.8;"/>
   </g>
   <g id="patch_10">
    <path d="M 54.651125 271.8 
L 501.051125 271.8 
" style="fill:none;stroke:#000000;stroke-linecap:square;stroke-linejoin:miter;stroke-width:0.8;"/>
   </g>
   <g id="patch_11">
    <path d="M 54.651125 181.2 
L 501.051125 181.2 
" style="fill:none;stroke:#000000;stroke-linecap:square;stroke-linejoin:miter;stroke-width:0.8;"/>
   </g>
  </g>
 </g>
 <defs>
  <clipPath id="pfee8d4db0d">
   <rect height="181.2" width="446.4" x="54.651125" y="0"/>
  </clipPath>
  <clipPath id="p51438f4ff7">
   <rect height="90.6" width="446.4" x="54.651125" y="181.2"/>
  </clipPath>
 </defs>
</svg>
