<?xml version="1.0" encoding="utf-8" standalone="no"?>
<!DOCTYPE svg PUBLIC "-//W3C//DTD SVG 1.1//EN"
  "http://www.w3.org/Graphics/SVG/1.1/DTD/svg11.dtd">
<!-- Created with matplotlib (https://matplotlib.org/) -->
<svg height="412.811875pt" version="1.1" viewBox="0 0 556.62625 412.811875" width="556.62625pt" xmlns="http://www.w3.org/2000/svg" xmlns:xlink="http://www.w3.org/1999/xlink">
 <metadata>
  <rdf:RDF xmlns:cc="http://creativecommons.org/ns#" xmlns:dc="http://purl.org/dc/elements/1.1/" xmlns:rdf="http://www.w3.org/1999/02/22-rdf-syntax-ns#">
   <cc:Work>
    <dc:type rdf:resource="http://purl.org/dc/dcmitype/StillImage"/>
    <dc:date>2020-12-28T09:57:40.040060</dc:date>
    <dc:format>image/svg+xml</dc:format>
    <dc:creator>
     <cc:Agent>
      <dc:title>Matplotlib v3.3.1, https://matplotlib.org/</dc:title>
     </cc:Agent>
    </dc:creator>
   </cc:Work>
  </rdf:RDF>
 </metadata>
 <defs>
  <style type="text/css">*{stroke-linecap:butt;stroke-linejoin:round;}</style>
 </defs>
 <g id="figure_1">
  <g id="patch_1">
   <path d="M 0 412.811875 
L 556.62625 412.811875 
L 556.62625 0 
L 0 0 
z
" style="fill:none;"/>
  </g>
  <g id="axes_1">
   <g id="patch_2">
    <path d="M 54.42625 190.26 
L 556.62625 190.26 
L 556.62625 0 
L 54.42625 0 
z
" style="fill:#ffffff;"/>
   </g>
   <g id="matplotlib.axis_1">
    <g id="xtick_1">
     <g id="line2d_1">
      <defs>
       <path d="M 0 0 
L 0 3.5 
" id="mc5d227857c" style="stroke:#000000;stroke-width:0.8;"/>
      </defs>
      <g>
       <use style="stroke:#000000;stroke-width:0.8;" x="65.547229" xlink:href="#mc5d227857c" y="190.26"/>
      </g>
     </g>
    </g>
    <g id="xtick_2">
     <g id="line2d_2">
      <g>
       <use style="stroke:#000000;stroke-width:0.8;" x="124.078698" xlink:href="#mc5d227857c" y="190.26"/>
      </g>
     </g>
    </g>
    <g id="xtick_3">
     <g id="line2d_3">
      <g>
       <use style="stroke:#000000;stroke-width:0.8;" x="182.610166" xlink:href="#mc5d227857c" y="190.26"/>
      </g>
     </g>
    </g>
    <g id="xtick_4">
     <g id="line2d_4">
      <g>
       <use style="stroke:#000000;stroke-width:0.8;" x="241.141635" xlink:href="#mc5d227857c" y="190.26"/>
      </g>
     </g>
    </g>
    <g id="xtick_5">
     <g id="line2d_5">
      <g>
       <use style="stroke:#000000;stroke-width:0.8;" x="299.673103" xlink:href="#mc5d227857c" y="190.26"/>
      </g>
     </g>
    </g>
    <g id="xtick_6">
     <g id="line2d_6">
      <g>
       <use style="stroke:#000000;stroke-width:0.8;" x="358.204572" xlink:href="#mc5d227857c" y="190.26"/>
      </g>
     </g>
    </g>
    <g id="xtick_7">
     <g id="line2d_7">
      <g>
       <use style="stroke:#000000;stroke-width:0.8;" x="416.73604" xlink:href="#mc5d227857c" y="190.26"/>
      </g>
     </g>
    </g>
    <g id="xtick_8">
     <g id="line2d_8">
      <g>
       <use style="stroke:#000000;stroke-width:0.8;" x="475.267509" xlink:href="#mc5d227857c" y="190.26"/>
      </g>
     </g>
    </g>
    <g id="xtick_9">
     <g id="line2d_9">
      <g>
       <use style="stroke:#000000;stroke-width:0.8;" x="533.798977" xlink:href="#mc5d227857c" y="190.26"/>
      </g>
     </g>
    </g>
    <g id="text_1">
     <!-- # of Stacked Slices -->
     <g transform="translate(247.84 203.378125)scale(0.12 -0.12)">
      <defs>
       <path d="M 51.125 44 
L 36.921875 44 
L 32.8125 27.6875 
L 47.125 27.6875 
z
M 43.796875 71.78125 
L 38.71875 51.515625 
L 52.984375 51.515625 
L 58.109375 71.78125 
L 65.921875 71.78125 
L 60.890625 51.515625 
L 76.125 51.515625 
L 76.125 44 
L 58.984375 44 
L 54.984375 27.6875 
L 70.515625 27.6875 
L 70.515625 20.21875 
L 53.078125 20.21875 
L 48 0 
L 40.1875 0 
L 45.21875 20.21875 
L 30.90625 20.21875 
L 25.875 0 
L 18.015625 0 
L 23.09375 20.21875 
L 7.71875 20.21875 
L 7.71875 27.6875 
L 24.90625 27.6875 
L 29 44 
L 13.28125 44 
L 13.28125 51.515625 
L 30.90625 51.515625 
L 35.890625 71.78125 
z
" id="DejaVuSans-35"/>
       <path id="DejaVuSans-32"/>
       <path d="M 30.609375 48.390625 
Q 23.390625 48.390625 19.1875 42.75 
Q 14.984375 37.109375 14.984375 27.296875 
Q 14.984375 17.484375 19.15625 11.84375 
Q 23.34375 6.203125 30.609375 6.203125 
Q 37.796875 6.203125 41.984375 11.859375 
Q 46.1875 17.53125 46.1875 27.296875 
Q 46.1875 37.015625 41.984375 42.703125 
Q 37.796875 48.390625 30.609375 48.390625 
z
M 30.609375 56 
Q 42.328125 56 49.015625 48.375 
Q 55.71875 40.765625 55.71875 27.296875 
Q 55.71875 13.875 49.015625 6.21875 
Q 42.328125 -1.421875 30.609375 -1.421875 
Q 18.84375 -1.421875 12.171875 6.21875 
Q 5.515625 13.875 5.515625 27.296875 
Q 5.515625 40.765625 12.171875 48.375 
Q 18.84375 56 30.609375 56 
z
" id="DejaVuSans-111"/>
       <path d="M 37.109375 75.984375 
L 37.109375 68.5 
L 28.515625 68.5 
Q 23.6875 68.5 21.796875 66.546875 
Q 19.921875 64.59375 19.921875 59.515625 
L 19.921875 54.6875 
L 34.71875 54.6875 
L 34.71875 47.703125 
L 19.921875 47.703125 
L 19.921875 0 
L 10.890625 0 
L 10.890625 47.703125 
L 2.296875 47.703125 
L 2.296875 54.6875 
L 10.890625 54.6875 
L 10.890625 58.5 
Q 10.890625 67.625 15.140625 71.796875 
Q 19.390625 75.984375 28.609375 75.984375 
z
" id="DejaVuSans-102"/>
       <path d="M 53.515625 70.515625 
L 53.515625 60.890625 
Q 47.90625 63.578125 42.921875 64.890625 
Q 37.9375 66.21875 33.296875 66.21875 
Q 25.25 66.21875 20.875 63.09375 
Q 16.5 59.96875 16.5 54.203125 
Q 16.5 49.359375 19.40625 46.890625 
Q 22.3125 44.4375 30.421875 42.921875 
L 36.375 41.703125 
Q 47.40625 39.59375 52.65625 34.296875 
Q 57.90625 29 57.90625 20.125 
Q 57.90625 9.515625 50.796875 4.046875 
Q 43.703125 -1.421875 29.984375 -1.421875 
Q 24.8125 -1.421875 18.96875 -0.25 
Q 13.140625 0.921875 6.890625 3.21875 
L 6.890625 13.375 
Q 12.890625 10.015625 18.65625 8.296875 
Q 24.421875 6.59375 29.984375 6.59375 
Q 38.421875 6.59375 43.015625 9.90625 
Q 47.609375 13.234375 47.609375 19.390625 
Q 47.609375 24.75 44.3125 27.78125 
Q 41.015625 30.8125 33.5 32.328125 
L 27.484375 33.5 
Q 16.453125 35.6875 11.515625 40.375 
Q 6.59375 45.0625 6.59375 53.421875 
Q 6.59375 63.09375 13.40625 68.65625 
Q 20.21875 74.21875 32.171875 74.21875 
Q 37.3125 74.21875 42.625 73.28125 
Q 47.953125 72.359375 53.515625 70.515625 
z
" id="DejaVuSans-83"/>
       <path d="M 18.3125 70.21875 
L 18.3125 54.6875 
L 36.8125 54.6875 
L 36.8125 47.703125 
L 18.3125 47.703125 
L 18.3125 18.015625 
Q 18.3125 11.328125 20.140625 9.421875 
Q 21.96875 7.515625 27.59375 7.515625 
L 36.8125 7.515625 
L 36.8125 0 
L 27.59375 0 
Q 17.1875 0 13.234375 3.875 
Q 9.28125 7.765625 9.28125 18.015625 
L 9.28125 47.703125 
L 2.6875 47.703125 
L 2.6875 54.6875 
L 9.28125 54.6875 
L 9.28125 70.21875 
z
" id="DejaVuSans-116"/>
       <path d="M 34.28125 27.484375 
Q 23.390625 27.484375 19.1875 25 
Q 14.984375 22.515625 14.984375 16.5 
Q 14.984375 11.71875 18.140625 8.90625 
Q 21.296875 6.109375 26.703125 6.109375 
Q 34.1875 6.109375 38.703125 11.40625 
Q 43.21875 16.703125 43.21875 25.484375 
L 43.21875 27.484375 
z
M 52.203125 31.203125 
L 52.203125 0 
L 43.21875 0 
L 43.21875 8.296875 
Q 40.140625 3.328125 35.546875 0.953125 
Q 30.953125 -1.421875 24.3125 -1.421875 
Q 15.921875 -1.421875 10.953125 3.296875 
Q 6 8.015625 6 15.921875 
Q 6 25.140625 12.171875 29.828125 
Q 18.359375 34.515625 30.609375 34.515625 
L 43.21875 34.515625 
L 43.21875 35.40625 
Q 43.21875 41.609375 39.140625 45 
Q 35.0625 48.390625 27.6875 48.390625 
Q 23 48.390625 18.546875 47.265625 
Q 14.109375 46.140625 10.015625 43.890625 
L 10.015625 52.203125 
Q 14.9375 54.109375 19.578125 55.046875 
Q 24.21875 56 28.609375 56 
Q 40.484375 56 46.34375 49.84375 
Q 52.203125 43.703125 52.203125 31.203125 
z
" id="DejaVuSans-97"/>
       <path d="M 48.78125 52.59375 
L 48.78125 44.1875 
Q 44.96875 46.296875 41.140625 47.34375 
Q 37.3125 48.390625 33.40625 48.390625 
Q 24.65625 48.390625 19.8125 42.84375 
Q 14.984375 37.3125 14.984375 27.296875 
Q 14.984375 17.28125 19.8125 11.734375 
Q 24.65625 6.203125 33.40625 6.203125 
Q 37.3125 6.203125 41.140625 7.25 
Q 44.96875 8.296875 48.78125 10.40625 
L 48.78125 2.09375 
Q 45.015625 0.34375 40.984375 -0.53125 
Q 36.96875 -1.421875 32.421875 -1.421875 
Q 20.0625 -1.421875 12.78125 6.34375 
Q 5.515625 14.109375 5.515625 27.296875 
Q 5.515625 40.671875 12.859375 48.328125 
Q 20.21875 56 33.015625 56 
Q 37.15625 56 41.109375 55.140625 
Q 45.0625 54.296875 48.78125 52.59375 
z
" id="DejaVuSans-99"/>
       <path d="M 9.078125 75.984375 
L 18.109375 75.984375 
L 18.109375 31.109375 
L 44.921875 54.6875 
L 56.390625 54.6875 
L 27.390625 29.109375 
L 57.625 0 
L 45.90625 0 
L 18.109375 26.703125 
L 18.109375 0 
L 9.078125 0 
z
" id="DejaVuSans-107"/>
       <path d="M 56.203125 29.59375 
L 56.203125 25.203125 
L 14.890625 25.203125 
Q 15.484375 15.921875 20.484375 11.0625 
Q 25.484375 6.203125 34.421875 6.203125 
Q 39.59375 6.203125 44.453125 7.46875 
Q 49.3125 8.734375 54.109375 11.28125 
L 54.109375 2.78125 
Q 49.265625 0.734375 44.1875 -0.34375 
Q 39.109375 -1.421875 33.890625 -1.421875 
Q 20.796875 -1.421875 13.15625 6.1875 
Q 5.515625 13.8125 5.515625 26.8125 
Q 5.515625 40.234375 12.765625 48.109375 
Q 20.015625 56 32.328125 56 
Q 43.359375 56 49.78125 48.890625 
Q 56.203125 41.796875 56.203125 29.59375 
z
M 47.21875 32.234375 
Q 47.125 39.59375 43.09375 43.984375 
Q 39.0625 48.390625 32.421875 48.390625 
Q 24.90625 48.390625 20.390625 44.140625 
Q 15.875 39.890625 15.1875 32.171875 
z
" id="DejaVuSans-101"/>
       <path d="M 45.40625 46.390625 
L 45.40625 75.984375 
L 54.390625 75.984375 
L 54.390625 0 
L 45.40625 0 
L 45.40625 8.203125 
Q 42.578125 3.328125 38.25 0.953125 
Q 33.9375 -1.421875 27.875 -1.421875 
Q 17.96875 -1.421875 11.734375 6.484375 
Q 5.515625 14.40625 5.515625 27.296875 
Q 5.515625 40.1875 11.734375 48.09375 
Q 17.96875 56 27.875 56 
Q 33.9375 56 38.25 53.625 
Q 42.578125 51.265625 45.40625 46.390625 
z
M 14.796875 27.296875 
Q 14.796875 17.390625 18.875 11.75 
Q 22.953125 6.109375 30.078125 6.109375 
Q 37.203125 6.109375 41.296875 11.75 
Q 45.40625 17.390625 45.40625 27.296875 
Q 45.40625 37.203125 41.296875 42.84375 
Q 37.203125 48.484375 30.078125 48.484375 
Q 22.953125 48.484375 18.875 42.84375 
Q 14.796875 37.203125 14.796875 27.296875 
z
" id="DejaVuSans-100"/>
       <path d="M 9.421875 75.984375 
L 18.40625 75.984375 
L 18.40625 0 
L 9.421875 0 
z
" id="DejaVuSans-108"/>
       <path d="M 9.421875 54.6875 
L 18.40625 54.6875 
L 18.40625 0 
L 9.421875 0 
z
M 9.421875 75.984375 
L 18.40625 75.984375 
L 18.40625 64.59375 
L 9.421875 64.59375 
z
" id="DejaVuSans-105"/>
       <path d="M 44.28125 53.078125 
L 44.28125 44.578125 
Q 40.484375 46.53125 36.375 47.5 
Q 32.28125 48.484375 27.875 48.484375 
Q 21.1875 48.484375 17.84375 46.4375 
Q 14.5 44.390625 14.5 40.28125 
Q 14.5 37.15625 16.890625 35.375 
Q 19.28125 33.59375 26.515625 31.984375 
L 29.59375 31.296875 
Q 39.15625 29.25 43.1875 25.515625 
Q 47.21875 21.78125 47.21875 15.09375 
Q 47.21875 7.46875 41.1875 3.015625 
Q 35.15625 -1.421875 24.609375 -1.421875 
Q 20.21875 -1.421875 15.453125 -0.5625 
Q 10.6875 0.296875 5.421875 2 
L 5.421875 11.28125 
Q 10.40625 8.6875 15.234375 7.390625 
Q 20.0625 6.109375 24.8125 6.109375 
Q 31.15625 6.109375 34.5625 8.28125 
Q 37.984375 10.453125 37.984375 14.40625 
Q 37.984375 18.0625 35.515625 20.015625 
Q 33.0625 21.96875 24.703125 23.78125 
L 21.578125 24.515625 
Q 13.234375 26.265625 9.515625 29.90625 
Q 5.8125 33.546875 5.8125 39.890625 
Q 5.8125 47.609375 11.28125 51.796875 
Q 16.75 56 26.8125 56 
Q 31.78125 56 36.171875 55.265625 
Q 40.578125 54.546875 44.28125 53.078125 
z
" id="DejaVuSans-115"/>
      </defs>
      <use xlink:href="#DejaVuSans-35"/>
      <use x="83.789062" xlink:href="#DejaVuSans-32"/>
      <use x="115.576172" xlink:href="#DejaVuSans-111"/>
      <use x="176.757812" xlink:href="#DejaVuSans-102"/>
      <use x="211.962891" xlink:href="#DejaVuSans-32"/>
      <use x="243.75" xlink:href="#DejaVuSans-83"/>
      <use x="307.226562" xlink:href="#DejaVuSans-116"/>
      <use x="346.435547" xlink:href="#DejaVuSans-97"/>
      <use x="407.714844" xlink:href="#DejaVuSans-99"/>
      <use x="462.695312" xlink:href="#DejaVuSans-107"/>
      <use x="516.980469" xlink:href="#DejaVuSans-101"/>
      <use x="578.503906" xlink:href="#DejaVuSans-100"/>
      <use x="641.980469" xlink:href="#DejaVuSans-32"/>
      <use x="673.767578" xlink:href="#DejaVuSans-83"/>
      <use x="737.244141" xlink:href="#DejaVuSans-108"/>
      <use x="765.027344" xlink:href="#DejaVuSans-105"/>
      <use x="792.810547" xlink:href="#DejaVuSans-99"/>
      <use x="847.791016" xlink:href="#DejaVuSans-101"/>
      <use x="909.314453" xlink:href="#DejaVuSans-115"/>
     </g>
    </g>
   </g>
   <g id="matplotlib.axis_2">
    <g id="ytick_1">
     <g id="line2d_10">
      <defs>
       <path d="M 0 0 
L -3.5 0 
" id="m3cbf7adfbd" style="stroke:#000000;stroke-width:0.8;"/>
      </defs>
      <g>
       <use style="stroke:#000000;stroke-width:0.8;" x="54.42625" xlink:href="#m3cbf7adfbd" y="170.088116"/>
      </g>
     </g>
     <g id="text_2">
      <!-- 10000 -->
      <g transform="translate(15.61375 173.887334)scale(0.1 -0.1)">
       <defs>
        <path d="M 12.40625 8.296875 
L 28.515625 8.296875 
L 28.515625 63.921875 
L 10.984375 60.40625 
L 10.984375 69.390625 
L 28.421875 72.90625 
L 38.28125 72.90625 
L 38.28125 8.296875 
L 54.390625 8.296875 
L 54.390625 0 
L 12.40625 0 
z
" id="DejaVuSans-49"/>
        <path d="M 31.78125 66.40625 
Q 24.171875 66.40625 20.328125 58.90625 
Q 16.5 51.421875 16.5 36.375 
Q 16.5 21.390625 20.328125 13.890625 
Q 24.171875 6.390625 31.78125 6.390625 
Q 39.453125 6.390625 43.28125 13.890625 
Q 47.125 21.390625 47.125 36.375 
Q 47.125 51.421875 43.28125 58.90625 
Q 39.453125 66.40625 31.78125 66.40625 
z
M 31.78125 74.21875 
Q 44.046875 74.21875 50.515625 64.515625 
Q 56.984375 54.828125 56.984375 36.375 
Q 56.984375 17.96875 50.515625 8.265625 
Q 44.046875 -1.421875 31.78125 -1.421875 
Q 19.53125 -1.421875 13.0625 8.265625 
Q 6.59375 17.96875 6.59375 36.375 
Q 6.59375 54.828125 13.0625 64.515625 
Q 19.53125 74.21875 31.78125 74.21875 
z
" id="DejaVuSans-48"/>
       </defs>
       <use xlink:href="#DejaVuSans-49"/>
       <use x="63.623047" xlink:href="#DejaVuSans-48"/>
       <use x="127.246094" xlink:href="#DejaVuSans-48"/>
       <use x="190.869141" xlink:href="#DejaVuSans-48"/>
       <use x="254.492188" xlink:href="#DejaVuSans-48"/>
      </g>
     </g>
    </g>
    <g id="ytick_2">
     <g id="line2d_11">
      <g>
       <use style="stroke:#000000;stroke-width:0.8;" x="54.42625" xlink:href="#m3cbf7adfbd" y="137.579132"/>
      </g>
     </g>
     <g id="text_3">
      <!-- 20000 -->
      <g transform="translate(15.61375 141.378351)scale(0.1 -0.1)">
       <defs>
        <path d="M 19.1875 8.296875 
L 53.609375 8.296875 
L 53.609375 0 
L 7.328125 0 
L 7.328125 8.296875 
Q 12.9375 14.109375 22.625 23.890625 
Q 32.328125 33.6875 34.8125 36.53125 
Q 39.546875 41.84375 41.421875 45.53125 
Q 43.3125 49.21875 43.3125 52.78125 
Q 43.3125 58.59375 39.234375 62.25 
Q 35.15625 65.921875 28.609375 65.921875 
Q 23.96875 65.921875 18.8125 64.3125 
Q 13.671875 62.703125 7.8125 59.421875 
L 7.8125 69.390625 
Q 13.765625 71.78125 18.9375 73 
Q 24.125 74.21875 28.421875 74.21875 
Q 39.75 74.21875 46.484375 68.546875 
Q 53.21875 62.890625 53.21875 53.421875 
Q 53.21875 48.921875 51.53125 44.890625 
Q 49.859375 40.875 45.40625 35.40625 
Q 44.1875 33.984375 37.640625 27.21875 
Q 31.109375 20.453125 19.1875 8.296875 
z
" id="DejaVuSans-50"/>
       </defs>
       <use xlink:href="#DejaVuSans-50"/>
       <use x="63.623047" xlink:href="#DejaVuSans-48"/>
       <use x="127.246094" xlink:href="#DejaVuSans-48"/>
       <use x="190.869141" xlink:href="#DejaVuSans-48"/>
       <use x="254.492188" xlink:href="#DejaVuSans-48"/>
      </g>
     </g>
    </g>
    <g id="ytick_3">
     <g id="line2d_12">
      <g>
       <use style="stroke:#000000;stroke-width:0.8;" x="54.42625" xlink:href="#m3cbf7adfbd" y="105.070149"/>
      </g>
     </g>
     <g id="text_4">
      <!-- 30000 -->
      <g transform="translate(15.61375 108.869368)scale(0.1 -0.1)">
       <defs>
        <path d="M 40.578125 39.3125 
Q 47.65625 37.796875 51.625 33 
Q 55.609375 28.21875 55.609375 21.1875 
Q 55.609375 10.40625 48.1875 4.484375 
Q 40.765625 -1.421875 27.09375 -1.421875 
Q 22.515625 -1.421875 17.65625 -0.515625 
Q 12.796875 0.390625 7.625 2.203125 
L 7.625 11.71875 
Q 11.71875 9.328125 16.59375 8.109375 
Q 21.484375 6.890625 26.8125 6.890625 
Q 36.078125 6.890625 40.9375 10.546875 
Q 45.796875 14.203125 45.796875 21.1875 
Q 45.796875 27.640625 41.28125 31.265625 
Q 36.765625 34.90625 28.71875 34.90625 
L 20.21875 34.90625 
L 20.21875 43.015625 
L 29.109375 43.015625 
Q 36.375 43.015625 40.234375 45.921875 
Q 44.09375 48.828125 44.09375 54.296875 
Q 44.09375 59.90625 40.109375 62.90625 
Q 36.140625 65.921875 28.71875 65.921875 
Q 24.65625 65.921875 20.015625 65.03125 
Q 15.375 64.15625 9.8125 62.3125 
L 9.8125 71.09375 
Q 15.4375 72.65625 20.34375 73.4375 
Q 25.25 74.21875 29.59375 74.21875 
Q 40.828125 74.21875 47.359375 69.109375 
Q 53.90625 64.015625 53.90625 55.328125 
Q 53.90625 49.265625 50.4375 45.09375 
Q 46.96875 40.921875 40.578125 39.3125 
z
" id="DejaVuSans-51"/>
       </defs>
       <use xlink:href="#DejaVuSans-51"/>
       <use x="63.623047" xlink:href="#DejaVuSans-48"/>
       <use x="127.246094" xlink:href="#DejaVuSans-48"/>
       <use x="190.869141" xlink:href="#DejaVuSans-48"/>
       <use x="254.492188" xlink:href="#DejaVuSans-48"/>
      </g>
     </g>
    </g>
    <g id="ytick_4">
     <g id="line2d_13">
      <g>
       <use style="stroke:#000000;stroke-width:0.8;" x="54.42625" xlink:href="#m3cbf7adfbd" y="72.561165"/>
      </g>
     </g>
     <g id="text_5">
      <!-- 40000 -->
      <g transform="translate(15.61375 76.360384)scale(0.1 -0.1)">
       <defs>
        <path d="M 37.796875 64.3125 
L 12.890625 25.390625 
L 37.796875 25.390625 
z
M 35.203125 72.90625 
L 47.609375 72.90625 
L 47.609375 25.390625 
L 58.015625 25.390625 
L 58.015625 17.1875 
L 47.609375 17.1875 
L 47.609375 0 
L 37.796875 0 
L 37.796875 17.1875 
L 4.890625 17.1875 
L 4.890625 26.703125 
z
" id="DejaVuSans-52"/>
       </defs>
       <use xlink:href="#DejaVuSans-52"/>
       <use x="63.623047" xlink:href="#DejaVuSans-48"/>
       <use x="127.246094" xlink:href="#DejaVuSans-48"/>
       <use x="190.869141" xlink:href="#DejaVuSans-48"/>
       <use x="254.492188" xlink:href="#DejaVuSans-48"/>
      </g>
     </g>
    </g>
    <g id="ytick_5">
     <g id="line2d_14">
      <g>
       <use style="stroke:#000000;stroke-width:0.8;" x="54.42625" xlink:href="#m3cbf7adfbd" y="40.052182"/>
      </g>
     </g>
     <g id="text_6">
      <!-- 50000 -->
      <g transform="translate(15.61375 43.851401)scale(0.1 -0.1)">
       <defs>
        <path d="M 10.796875 72.90625 
L 49.515625 72.90625 
L 49.515625 64.59375 
L 19.828125 64.59375 
L 19.828125 46.734375 
Q 21.96875 47.46875 24.109375 47.828125 
Q 26.265625 48.1875 28.421875 48.1875 
Q 40.625 48.1875 47.75 41.5 
Q 54.890625 34.8125 54.890625 23.390625 
Q 54.890625 11.625 47.5625 5.09375 
Q 40.234375 -1.421875 26.90625 -1.421875 
Q 22.3125 -1.421875 17.546875 -0.640625 
Q 12.796875 0.140625 7.71875 1.703125 
L 7.71875 11.625 
Q 12.109375 9.234375 16.796875 8.0625 
Q 21.484375 6.890625 26.703125 6.890625 
Q 35.15625 6.890625 40.078125 11.328125 
Q 45.015625 15.765625 45.015625 23.390625 
Q 45.015625 31 40.078125 35.4375 
Q 35.15625 39.890625 26.703125 39.890625 
Q 22.75 39.890625 18.8125 39.015625 
Q 14.890625 38.140625 10.796875 36.28125 
z
" id="DejaVuSans-53"/>
       </defs>
       <use xlink:href="#DejaVuSans-53"/>
       <use x="63.623047" xlink:href="#DejaVuSans-48"/>
       <use x="127.246094" xlink:href="#DejaVuSans-48"/>
       <use x="190.869141" xlink:href="#DejaVuSans-48"/>
       <use x="254.492188" xlink:href="#DejaVuSans-48"/>
      </g>
     </g>
    </g>
    <g id="ytick_6">
     <g id="line2d_15">
      <g>
       <use style="stroke:#000000;stroke-width:0.8;" x="54.42625" xlink:href="#m3cbf7adfbd" y="7.543199"/>
      </g>
     </g>
     <g id="text_7">
      <!-- 60000 -->
      <g transform="translate(15.61375 11.342417)scale(0.1 -0.1)">
       <defs>
        <path d="M 33.015625 40.375 
Q 26.375 40.375 22.484375 35.828125 
Q 18.609375 31.296875 18.609375 23.390625 
Q 18.609375 15.53125 22.484375 10.953125 
Q 26.375 6.390625 33.015625 6.390625 
Q 39.65625 6.390625 43.53125 10.953125 
Q 47.40625 15.53125 47.40625 23.390625 
Q 47.40625 31.296875 43.53125 35.828125 
Q 39.65625 40.375 33.015625 40.375 
z
M 52.59375 71.296875 
L 52.59375 62.3125 
Q 48.875 64.0625 45.09375 64.984375 
Q 41.3125 65.921875 37.59375 65.921875 
Q 27.828125 65.921875 22.671875 59.328125 
Q 17.53125 52.734375 16.796875 39.40625 
Q 19.671875 43.65625 24.015625 45.921875 
Q 28.375 48.1875 33.59375 48.1875 
Q 44.578125 48.1875 50.953125 41.515625 
Q 57.328125 34.859375 57.328125 23.390625 
Q 57.328125 12.15625 50.6875 5.359375 
Q 44.046875 -1.421875 33.015625 -1.421875 
Q 20.359375 -1.421875 13.671875 8.265625 
Q 6.984375 17.96875 6.984375 36.375 
Q 6.984375 53.65625 15.1875 63.9375 
Q 23.390625 74.21875 37.203125 74.21875 
Q 40.921875 74.21875 44.703125 73.484375 
Q 48.484375 72.75 52.59375 71.296875 
z
" id="DejaVuSans-54"/>
       </defs>
       <use xlink:href="#DejaVuSans-54"/>
       <use x="63.623047" xlink:href="#DejaVuSans-48"/>
       <use x="127.246094" xlink:href="#DejaVuSans-48"/>
       <use x="190.869141" xlink:href="#DejaVuSans-48"/>
       <use x="254.492188" xlink:href="#DejaVuSans-48"/>
      </g>
     </g>
    </g>
    <g id="text_8">
     <!-- Local Error Norm -->
     <g transform="translate(9.118125 145.484062)rotate(-90)scale(0.12 -0.12)">
      <defs>
       <path d="M 9.8125 72.90625 
L 19.671875 72.90625 
L 19.671875 8.296875 
L 55.171875 8.296875 
L 55.171875 0 
L 9.8125 0 
z
" id="DejaVuSans-76"/>
       <path d="M 9.8125 72.90625 
L 55.90625 72.90625 
L 55.90625 64.59375 
L 19.671875 64.59375 
L 19.671875 43.015625 
L 54.390625 43.015625 
L 54.390625 34.71875 
L 19.671875 34.71875 
L 19.671875 8.296875 
L 56.78125 8.296875 
L 56.78125 0 
L 9.8125 0 
z
" id="DejaVuSans-69"/>
       <path d="M 41.109375 46.296875 
Q 39.59375 47.171875 37.8125 47.578125 
Q 36.03125 48 33.890625 48 
Q 26.265625 48 22.1875 43.046875 
Q 18.109375 38.09375 18.109375 28.8125 
L 18.109375 0 
L 9.078125 0 
L 9.078125 54.6875 
L 18.109375 54.6875 
L 18.109375 46.1875 
Q 20.953125 51.171875 25.484375 53.578125 
Q 30.03125 56 36.53125 56 
Q 37.453125 56 38.578125 55.875 
Q 39.703125 55.765625 41.0625 55.515625 
z
" id="DejaVuSans-114"/>
       <path d="M 9.8125 72.90625 
L 23.09375 72.90625 
L 55.421875 11.921875 
L 55.421875 72.90625 
L 64.984375 72.90625 
L 64.984375 0 
L 51.703125 0 
L 19.390625 60.984375 
L 19.390625 0 
L 9.8125 0 
z
" id="DejaVuSans-78"/>
       <path d="M 52 44.1875 
Q 55.375 50.25 60.0625 53.125 
Q 64.75 56 71.09375 56 
Q 79.640625 56 84.28125 50.015625 
Q 88.921875 44.046875 88.921875 33.015625 
L 88.921875 0 
L 79.890625 0 
L 79.890625 32.71875 
Q 79.890625 40.578125 77.09375 44.375 
Q 74.3125 48.1875 68.609375 48.1875 
Q 61.625 48.1875 57.5625 43.546875 
Q 53.515625 38.921875 53.515625 30.90625 
L 53.515625 0 
L 44.484375 0 
L 44.484375 32.71875 
Q 44.484375 40.625 41.703125 44.40625 
Q 38.921875 48.1875 33.109375 48.1875 
Q 26.21875 48.1875 22.15625 43.53125 
Q 18.109375 38.875 18.109375 30.90625 
L 18.109375 0 
L 9.078125 0 
L 9.078125 54.6875 
L 18.109375 54.6875 
L 18.109375 46.1875 
Q 21.1875 51.21875 25.484375 53.609375 
Q 29.78125 56 35.6875 56 
Q 41.65625 56 45.828125 52.96875 
Q 50 49.953125 52 44.1875 
z
" id="DejaVuSans-109"/>
      </defs>
      <use xlink:href="#DejaVuSans-76"/>
      <use x="53.962891" xlink:href="#DejaVuSans-111"/>
      <use x="115.144531" xlink:href="#DejaVuSans-99"/>
      <use x="170.125" xlink:href="#DejaVuSans-97"/>
      <use x="231.404297" xlink:href="#DejaVuSans-108"/>
      <use x="259.1875" xlink:href="#DejaVuSans-32"/>
      <use x="290.974609" xlink:href="#DejaVuSans-69"/>
      <use x="354.158203" xlink:href="#DejaVuSans-114"/>
      <use x="393.521484" xlink:href="#DejaVuSans-114"/>
      <use x="432.384766" xlink:href="#DejaVuSans-111"/>
      <use x="493.566406" xlink:href="#DejaVuSans-114"/>
      <use x="534.679688" xlink:href="#DejaVuSans-32"/>
      <use x="566.466797" xlink:href="#DejaVuSans-78"/>
      <use x="641.271484" xlink:href="#DejaVuSans-111"/>
      <use x="702.453125" xlink:href="#DejaVuSans-114"/>
      <use x="741.816406" xlink:href="#DejaVuSans-109"/>
     </g>
    </g>
   </g>
   <g id="line2d_16">
    <path clip-path="url(#p18ee57c55e)" d="M 112.372404 190.26 
L 112.372404 0 
" style="fill:none;stroke:#d3d3d3;stroke-dasharray:7.4,3.2;stroke-dashoffset:0;stroke-width:2;"/>
   </g>
   <g id="line2d_17">
    <path clip-path="url(#p18ee57c55e)" d="M 299.673103 190.26 
L 299.673103 0 
" style="fill:none;stroke:#d3d3d3;stroke-dasharray:7.4,3.2;stroke-dashoffset:0;stroke-width:2;"/>
   </g>
   <g id="line2d_18">
    <path clip-path="url(#p18ee57c55e)" d="M 311.379397 190.26 
L 311.379397 0 
" style="fill:none;stroke:#d3d3d3;stroke-dasharray:7.4,3.2;stroke-dashoffset:0;stroke-width:2;"/>
   </g>
   <g id="line2d_19">
    <path clip-path="url(#p18ee57c55e)" d="M 323.085691 190.26 
L 323.085691 0 
" style="fill:none;stroke:#d3d3d3;stroke-dasharray:7.4,3.2;stroke-dashoffset:0;stroke-width:2;"/>
   </g>
   <g id="line2d_20">
    <path clip-path="url(#p18ee57c55e)" d="M 334.791984 190.26 
L 334.791984 0 
" style="fill:none;stroke:#d3d3d3;stroke-dasharray:7.4,3.2;stroke-dashoffset:0;stroke-width:2;"/>
   </g>
   <g id="line2d_21">
    <path clip-path="url(#p18ee57c55e)" d="M 346.498278 190.26 
L 346.498278 0 
" style="fill:none;stroke:#d3d3d3;stroke-dasharray:7.4,3.2;stroke-dashoffset:0;stroke-width:2;"/>
   </g>
   <g id="line2d_22">
    <path clip-path="url(#p18ee57c55e)" d="M 416.73604 190.26 
L 416.73604 0 
" style="fill:none;stroke:#d3d3d3;stroke-dasharray:7.4,3.2;stroke-dashoffset:0;stroke-width:2;"/>
   </g>
   <g id="line2d_23">
    <path clip-path="url(#p18ee57c55e)" d="M 428.442334 190.26 
L 428.442334 0 
" style="fill:none;stroke:#d3d3d3;stroke-dasharray:7.4,3.2;stroke-dashoffset:0;stroke-width:2;"/>
   </g>
   <g id="line2d_24">
    <path clip-path="url(#p18ee57c55e)" d="M 88.959816 190.26 
L 88.959816 0 
" style="fill:none;stroke:#d3d3d3;stroke-linecap:square;stroke-width:2;"/>
   </g>
   <g id="line2d_25">
    <path clip-path="url(#p18ee57c55e)" d="M 358.204572 190.26 
L 358.204572 0 
" style="fill:none;stroke:#d3d3d3;stroke-linecap:square;stroke-width:2;"/>
   </g>
   <g id="line2d_26">
    <path clip-path="url(#p18ee57c55e)" d="M 522.092684 190.26 
L 522.092684 0 
" style="fill:none;stroke:#d3d3d3;stroke-linecap:square;stroke-width:2;"/>
   </g>
   <g id="line2d_27">
    <path clip-path="url(#p18ee57c55e)" d="M 77.253523 157.548028 
L 88.959816 152.256265 
L 88.959816 165.3041 
L 100.66611 154.487453 
L 112.372404 138.702232 
L 112.372404 143.162386 
L 124.078698 137.88895 
L 135.784991 141.612422 
L 147.491285 143.139974 
L 159.197579 144.952392 
L 170.903872 146.471748 
L 182.610166 148.783395 
L 194.31646 150.45504 
L 206.022753 140.922434 
L 217.729047 140.648274 
L 229.435341 143.658538 
L 241.141635 146.51734 
L 252.847928 146.175972 
L 264.554222 148.965798 
L 276.260516 150.199854 
L 287.966809 134.585289 
L 299.673103 120.639523 
L 299.673103 126.710968 
L 311.379397 122.015593 
L 311.379397 127.027956 
L 323.085691 111.330291 
L 323.085691 118.369977 
L 334.791984 110.062449 
L 334.791984 117.681505 
L 346.498278 113.299571 
L 346.498278 117.76274 
L 358.204572 16.472759 
L 358.204572 174.234449 
L 369.910865 181.611818 
L 381.617159 179.797995 
L 393.323453 176.781782 
L 405.029747 170.543007 
L 416.73604 155.351792 
L 416.73604 159.613519 
L 428.442334 154.029513 
L 428.442334 158.300526 
L 440.148628 155.71935 
L 451.854921 156.714845 
L 463.561215 159.22448 
L 475.267509 162.153943 
L 486.973802 164.83098 
L 498.680096 165.836205 
L 510.38639 166.151583 
L 522.092684 72.828177 
L 522.092684 174.459085 
L 533.798977 168.131024 
" style="fill:none;stroke:#1e90ff;stroke-linecap:square;"/>
    <defs>
     <path d="M -3 0 
L 3 0 
M 0 3 
L 0 -3 
" id="m03ef5a5bf9" style="stroke:#1e90ff;"/>
    </defs>
    <g clip-path="url(#p18ee57c55e)">
     <use style="fill:#1e90ff;stroke:#1e90ff;" x="77.253523" xlink:href="#m03ef5a5bf9" y="157.548028"/>
     <use style="fill:#1e90ff;stroke:#1e90ff;" x="88.959816" xlink:href="#m03ef5a5bf9" y="152.256265"/>
     <use style="fill:#1e90ff;stroke:#1e90ff;" x="88.959816" xlink:href="#m03ef5a5bf9" y="165.3041"/>
     <use style="fill:#1e90ff;stroke:#1e90ff;" x="100.66611" xlink:href="#m03ef5a5bf9" y="154.487453"/>
     <use style="fill:#1e90ff;stroke:#1e90ff;" x="112.372404" xlink:href="#m03ef5a5bf9" y="138.702232"/>
     <use style="fill:#1e90ff;stroke:#1e90ff;" x="112.372404" xlink:href="#m03ef5a5bf9" y="143.162386"/>
     <use style="fill:#1e90ff;stroke:#1e90ff;" x="124.078698" xlink:href="#m03ef5a5bf9" y="137.88895"/>
     <use style="fill:#1e90ff;stroke:#1e90ff;" x="135.784991" xlink:href="#m03ef5a5bf9" y="141.612422"/>
     <use style="fill:#1e90ff;stroke:#1e90ff;" x="147.491285" xlink:href="#m03ef5a5bf9" y="143.139974"/>
     <use style="fill:#1e90ff;stroke:#1e90ff;" x="159.197579" xlink:href="#m03ef5a5bf9" y="144.952392"/>
     <use style="fill:#1e90ff;stroke:#1e90ff;" x="170.903872" xlink:href="#m03ef5a5bf9" y="146.471748"/>
     <use style="fill:#1e90ff;stroke:#1e90ff;" x="182.610166" xlink:href="#m03ef5a5bf9" y="148.783395"/>
     <use style="fill:#1e90ff;stroke:#1e90ff;" x="194.31646" xlink:href="#m03ef5a5bf9" y="150.45504"/>
     <use style="fill:#1e90ff;stroke:#1e90ff;" x="206.022753" xlink:href="#m03ef5a5bf9" y="140.922434"/>
     <use style="fill:#1e90ff;stroke:#1e90ff;" x="217.729047" xlink:href="#m03ef5a5bf9" y="140.648274"/>
     <use style="fill:#1e90ff;stroke:#1e90ff;" x="229.435341" xlink:href="#m03ef5a5bf9" y="143.658538"/>
     <use style="fill:#1e90ff;stroke:#1e90ff;" x="241.141635" xlink:href="#m03ef5a5bf9" y="146.51734"/>
     <use style="fill:#1e90ff;stroke:#1e90ff;" x="252.847928" xlink:href="#m03ef5a5bf9" y="146.175972"/>
     <use style="fill:#1e90ff;stroke:#1e90ff;" x="264.554222" xlink:href="#m03ef5a5bf9" y="148.965798"/>
     <use style="fill:#1e90ff;stroke:#1e90ff;" x="276.260516" xlink:href="#m03ef5a5bf9" y="150.199854"/>
     <use style="fill:#1e90ff;stroke:#1e90ff;" x="287.966809" xlink:href="#m03ef5a5bf9" y="134.585289"/>
     <use style="fill:#1e90ff;stroke:#1e90ff;" x="299.673103" xlink:href="#m03ef5a5bf9" y="120.639523"/>
     <use style="fill:#1e90ff;stroke:#1e90ff;" x="299.673103" xlink:href="#m03ef5a5bf9" y="126.710968"/>
     <use style="fill:#1e90ff;stroke:#1e90ff;" x="311.379397" xlink:href="#m03ef5a5bf9" y="122.015593"/>
     <use style="fill:#1e90ff;stroke:#1e90ff;" x="311.379397" xlink:href="#m03ef5a5bf9" y="127.027956"/>
     <use style="fill:#1e90ff;stroke:#1e90ff;" x="323.085691" xlink:href="#m03ef5a5bf9" y="111.330291"/>
     <use style="fill:#1e90ff;stroke:#1e90ff;" x="323.085691" xlink:href="#m03ef5a5bf9" y="118.369977"/>
     <use style="fill:#1e90ff;stroke:#1e90ff;" x="334.791984" xlink:href="#m03ef5a5bf9" y="110.062449"/>
     <use style="fill:#1e90ff;stroke:#1e90ff;" x="334.791984" xlink:href="#m03ef5a5bf9" y="117.681505"/>
     <use style="fill:#1e90ff;stroke:#1e90ff;" x="346.498278" xlink:href="#m03ef5a5bf9" y="113.299571"/>
     <use style="fill:#1e90ff;stroke:#1e90ff;" x="346.498278" xlink:href="#m03ef5a5bf9" y="117.76274"/>
     <use style="fill:#1e90ff;stroke:#1e90ff;" x="358.204572" xlink:href="#m03ef5a5bf9" y="16.472759"/>
     <use style="fill:#1e90ff;stroke:#1e90ff;" x="358.204572" xlink:href="#m03ef5a5bf9" y="174.234449"/>
     <use style="fill:#1e90ff;stroke:#1e90ff;" x="369.910865" xlink:href="#m03ef5a5bf9" y="181.611818"/>
     <use style="fill:#1e90ff;stroke:#1e90ff;" x="381.617159" xlink:href="#m03ef5a5bf9" y="179.797995"/>
     <use style="fill:#1e90ff;stroke:#1e90ff;" x="393.323453" xlink:href="#m03ef5a5bf9" y="176.781782"/>
     <use style="fill:#1e90ff;stroke:#1e90ff;" x="405.029747" xlink:href="#m03ef5a5bf9" y="170.543007"/>
     <use style="fill:#1e90ff;stroke:#1e90ff;" x="416.73604" xlink:href="#m03ef5a5bf9" y="155.351792"/>
     <use style="fill:#1e90ff;stroke:#1e90ff;" x="416.73604" xlink:href="#m03ef5a5bf9" y="159.613519"/>
     <use style="fill:#1e90ff;stroke:#1e90ff;" x="428.442334" xlink:href="#m03ef5a5bf9" y="154.029513"/>
     <use style="fill:#1e90ff;stroke:#1e90ff;" x="428.442334" xlink:href="#m03ef5a5bf9" y="158.300526"/>
     <use style="fill:#1e90ff;stroke:#1e90ff;" x="440.148628" xlink:href="#m03ef5a5bf9" y="155.71935"/>
     <use style="fill:#1e90ff;stroke:#1e90ff;" x="451.854921" xlink:href="#m03ef5a5bf9" y="156.714845"/>
     <use style="fill:#1e90ff;stroke:#1e90ff;" x="463.561215" xlink:href="#m03ef5a5bf9" y="159.22448"/>
     <use style="fill:#1e90ff;stroke:#1e90ff;" x="475.267509" xlink:href="#m03ef5a5bf9" y="162.153943"/>
     <use style="fill:#1e90ff;stroke:#1e90ff;" x="486.973802" xlink:href="#m03ef5a5bf9" y="164.83098"/>
     <use style="fill:#1e90ff;stroke:#1e90ff;" x="498.680096" xlink:href="#m03ef5a5bf9" y="165.836205"/>
     <use style="fill:#1e90ff;stroke:#1e90ff;" x="510.38639" xlink:href="#m03ef5a5bf9" y="166.151583"/>
     <use style="fill:#1e90ff;stroke:#1e90ff;" x="522.092684" xlink:href="#m03ef5a5bf9" y="72.828177"/>
     <use style="fill:#1e90ff;stroke:#1e90ff;" x="522.092684" xlink:href="#m03ef5a5bf9" y="174.459085"/>
     <use style="fill:#1e90ff;stroke:#1e90ff;" x="533.798977" xlink:href="#m03ef5a5bf9" y="168.131024"/>
    </g>
   </g>
   <g id="line2d_28">
    <path clip-path="url(#p18ee57c55e)" d="M 77.253523 156.904927 
L 88.959816 150.914974 
L 100.66611 142.589862 
L 112.372404 125.651786 
L 124.078698 124.650784 
L 135.784991 131.628875 
L 147.491285 134.578926 
L 159.197579 136.770216 
L 170.903872 138.865021 
L 182.610166 141.35886 
L 194.31646 142.878654 
L 206.022753 135.025568 
L 217.729047 134.986302 
L 229.435341 137.990924 
L 241.141635 141.059076 
L 252.847928 141.190087 
L 264.554222 144.017635 
L 276.260516 144.784747 
L 287.966809 132.322457 
L 299.673103 118.783129 
L 311.379397 111.945877 
L 323.085691 104.827453 
L 334.791984 103.458631 
L 346.498278 109.724359 
L 358.204572 8.648182 
L 369.910865 87.051563 
L 381.617159 112.812371 
L 393.323453 125.511425 
L 405.029747 130.901201 
L 416.73604 127.270067 
L 428.442334 127.952136 
L 440.148628 128.036779 
L 451.854921 133.081681 
L 463.561215 136.113071 
L 475.267509 138.74524 
L 486.973802 141.522018 
L 498.680096 143.420556 
L 510.38639 144.821466 
L 522.092684 56.450634 
L 533.798977 83.29465 
" style="fill:none;stroke:#3cb371;stroke-linecap:square;"/>
    <defs>
     <path d="M -3 3 
L 3 -3 
M -3 -3 
L 3 3 
" id="mc0987089f0" style="stroke:#3cb371;"/>
    </defs>
    <g clip-path="url(#p18ee57c55e)">
     <use style="fill:#3cb371;stroke:#3cb371;" x="77.253523" xlink:href="#mc0987089f0" y="156.904927"/>
     <use style="fill:#3cb371;stroke:#3cb371;" x="88.959816" xlink:href="#mc0987089f0" y="150.914974"/>
     <use style="fill:#3cb371;stroke:#3cb371;" x="100.66611" xlink:href="#mc0987089f0" y="142.589862"/>
     <use style="fill:#3cb371;stroke:#3cb371;" x="112.372404" xlink:href="#mc0987089f0" y="125.651786"/>
     <use style="fill:#3cb371;stroke:#3cb371;" x="124.078698" xlink:href="#mc0987089f0" y="124.650784"/>
     <use style="fill:#3cb371;stroke:#3cb371;" x="135.784991" xlink:href="#mc0987089f0" y="131.628875"/>
     <use style="fill:#3cb371;stroke:#3cb371;" x="147.491285" xlink:href="#mc0987089f0" y="134.578926"/>
     <use style="fill:#3cb371;stroke:#3cb371;" x="159.197579" xlink:href="#mc0987089f0" y="136.770216"/>
     <use style="fill:#3cb371;stroke:#3cb371;" x="170.903872" xlink:href="#mc0987089f0" y="138.865021"/>
     <use style="fill:#3cb371;stroke:#3cb371;" x="182.610166" xlink:href="#mc0987089f0" y="141.35886"/>
     <use style="fill:#3cb371;stroke:#3cb371;" x="194.31646" xlink:href="#mc0987089f0" y="142.878654"/>
     <use style="fill:#3cb371;stroke:#3cb371;" x="206.022753" xlink:href="#mc0987089f0" y="135.025568"/>
     <use style="fill:#3cb371;stroke:#3cb371;" x="217.729047" xlink:href="#mc0987089f0" y="134.986302"/>
     <use style="fill:#3cb371;stroke:#3cb371;" x="229.435341" xlink:href="#mc0987089f0" y="137.990924"/>
     <use style="fill:#3cb371;stroke:#3cb371;" x="241.141635" xlink:href="#mc0987089f0" y="141.059076"/>
     <use style="fill:#3cb371;stroke:#3cb371;" x="252.847928" xlink:href="#mc0987089f0" y="141.190087"/>
     <use style="fill:#3cb371;stroke:#3cb371;" x="264.554222" xlink:href="#mc0987089f0" y="144.017635"/>
     <use style="fill:#3cb371;stroke:#3cb371;" x="276.260516" xlink:href="#mc0987089f0" y="144.784747"/>
     <use style="fill:#3cb371;stroke:#3cb371;" x="287.966809" xlink:href="#mc0987089f0" y="132.322457"/>
     <use style="fill:#3cb371;stroke:#3cb371;" x="299.673103" xlink:href="#mc0987089f0" y="118.783129"/>
     <use style="fill:#3cb371;stroke:#3cb371;" x="311.379397" xlink:href="#mc0987089f0" y="111.945877"/>
     <use style="fill:#3cb371;stroke:#3cb371;" x="323.085691" xlink:href="#mc0987089f0" y="104.827453"/>
     <use style="fill:#3cb371;stroke:#3cb371;" x="334.791984" xlink:href="#mc0987089f0" y="103.458631"/>
     <use style="fill:#3cb371;stroke:#3cb371;" x="346.498278" xlink:href="#mc0987089f0" y="109.724359"/>
     <use style="fill:#3cb371;stroke:#3cb371;" x="358.204572" xlink:href="#mc0987089f0" y="8.648182"/>
     <use style="fill:#3cb371;stroke:#3cb371;" x="369.910865" xlink:href="#mc0987089f0" y="87.051563"/>
     <use style="fill:#3cb371;stroke:#3cb371;" x="381.617159" xlink:href="#mc0987089f0" y="112.812371"/>
     <use style="fill:#3cb371;stroke:#3cb371;" x="393.323453" xlink:href="#mc0987089f0" y="125.511425"/>
     <use style="fill:#3cb371;stroke:#3cb371;" x="405.029747" xlink:href="#mc0987089f0" y="130.901201"/>
     <use style="fill:#3cb371;stroke:#3cb371;" x="416.73604" xlink:href="#mc0987089f0" y="127.270067"/>
     <use style="fill:#3cb371;stroke:#3cb371;" x="428.442334" xlink:href="#mc0987089f0" y="127.952136"/>
     <use style="fill:#3cb371;stroke:#3cb371;" x="440.148628" xlink:href="#mc0987089f0" y="128.036779"/>
     <use style="fill:#3cb371;stroke:#3cb371;" x="451.854921" xlink:href="#mc0987089f0" y="133.081681"/>
     <use style="fill:#3cb371;stroke:#3cb371;" x="463.561215" xlink:href="#mc0987089f0" y="136.113071"/>
     <use style="fill:#3cb371;stroke:#3cb371;" x="475.267509" xlink:href="#mc0987089f0" y="138.74524"/>
     <use style="fill:#3cb371;stroke:#3cb371;" x="486.973802" xlink:href="#mc0987089f0" y="141.522018"/>
     <use style="fill:#3cb371;stroke:#3cb371;" x="498.680096" xlink:href="#mc0987089f0" y="143.420556"/>
     <use style="fill:#3cb371;stroke:#3cb371;" x="510.38639" xlink:href="#mc0987089f0" y="144.821466"/>
     <use style="fill:#3cb371;stroke:#3cb371;" x="522.092684" xlink:href="#mc0987089f0" y="56.450634"/>
     <use style="fill:#3cb371;stroke:#3cb371;" x="533.798977" xlink:href="#mc0987089f0" y="83.29465"/>
    </g>
   </g>
   <g id="line2d_29">
    <path clip-path="url(#p18ee57c55e)" d="M 77.253523 158.324168 
L 88.959816 153.206832 
L 100.66611 146.082121 
L 112.372404 130.568341 
L 124.078698 130.723091 
L 135.784991 135.544094 
L 147.491285 137.453487 
L 159.197579 139.16287 
L 170.903872 140.646682 
L 182.610166 142.803221 
L 194.31646 144.568904 
L 206.022753 137.309527 
L 217.729047 137.193757 
L 229.435341 140.13321 
L 241.141635 143.073385 
L 252.847928 143.172293 
L 264.554222 145.977471 
L 276.260516 147.014321 
L 287.966809 132.679506 
L 299.673103 118.049344 
L 311.379397 113.146847 
L 323.085691 106.252765 
L 334.791984 104.419833 
L 346.498278 111.436853 
L 358.204572 24.535358 
L 369.910865 108.81203 
L 381.617159 127.391807 
L 393.323453 135.414759 
L 405.029747 137.74122 
L 416.73604 132.223903 
L 428.442334 130.624136 
L 440.148628 129.97917 
L 451.854921 135.413086 
L 463.561215 138.182562 
L 475.267509 140.137778 
L 486.973802 142.282882 
L 498.680096 143.625393 
L 510.38639 144.49991 
L 522.092684 62.452753 
L 533.798977 88.748087 
" style="fill:none;stroke:#ff69b4;stroke-linecap:square;"/>
    <defs>
     <path d="M 0 0 
L 0 3 
M 0 0 
L 2.4 -1.5 
M 0 0 
L -2.4 -1.5 
" id="m74874b5354" style="stroke:#ff69b4;"/>
    </defs>
    <g clip-path="url(#p18ee57c55e)">
     <use style="fill:#ff69b4;stroke:#ff69b4;" x="77.253523" xlink:href="#m74874b5354" y="158.324168"/>
     <use style="fill:#ff69b4;stroke:#ff69b4;" x="88.959816" xlink:href="#m74874b5354" y="153.206832"/>
     <use style="fill:#ff69b4;stroke:#ff69b4;" x="100.66611" xlink:href="#m74874b5354" y="146.082121"/>
     <use style="fill:#ff69b4;stroke:#ff69b4;" x="112.372404" xlink:href="#m74874b5354" y="130.568341"/>
     <use style="fill:#ff69b4;stroke:#ff69b4;" x="124.078698" xlink:href="#m74874b5354" y="130.723091"/>
     <use style="fill:#ff69b4;stroke:#ff69b4;" x="135.784991" xlink:href="#m74874b5354" y="135.544094"/>
     <use style="fill:#ff69b4;stroke:#ff69b4;" x="147.491285" xlink:href="#m74874b5354" y="137.453487"/>
     <use style="fill:#ff69b4;stroke:#ff69b4;" x="159.197579" xlink:href="#m74874b5354" y="139.16287"/>
     <use style="fill:#ff69b4;stroke:#ff69b4;" x="170.903872" xlink:href="#m74874b5354" y="140.646682"/>
     <use style="fill:#ff69b4;stroke:#ff69b4;" x="182.610166" xlink:href="#m74874b5354" y="142.803221"/>
     <use style="fill:#ff69b4;stroke:#ff69b4;" x="194.31646" xlink:href="#m74874b5354" y="144.568904"/>
     <use style="fill:#ff69b4;stroke:#ff69b4;" x="206.022753" xlink:href="#m74874b5354" y="137.309527"/>
     <use style="fill:#ff69b4;stroke:#ff69b4;" x="217.729047" xlink:href="#m74874b5354" y="137.193757"/>
     <use style="fill:#ff69b4;stroke:#ff69b4;" x="229.435341" xlink:href="#m74874b5354" y="140.13321"/>
     <use style="fill:#ff69b4;stroke:#ff69b4;" x="241.141635" xlink:href="#m74874b5354" y="143.073385"/>
     <use style="fill:#ff69b4;stroke:#ff69b4;" x="252.847928" xlink:href="#m74874b5354" y="143.172293"/>
     <use style="fill:#ff69b4;stroke:#ff69b4;" x="264.554222" xlink:href="#m74874b5354" y="145.977471"/>
     <use style="fill:#ff69b4;stroke:#ff69b4;" x="276.260516" xlink:href="#m74874b5354" y="147.014321"/>
     <use style="fill:#ff69b4;stroke:#ff69b4;" x="287.966809" xlink:href="#m74874b5354" y="132.679506"/>
     <use style="fill:#ff69b4;stroke:#ff69b4;" x="299.673103" xlink:href="#m74874b5354" y="118.049344"/>
     <use style="fill:#ff69b4;stroke:#ff69b4;" x="311.379397" xlink:href="#m74874b5354" y="113.146847"/>
     <use style="fill:#ff69b4;stroke:#ff69b4;" x="323.085691" xlink:href="#m74874b5354" y="106.252765"/>
     <use style="fill:#ff69b4;stroke:#ff69b4;" x="334.791984" xlink:href="#m74874b5354" y="104.419833"/>
     <use style="fill:#ff69b4;stroke:#ff69b4;" x="346.498278" xlink:href="#m74874b5354" y="111.436853"/>
     <use style="fill:#ff69b4;stroke:#ff69b4;" x="358.204572" xlink:href="#m74874b5354" y="24.535358"/>
     <use style="fill:#ff69b4;stroke:#ff69b4;" x="369.910865" xlink:href="#m74874b5354" y="108.81203"/>
     <use style="fill:#ff69b4;stroke:#ff69b4;" x="381.617159" xlink:href="#m74874b5354" y="127.391807"/>
     <use style="fill:#ff69b4;stroke:#ff69b4;" x="393.323453" xlink:href="#m74874b5354" y="135.414759"/>
     <use style="fill:#ff69b4;stroke:#ff69b4;" x="405.029747" xlink:href="#m74874b5354" y="137.74122"/>
     <use style="fill:#ff69b4;stroke:#ff69b4;" x="416.73604" xlink:href="#m74874b5354" y="132.223903"/>
     <use style="fill:#ff69b4;stroke:#ff69b4;" x="428.442334" xlink:href="#m74874b5354" y="130.624136"/>
     <use style="fill:#ff69b4;stroke:#ff69b4;" x="440.148628" xlink:href="#m74874b5354" y="129.97917"/>
     <use style="fill:#ff69b4;stroke:#ff69b4;" x="451.854921" xlink:href="#m74874b5354" y="135.413086"/>
     <use style="fill:#ff69b4;stroke:#ff69b4;" x="463.561215" xlink:href="#m74874b5354" y="138.182562"/>
     <use style="fill:#ff69b4;stroke:#ff69b4;" x="475.267509" xlink:href="#m74874b5354" y="140.137778"/>
     <use style="fill:#ff69b4;stroke:#ff69b4;" x="486.973802" xlink:href="#m74874b5354" y="142.282882"/>
     <use style="fill:#ff69b4;stroke:#ff69b4;" x="498.680096" xlink:href="#m74874b5354" y="143.625393"/>
     <use style="fill:#ff69b4;stroke:#ff69b4;" x="510.38639" xlink:href="#m74874b5354" y="144.49991"/>
     <use style="fill:#ff69b4;stroke:#ff69b4;" x="522.092684" xlink:href="#m74874b5354" y="62.452753"/>
     <use style="fill:#ff69b4;stroke:#ff69b4;" x="533.798977" xlink:href="#m74874b5354" y="88.748087"/>
    </g>
   </g>
   <g id="patch_3">
    <path d="M 54.42625 190.26 
L 54.42625 -0 
" style="fill:none;stroke:#000000;stroke-linecap:square;stroke-linejoin:miter;stroke-width:0.8;"/>
   </g>
   <g id="patch_4">
    <path d="M 556.62625 190.26 
L 556.62625 -0 
" style="fill:none;stroke:#000000;stroke-linecap:square;stroke-linejoin:miter;stroke-width:0.8;"/>
   </g>
   <g id="patch_5">
    <path d="M 54.42625 190.26 
L 556.62625 190.26 
" style="fill:none;stroke:#000000;stroke-linecap:square;stroke-linejoin:miter;stroke-width:0.8;"/>
   </g>
   <g id="patch_6">
    <path d="M 54.42625 0 
L 556.62625 0 
" style="fill:none;stroke:#000000;stroke-linecap:square;stroke-linejoin:miter;stroke-width:0.8;"/>
   </g>
  </g>
  <g id="axes_2">
   <g id="patch_7">
    <path d="M 54.42625 380.52 
L 556.62625 380.52 
L 556.62625 190.26 
L 54.42625 190.26 
z
" style="fill:#ffffff;"/>
   </g>
   <g id="matplotlib.axis_3">
    <g id="xtick_10">
     <g id="line2d_30">
      <g>
       <use style="stroke:#000000;stroke-width:0.8;" x="65.547229" xlink:href="#mc5d227857c" y="380.52"/>
      </g>
     </g>
     <g id="text_9">
      <!-- 0 -->
      <g transform="translate(62.365979 395.118437)scale(0.1 -0.1)">
       <use xlink:href="#DejaVuSans-48"/>
      </g>
     </g>
    </g>
    <g id="xtick_11">
     <g id="line2d_31">
      <g>
       <use style="stroke:#000000;stroke-width:0.8;" x="124.078698" xlink:href="#mc5d227857c" y="380.52"/>
      </g>
     </g>
     <g id="text_10">
      <!-- 5 -->
      <g transform="translate(120.897448 395.118437)scale(0.1 -0.1)">
       <use xlink:href="#DejaVuSans-53"/>
      </g>
     </g>
    </g>
    <g id="xtick_12">
     <g id="line2d_32">
      <g>
       <use style="stroke:#000000;stroke-width:0.8;" x="182.610166" xlink:href="#mc5d227857c" y="380.52"/>
      </g>
     </g>
     <g id="text_11">
      <!-- 10 -->
      <g transform="translate(176.247666 395.118437)scale(0.1 -0.1)">
       <use xlink:href="#DejaVuSans-49"/>
       <use x="63.623047" xlink:href="#DejaVuSans-48"/>
      </g>
     </g>
    </g>
    <g id="xtick_13">
     <g id="line2d_33">
      <g>
       <use style="stroke:#000000;stroke-width:0.8;" x="241.141635" xlink:href="#mc5d227857c" y="380.52"/>
      </g>
     </g>
     <g id="text_12">
      <!-- 15 -->
      <g transform="translate(234.779135 395.118437)scale(0.1 -0.1)">
       <use xlink:href="#DejaVuSans-49"/>
       <use x="63.623047" xlink:href="#DejaVuSans-53"/>
      </g>
     </g>
    </g>
    <g id="xtick_14">
     <g id="line2d_34">
      <g>
       <use style="stroke:#000000;stroke-width:0.8;" x="299.673103" xlink:href="#mc5d227857c" y="380.52"/>
      </g>
     </g>
     <g id="text_13">
      <!-- 20 -->
      <g transform="translate(293.310603 395.118437)scale(0.1 -0.1)">
       <use xlink:href="#DejaVuSans-50"/>
       <use x="63.623047" xlink:href="#DejaVuSans-48"/>
      </g>
     </g>
    </g>
    <g id="xtick_15">
     <g id="line2d_35">
      <g>
       <use style="stroke:#000000;stroke-width:0.8;" x="358.204572" xlink:href="#mc5d227857c" y="380.52"/>
      </g>
     </g>
     <g id="text_14">
      <!-- 25 -->
      <g transform="translate(351.842072 395.118437)scale(0.1 -0.1)">
       <use xlink:href="#DejaVuSans-50"/>
       <use x="63.623047" xlink:href="#DejaVuSans-53"/>
      </g>
     </g>
    </g>
    <g id="xtick_16">
     <g id="line2d_36">
      <g>
       <use style="stroke:#000000;stroke-width:0.8;" x="416.73604" xlink:href="#mc5d227857c" y="380.52"/>
      </g>
     </g>
     <g id="text_15">
      <!-- 30 -->
      <g transform="translate(410.37354 395.118437)scale(0.1 -0.1)">
       <use xlink:href="#DejaVuSans-51"/>
       <use x="63.623047" xlink:href="#DejaVuSans-48"/>
      </g>
     </g>
    </g>
    <g id="xtick_17">
     <g id="line2d_37">
      <g>
       <use style="stroke:#000000;stroke-width:0.8;" x="475.267509" xlink:href="#mc5d227857c" y="380.52"/>
      </g>
     </g>
     <g id="text_16">
      <!-- 35 -->
      <g transform="translate(468.905009 395.118437)scale(0.1 -0.1)">
       <use xlink:href="#DejaVuSans-51"/>
       <use x="63.623047" xlink:href="#DejaVuSans-53"/>
      </g>
     </g>
    </g>
    <g id="xtick_18">
     <g id="line2d_38">
      <g>
       <use style="stroke:#000000;stroke-width:0.8;" x="533.798977" xlink:href="#mc5d227857c" y="380.52"/>
      </g>
     </g>
     <g id="text_17">
      <!-- 40 -->
      <g transform="translate(527.436477 395.118437)scale(0.1 -0.1)">
       <use xlink:href="#DejaVuSans-52"/>
       <use x="63.623047" xlink:href="#DejaVuSans-48"/>
      </g>
     </g>
    </g>
    <g id="text_18">
     <!-- # of Stacked Slices -->
     <g transform="translate(247.84 410.31625)scale(0.12 -0.12)">
      <use xlink:href="#DejaVuSans-35"/>
      <use x="83.789062" xlink:href="#DejaVuSans-32"/>
      <use x="115.576172" xlink:href="#DejaVuSans-111"/>
      <use x="176.757812" xlink:href="#DejaVuSans-102"/>
      <use x="211.962891" xlink:href="#DejaVuSans-32"/>
      <use x="243.75" xlink:href="#DejaVuSans-83"/>
      <use x="307.226562" xlink:href="#DejaVuSans-116"/>
      <use x="346.435547" xlink:href="#DejaVuSans-97"/>
      <use x="407.714844" xlink:href="#DejaVuSans-99"/>
      <use x="462.695312" xlink:href="#DejaVuSans-107"/>
      <use x="516.980469" xlink:href="#DejaVuSans-101"/>
      <use x="578.503906" xlink:href="#DejaVuSans-100"/>
      <use x="641.980469" xlink:href="#DejaVuSans-32"/>
      <use x="673.767578" xlink:href="#DejaVuSans-83"/>
      <use x="737.244141" xlink:href="#DejaVuSans-108"/>
      <use x="765.027344" xlink:href="#DejaVuSans-105"/>
      <use x="792.810547" xlink:href="#DejaVuSans-99"/>
      <use x="847.791016" xlink:href="#DejaVuSans-101"/>
      <use x="909.314453" xlink:href="#DejaVuSans-115"/>
     </g>
    </g>
   </g>
   <g id="matplotlib.axis_4">
    <g id="ytick_7">
     <g id="line2d_39">
      <g>
       <use style="stroke:#000000;stroke-width:0.8;" x="54.42625" xlink:href="#m3cbf7adfbd" y="305.804054"/>
      </g>
     </g>
     <g id="text_19">
      <!-- $\mathdefault{10^{0}}$ -->
      <g transform="translate(29.82625 309.603273)scale(0.1 -0.1)">
       <use transform="translate(0 0.765625)" xlink:href="#DejaVuSans-49"/>
       <use transform="translate(63.623047 0.765625)" xlink:href="#DejaVuSans-48"/>
       <use transform="translate(128.203125 39.046875)scale(0.7)" xlink:href="#DejaVuSans-48"/>
      </g>
     </g>
    </g>
    <g id="ytick_8">
     <g id="line2d_40">
      <g>
       <use style="stroke:#000000;stroke-width:0.8;" x="54.42625" xlink:href="#m3cbf7adfbd" y="224.445334"/>
      </g>
     </g>
     <g id="text_20">
      <!-- $\mathdefault{10^{1}}$ -->
      <g transform="translate(29.82625 228.244553)scale(0.1 -0.1)">
       <use transform="translate(0 0.684375)" xlink:href="#DejaVuSans-49"/>
       <use transform="translate(63.623047 0.684375)" xlink:href="#DejaVuSans-48"/>
       <use transform="translate(128.203125 38.965625)scale(0.7)" xlink:href="#DejaVuSans-49"/>
      </g>
     </g>
    </g>
    <g id="ytick_9">
     <g id="line2d_41">
      <defs>
       <path d="M 0 0 
L -2 0 
" id="md9d71bfdbd" style="stroke:#000000;stroke-width:0.6;"/>
      </defs>
      <g>
       <use style="stroke:#000000;stroke-width:0.6;" x="54.42625" xlink:href="#md9d71bfdbd" y="362.671359"/>
      </g>
     </g>
    </g>
    <g id="ytick_10">
     <g id="line2d_42">
      <g>
       <use style="stroke:#000000;stroke-width:0.6;" x="54.42625" xlink:href="#md9d71bfdbd" y="348.3448"/>
      </g>
     </g>
    </g>
    <g id="ytick_11">
     <g id="line2d_43">
      <g>
       <use style="stroke:#000000;stroke-width:0.6;" x="54.42625" xlink:href="#md9d71bfdbd" y="338.179944"/>
      </g>
     </g>
    </g>
    <g id="ytick_12">
     <g id="line2d_44">
      <g>
       <use style="stroke:#000000;stroke-width:0.6;" x="54.42625" xlink:href="#md9d71bfdbd" y="330.295469"/>
      </g>
     </g>
    </g>
    <g id="ytick_13">
     <g id="line2d_45">
      <g>
       <use style="stroke:#000000;stroke-width:0.6;" x="54.42625" xlink:href="#md9d71bfdbd" y="323.853385"/>
      </g>
     </g>
    </g>
    <g id="ytick_14">
     <g id="line2d_46">
      <g>
       <use style="stroke:#000000;stroke-width:0.6;" x="54.42625" xlink:href="#md9d71bfdbd" y="318.406679"/>
      </g>
     </g>
    </g>
    <g id="ytick_15">
     <g id="line2d_47">
      <g>
       <use style="stroke:#000000;stroke-width:0.6;" x="54.42625" xlink:href="#md9d71bfdbd" y="313.688529"/>
      </g>
     </g>
    </g>
    <g id="ytick_16">
     <g id="line2d_48">
      <g>
       <use style="stroke:#000000;stroke-width:0.6;" x="54.42625" xlink:href="#md9d71bfdbd" y="309.526825"/>
      </g>
     </g>
    </g>
    <g id="ytick_17">
     <g id="line2d_49">
      <g>
       <use style="stroke:#000000;stroke-width:0.6;" x="54.42625" xlink:href="#md9d71bfdbd" y="281.312639"/>
      </g>
     </g>
    </g>
    <g id="ytick_18">
     <g id="line2d_50">
      <g>
       <use style="stroke:#000000;stroke-width:0.6;" x="54.42625" xlink:href="#md9d71bfdbd" y="266.986079"/>
      </g>
     </g>
    </g>
    <g id="ytick_19">
     <g id="line2d_51">
      <g>
       <use style="stroke:#000000;stroke-width:0.6;" x="54.42625" xlink:href="#md9d71bfdbd" y="256.821224"/>
      </g>
     </g>
    </g>
    <g id="ytick_20">
     <g id="line2d_52">
      <g>
       <use style="stroke:#000000;stroke-width:0.6;" x="54.42625" xlink:href="#md9d71bfdbd" y="248.936749"/>
      </g>
     </g>
    </g>
    <g id="ytick_21">
     <g id="line2d_53">
      <g>
       <use style="stroke:#000000;stroke-width:0.6;" x="54.42625" xlink:href="#md9d71bfdbd" y="242.494664"/>
      </g>
     </g>
    </g>
    <g id="ytick_22">
     <g id="line2d_54">
      <g>
       <use style="stroke:#000000;stroke-width:0.6;" x="54.42625" xlink:href="#md9d71bfdbd" y="237.047959"/>
      </g>
     </g>
    </g>
    <g id="ytick_23">
     <g id="line2d_55">
      <g>
       <use style="stroke:#000000;stroke-width:0.6;" x="54.42625" xlink:href="#md9d71bfdbd" y="232.329808"/>
      </g>
     </g>
    </g>
    <g id="ytick_24">
     <g id="line2d_56">
      <g>
       <use style="stroke:#000000;stroke-width:0.6;" x="54.42625" xlink:href="#md9d71bfdbd" y="228.168105"/>
      </g>
     </g>
    </g>
    <g id="ytick_25">
     <g id="line2d_57">
      <g>
       <use style="stroke:#000000;stroke-width:0.6;" x="54.42625" xlink:href="#md9d71bfdbd" y="199.953919"/>
      </g>
     </g>
    </g>
    <g id="text_21">
     <!-- Local Running Time (s) -->
     <g transform="translate(23.330625 353.735625)rotate(-90)scale(0.12 -0.12)">
      <defs>
       <path d="M 44.390625 34.1875 
Q 47.5625 33.109375 50.5625 29.59375 
Q 53.5625 26.078125 56.59375 19.921875 
L 66.609375 0 
L 56 0 
L 46.6875 18.703125 
Q 43.0625 26.03125 39.671875 28.421875 
Q 36.28125 30.8125 30.421875 30.8125 
L 19.671875 30.8125 
L 19.671875 0 
L 9.8125 0 
L 9.8125 72.90625 
L 32.078125 72.90625 
Q 44.578125 72.90625 50.734375 67.671875 
Q 56.890625 62.453125 56.890625 51.90625 
Q 56.890625 45.015625 53.6875 40.46875 
Q 50.484375 35.9375 44.390625 34.1875 
z
M 19.671875 64.796875 
L 19.671875 38.921875 
L 32.078125 38.921875 
Q 39.203125 38.921875 42.84375 42.21875 
Q 46.484375 45.515625 46.484375 51.90625 
Q 46.484375 58.296875 42.84375 61.546875 
Q 39.203125 64.796875 32.078125 64.796875 
z
" id="DejaVuSans-82"/>
       <path d="M 8.5 21.578125 
L 8.5 54.6875 
L 17.484375 54.6875 
L 17.484375 21.921875 
Q 17.484375 14.15625 20.5 10.265625 
Q 23.53125 6.390625 29.59375 6.390625 
Q 36.859375 6.390625 41.078125 11.03125 
Q 45.3125 15.671875 45.3125 23.6875 
L 45.3125 54.6875 
L 54.296875 54.6875 
L 54.296875 0 
L 45.3125 0 
L 45.3125 8.40625 
Q 42.046875 3.421875 37.71875 1 
Q 33.40625 -1.421875 27.6875 -1.421875 
Q 18.265625 -1.421875 13.375 4.4375 
Q 8.5 10.296875 8.5 21.578125 
z
M 31.109375 56 
z
" id="DejaVuSans-117"/>
       <path d="M 54.890625 33.015625 
L 54.890625 0 
L 45.90625 0 
L 45.90625 32.71875 
Q 45.90625 40.484375 42.875 44.328125 
Q 39.84375 48.1875 33.796875 48.1875 
Q 26.515625 48.1875 22.3125 43.546875 
Q 18.109375 38.921875 18.109375 30.90625 
L 18.109375 0 
L 9.078125 0 
L 9.078125 54.6875 
L 18.109375 54.6875 
L 18.109375 46.1875 
Q 21.34375 51.125 25.703125 53.5625 
Q 30.078125 56 35.796875 56 
Q 45.21875 56 50.046875 50.171875 
Q 54.890625 44.34375 54.890625 33.015625 
z
" id="DejaVuSans-110"/>
       <path d="M 45.40625 27.984375 
Q 45.40625 37.75 41.375 43.109375 
Q 37.359375 48.484375 30.078125 48.484375 
Q 22.859375 48.484375 18.828125 43.109375 
Q 14.796875 37.75 14.796875 27.984375 
Q 14.796875 18.265625 18.828125 12.890625 
Q 22.859375 7.515625 30.078125 7.515625 
Q 37.359375 7.515625 41.375 12.890625 
Q 45.40625 18.265625 45.40625 27.984375 
z
M 54.390625 6.78125 
Q 54.390625 -7.171875 48.1875 -13.984375 
Q 42 -20.796875 29.203125 -20.796875 
Q 24.46875 -20.796875 20.265625 -20.09375 
Q 16.0625 -19.390625 12.109375 -17.921875 
L 12.109375 -9.1875 
Q 16.0625 -11.328125 19.921875 -12.34375 
Q 23.78125 -13.375 27.78125 -13.375 
Q 36.625 -13.375 41.015625 -8.765625 
Q 45.40625 -4.15625 45.40625 5.171875 
L 45.40625 9.625 
Q 42.625 4.78125 38.28125 2.390625 
Q 33.9375 0 27.875 0 
Q 17.828125 0 11.671875 7.65625 
Q 5.515625 15.328125 5.515625 27.984375 
Q 5.515625 40.671875 11.671875 48.328125 
Q 17.828125 56 27.875 56 
Q 33.9375 56 38.28125 53.609375 
Q 42.625 51.21875 45.40625 46.390625 
L 45.40625 54.6875 
L 54.390625 54.6875 
z
" id="DejaVuSans-103"/>
       <path d="M -0.296875 72.90625 
L 61.375 72.90625 
L 61.375 64.59375 
L 35.5 64.59375 
L 35.5 0 
L 25.59375 0 
L 25.59375 64.59375 
L -0.296875 64.59375 
z
" id="DejaVuSans-84"/>
       <path d="M 31 75.875 
Q 24.46875 64.65625 21.28125 53.65625 
Q 18.109375 42.671875 18.109375 31.390625 
Q 18.109375 20.125 21.3125 9.0625 
Q 24.515625 -2 31 -13.1875 
L 23.1875 -13.1875 
Q 15.875 -1.703125 12.234375 9.375 
Q 8.59375 20.453125 8.59375 31.390625 
Q 8.59375 42.28125 12.203125 53.3125 
Q 15.828125 64.359375 23.1875 75.875 
z
" id="DejaVuSans-40"/>
       <path d="M 8.015625 75.875 
L 15.828125 75.875 
Q 23.140625 64.359375 26.78125 53.3125 
Q 30.421875 42.28125 30.421875 31.390625 
Q 30.421875 20.453125 26.78125 9.375 
Q 23.140625 -1.703125 15.828125 -13.1875 
L 8.015625 -13.1875 
Q 14.5 -2 17.703125 9.0625 
Q 20.90625 20.125 20.90625 31.390625 
Q 20.90625 42.671875 17.703125 53.65625 
Q 14.5 64.65625 8.015625 75.875 
z
" id="DejaVuSans-41"/>
      </defs>
      <use xlink:href="#DejaVuSans-76"/>
      <use x="53.962891" xlink:href="#DejaVuSans-111"/>
      <use x="115.144531" xlink:href="#DejaVuSans-99"/>
      <use x="170.125" xlink:href="#DejaVuSans-97"/>
      <use x="231.404297" xlink:href="#DejaVuSans-108"/>
      <use x="259.1875" xlink:href="#DejaVuSans-32"/>
      <use x="290.974609" xlink:href="#DejaVuSans-82"/>
      <use x="355.957031" xlink:href="#DejaVuSans-117"/>
      <use x="419.335938" xlink:href="#DejaVuSans-110"/>
      <use x="482.714844" xlink:href="#DejaVuSans-110"/>
      <use x="546.09375" xlink:href="#DejaVuSans-105"/>
      <use x="573.876953" xlink:href="#DejaVuSans-110"/>
      <use x="637.255859" xlink:href="#DejaVuSans-103"/>
      <use x="700.732422" xlink:href="#DejaVuSans-32"/>
      <use x="732.519531" xlink:href="#DejaVuSans-84"/>
      <use x="790.478516" xlink:href="#DejaVuSans-105"/>
      <use x="818.261719" xlink:href="#DejaVuSans-109"/>
      <use x="915.673828" xlink:href="#DejaVuSans-101"/>
      <use x="977.197266" xlink:href="#DejaVuSans-32"/>
      <use x="1008.984375" xlink:href="#DejaVuSans-40"/>
      <use x="1047.998047" xlink:href="#DejaVuSans-115"/>
      <use x="1100.097656" xlink:href="#DejaVuSans-41"/>
     </g>
    </g>
   </g>
   <g id="line2d_58">
    <path clip-path="url(#pafde6fe700)" d="M 112.372404 380.52 
L 112.372404 190.26 
" style="fill:none;stroke:#d3d3d3;stroke-dasharray:7.4,3.2;stroke-dashoffset:0;stroke-width:2;"/>
   </g>
   <g id="line2d_59">
    <path clip-path="url(#pafde6fe700)" d="M 299.673103 380.52 
L 299.673103 190.26 
" style="fill:none;stroke:#d3d3d3;stroke-dasharray:7.4,3.2;stroke-dashoffset:0;stroke-width:2;"/>
   </g>
   <g id="line2d_60">
    <path clip-path="url(#pafde6fe700)" d="M 311.379397 380.52 
L 311.379397 190.26 
" style="fill:none;stroke:#d3d3d3;stroke-dasharray:7.4,3.2;stroke-dashoffset:0;stroke-width:2;"/>
   </g>
   <g id="line2d_61">
    <path clip-path="url(#pafde6fe700)" d="M 323.085691 380.52 
L 323.085691 190.26 
" style="fill:none;stroke:#d3d3d3;stroke-dasharray:7.4,3.2;stroke-dashoffset:0;stroke-width:2;"/>
   </g>
   <g id="line2d_62">
    <path clip-path="url(#pafde6fe700)" d="M 334.791984 380.52 
L 334.791984 190.26 
" style="fill:none;stroke:#d3d3d3;stroke-dasharray:7.4,3.2;stroke-dashoffset:0;stroke-width:2;"/>
   </g>
   <g id="line2d_63">
    <path clip-path="url(#pafde6fe700)" d="M 346.498278 380.52 
L 346.498278 190.26 
" style="fill:none;stroke:#d3d3d3;stroke-dasharray:7.4,3.2;stroke-dashoffset:0;stroke-width:2;"/>
   </g>
   <g id="line2d_64">
    <path clip-path="url(#pafde6fe700)" d="M 416.73604 380.52 
L 416.73604 190.26 
" style="fill:none;stroke:#d3d3d3;stroke-dasharray:7.4,3.2;stroke-dashoffset:0;stroke-width:2;"/>
   </g>
   <g id="line2d_65">
    <path clip-path="url(#pafde6fe700)" d="M 428.442334 380.52 
L 428.442334 190.26 
" style="fill:none;stroke:#d3d3d3;stroke-dasharray:7.4,3.2;stroke-dashoffset:0;stroke-width:2;"/>
   </g>
   <g id="line2d_66">
    <path clip-path="url(#pafde6fe700)" d="M 88.959816 380.52 
L 88.959816 190.26 
" style="fill:none;stroke:#d3d3d3;stroke-linecap:square;stroke-width:2;"/>
   </g>
   <g id="line2d_67">
    <path clip-path="url(#pafde6fe700)" d="M 358.204572 380.52 
L 358.204572 190.26 
" style="fill:none;stroke:#d3d3d3;stroke-linecap:square;stroke-width:2;"/>
   </g>
   <g id="line2d_68">
    <path clip-path="url(#pafde6fe700)" d="M 522.092684 380.52 
L 522.092684 190.26 
" style="fill:none;stroke:#d3d3d3;stroke-linecap:square;stroke-width:2;"/>
   </g>
   <g id="line2d_69">
    <path clip-path="url(#pafde6fe700)" d="M 77.253523 343.761161 
L 88.959816 201.078964 
L 88.959816 365.897415 
L 100.66611 335.657554 
L 112.372404 326.713391 
L 112.372404 296.300975 
L 124.078698 334.831358 
L 135.784991 338.141626 
L 147.491285 343.27929 
L 159.197579 346.662015 
L 170.903872 344.194295 
L 182.610166 333.068638 
L 194.31646 342.102004 
L 206.022753 343.70337 
L 217.729047 341.538137 
L 229.435341 342.02497 
L 241.141635 344.665432 
L 252.847928 346.482972 
L 264.554222 339.889819 
L 276.260516 342.404041 
L 287.966809 345.551137 
L 299.673103 337.062771 
L 299.673103 308.970297 
L 311.379397 345.466007 
L 311.379397 310.568159 
L 323.085691 343.252367 
L 323.085691 311.383648 
L 334.791984 342.050128 
L 334.791984 309.170345 
L 346.498278 344.838807 
L 346.498278 311.640236 
L 358.204572 198.908182 
L 358.204572 369.804472 
L 369.910865 341.052734 
L 381.617159 343.552649 
L 393.323453 340.634788 
L 405.029747 339.853718 
L 416.73604 335.529071 
L 416.73604 308.364679 
L 428.442334 347.661679 
L 428.442334 308.247878 
L 440.148628 338.733978 
L 451.854921 334.226459 
L 463.561215 347.334309 
L 475.267509 331.611773 
L 486.973802 337.372547 
L 498.680096 327.78223 
L 510.38639 340.784919 
L 522.092684 200.63169 
L 522.092684 371.871818 
L 533.798977 341.470157 
" style="fill:none;stroke:#1e90ff;stroke-linecap:square;"/>
    <g clip-path="url(#pafde6fe700)">
     <use style="fill:#1e90ff;stroke:#1e90ff;" x="77.253523" xlink:href="#m03ef5a5bf9" y="343.761161"/>
     <use style="fill:#1e90ff;stroke:#1e90ff;" x="88.959816" xlink:href="#m03ef5a5bf9" y="201.078964"/>
     <use style="fill:#1e90ff;stroke:#1e90ff;" x="88.959816" xlink:href="#m03ef5a5bf9" y="365.897415"/>
     <use style="fill:#1e90ff;stroke:#1e90ff;" x="100.66611" xlink:href="#m03ef5a5bf9" y="335.657554"/>
     <use style="fill:#1e90ff;stroke:#1e90ff;" x="112.372404" xlink:href="#m03ef5a5bf9" y="326.713391"/>
     <use style="fill:#1e90ff;stroke:#1e90ff;" x="112.372404" xlink:href="#m03ef5a5bf9" y="296.300975"/>
     <use style="fill:#1e90ff;stroke:#1e90ff;" x="124.078698" xlink:href="#m03ef5a5bf9" y="334.831358"/>
     <use style="fill:#1e90ff;stroke:#1e90ff;" x="135.784991" xlink:href="#m03ef5a5bf9" y="338.141626"/>
     <use style="fill:#1e90ff;stroke:#1e90ff;" x="147.491285" xlink:href="#m03ef5a5bf9" y="343.27929"/>
     <use style="fill:#1e90ff;stroke:#1e90ff;" x="159.197579" xlink:href="#m03ef5a5bf9" y="346.662015"/>
     <use style="fill:#1e90ff;stroke:#1e90ff;" x="170.903872" xlink:href="#m03ef5a5bf9" y="344.194295"/>
     <use style="fill:#1e90ff;stroke:#1e90ff;" x="182.610166" xlink:href="#m03ef5a5bf9" y="333.068638"/>
     <use style="fill:#1e90ff;stroke:#1e90ff;" x="194.31646" xlink:href="#m03ef5a5bf9" y="342.102004"/>
     <use style="fill:#1e90ff;stroke:#1e90ff;" x="206.022753" xlink:href="#m03ef5a5bf9" y="343.70337"/>
     <use style="fill:#1e90ff;stroke:#1e90ff;" x="217.729047" xlink:href="#m03ef5a5bf9" y="341.538137"/>
     <use style="fill:#1e90ff;stroke:#1e90ff;" x="229.435341" xlink:href="#m03ef5a5bf9" y="342.02497"/>
     <use style="fill:#1e90ff;stroke:#1e90ff;" x="241.141635" xlink:href="#m03ef5a5bf9" y="344.665432"/>
     <use style="fill:#1e90ff;stroke:#1e90ff;" x="252.847928" xlink:href="#m03ef5a5bf9" y="346.482972"/>
     <use style="fill:#1e90ff;stroke:#1e90ff;" x="264.554222" xlink:href="#m03ef5a5bf9" y="339.889819"/>
     <use style="fill:#1e90ff;stroke:#1e90ff;" x="276.260516" xlink:href="#m03ef5a5bf9" y="342.404041"/>
     <use style="fill:#1e90ff;stroke:#1e90ff;" x="287.966809" xlink:href="#m03ef5a5bf9" y="345.551137"/>
     <use style="fill:#1e90ff;stroke:#1e90ff;" x="299.673103" xlink:href="#m03ef5a5bf9" y="337.062771"/>
     <use style="fill:#1e90ff;stroke:#1e90ff;" x="299.673103" xlink:href="#m03ef5a5bf9" y="308.970297"/>
     <use style="fill:#1e90ff;stroke:#1e90ff;" x="311.379397" xlink:href="#m03ef5a5bf9" y="345.466007"/>
     <use style="fill:#1e90ff;stroke:#1e90ff;" x="311.379397" xlink:href="#m03ef5a5bf9" y="310.568159"/>
     <use style="fill:#1e90ff;stroke:#1e90ff;" x="323.085691" xlink:href="#m03ef5a5bf9" y="343.252367"/>
     <use style="fill:#1e90ff;stroke:#1e90ff;" x="323.085691" xlink:href="#m03ef5a5bf9" y="311.383648"/>
     <use style="fill:#1e90ff;stroke:#1e90ff;" x="334.791984" xlink:href="#m03ef5a5bf9" y="342.050128"/>
     <use style="fill:#1e90ff;stroke:#1e90ff;" x="334.791984" xlink:href="#m03ef5a5bf9" y="309.170345"/>
     <use style="fill:#1e90ff;stroke:#1e90ff;" x="346.498278" xlink:href="#m03ef5a5bf9" y="344.838807"/>
     <use style="fill:#1e90ff;stroke:#1e90ff;" x="346.498278" xlink:href="#m03ef5a5bf9" y="311.640236"/>
     <use style="fill:#1e90ff;stroke:#1e90ff;" x="358.204572" xlink:href="#m03ef5a5bf9" y="198.908182"/>
     <use style="fill:#1e90ff;stroke:#1e90ff;" x="358.204572" xlink:href="#m03ef5a5bf9" y="369.804472"/>
     <use style="fill:#1e90ff;stroke:#1e90ff;" x="369.910865" xlink:href="#m03ef5a5bf9" y="341.052734"/>
     <use style="fill:#1e90ff;stroke:#1e90ff;" x="381.617159" xlink:href="#m03ef5a5bf9" y="343.552649"/>
     <use style="fill:#1e90ff;stroke:#1e90ff;" x="393.323453" xlink:href="#m03ef5a5bf9" y="340.634788"/>
     <use style="fill:#1e90ff;stroke:#1e90ff;" x="405.029747" xlink:href="#m03ef5a5bf9" y="339.853718"/>
     <use style="fill:#1e90ff;stroke:#1e90ff;" x="416.73604" xlink:href="#m03ef5a5bf9" y="335.529071"/>
     <use style="fill:#1e90ff;stroke:#1e90ff;" x="416.73604" xlink:href="#m03ef5a5bf9" y="308.364679"/>
     <use style="fill:#1e90ff;stroke:#1e90ff;" x="428.442334" xlink:href="#m03ef5a5bf9" y="347.661679"/>
     <use style="fill:#1e90ff;stroke:#1e90ff;" x="428.442334" xlink:href="#m03ef5a5bf9" y="308.247878"/>
     <use style="fill:#1e90ff;stroke:#1e90ff;" x="440.148628" xlink:href="#m03ef5a5bf9" y="338.733978"/>
     <use style="fill:#1e90ff;stroke:#1e90ff;" x="451.854921" xlink:href="#m03ef5a5bf9" y="334.226459"/>
     <use style="fill:#1e90ff;stroke:#1e90ff;" x="463.561215" xlink:href="#m03ef5a5bf9" y="347.334309"/>
     <use style="fill:#1e90ff;stroke:#1e90ff;" x="475.267509" xlink:href="#m03ef5a5bf9" y="331.611773"/>
     <use style="fill:#1e90ff;stroke:#1e90ff;" x="486.973802" xlink:href="#m03ef5a5bf9" y="337.372547"/>
     <use style="fill:#1e90ff;stroke:#1e90ff;" x="498.680096" xlink:href="#m03ef5a5bf9" y="327.78223"/>
     <use style="fill:#1e90ff;stroke:#1e90ff;" x="510.38639" xlink:href="#m03ef5a5bf9" y="340.784919"/>
     <use style="fill:#1e90ff;stroke:#1e90ff;" x="522.092684" xlink:href="#m03ef5a5bf9" y="200.63169"/>
     <use style="fill:#1e90ff;stroke:#1e90ff;" x="522.092684" xlink:href="#m03ef5a5bf9" y="371.871818"/>
     <use style="fill:#1e90ff;stroke:#1e90ff;" x="533.798977" xlink:href="#m03ef5a5bf9" y="341.470157"/>
    </g>
   </g>
   <g id="line2d_70">
    <path clip-path="url(#pafde6fe700)" d="M 77.253523 349.243717 
L 88.959816 340.687858 
L 100.66611 334.28826 
L 112.372404 345.686653 
L 124.078698 337.092943 
L 135.784991 341.557087 
L 147.491285 343.519269 
L 159.197579 338.504171 
L 170.903872 320.982941 
L 182.610166 344.190275 
L 194.31646 346.314189 
L 206.022753 345.883166 
L 217.729047 343.833377 
L 229.435341 336.048723 
L 241.141635 338.732052 
L 252.847928 330.734526 
L 264.554222 342.480289 
L 276.260516 341.939554 
L 287.966809 326.099112 
L 299.673103 336.068537 
L 311.379397 345.310969 
L 323.085691 344.840053 
L 334.791984 343.368061 
L 346.498278 344.270857 
L 358.204572 344.746395 
L 369.910865 345.280857 
L 381.617159 345.017458 
L 393.323453 340.118279 
L 405.029747 341.444231 
L 416.73604 336.172327 
L 428.442334 346.011683 
L 440.148628 345.068276 
L 451.854921 344.622998 
L 463.561215 345.815109 
L 475.267509 343.933243 
L 486.973802 345.52406 
L 498.680096 340.447747 
L 510.38639 345.66676 
L 522.092684 345.026481 
L 533.798977 345.428548 
" style="fill:none;stroke:#3cb371;stroke-linecap:square;"/>
    <g clip-path="url(#pafde6fe700)">
     <use style="fill:#3cb371;stroke:#3cb371;" x="77.253523" xlink:href="#mc0987089f0" y="349.243717"/>
     <use style="fill:#3cb371;stroke:#3cb371;" x="88.959816" xlink:href="#mc0987089f0" y="340.687858"/>
     <use style="fill:#3cb371;stroke:#3cb371;" x="100.66611" xlink:href="#mc0987089f0" y="334.28826"/>
     <use style="fill:#3cb371;stroke:#3cb371;" x="112.372404" xlink:href="#mc0987089f0" y="345.686653"/>
     <use style="fill:#3cb371;stroke:#3cb371;" x="124.078698" xlink:href="#mc0987089f0" y="337.092943"/>
     <use style="fill:#3cb371;stroke:#3cb371;" x="135.784991" xlink:href="#mc0987089f0" y="341.557087"/>
     <use style="fill:#3cb371;stroke:#3cb371;" x="147.491285" xlink:href="#mc0987089f0" y="343.519269"/>
     <use style="fill:#3cb371;stroke:#3cb371;" x="159.197579" xlink:href="#mc0987089f0" y="338.504171"/>
     <use style="fill:#3cb371;stroke:#3cb371;" x="170.903872" xlink:href="#mc0987089f0" y="320.982941"/>
     <use style="fill:#3cb371;stroke:#3cb371;" x="182.610166" xlink:href="#mc0987089f0" y="344.190275"/>
     <use style="fill:#3cb371;stroke:#3cb371;" x="194.31646" xlink:href="#mc0987089f0" y="346.314189"/>
     <use style="fill:#3cb371;stroke:#3cb371;" x="206.022753" xlink:href="#mc0987089f0" y="345.883166"/>
     <use style="fill:#3cb371;stroke:#3cb371;" x="217.729047" xlink:href="#mc0987089f0" y="343.833377"/>
     <use style="fill:#3cb371;stroke:#3cb371;" x="229.435341" xlink:href="#mc0987089f0" y="336.048723"/>
     <use style="fill:#3cb371;stroke:#3cb371;" x="241.141635" xlink:href="#mc0987089f0" y="338.732052"/>
     <use style="fill:#3cb371;stroke:#3cb371;" x="252.847928" xlink:href="#mc0987089f0" y="330.734526"/>
     <use style="fill:#3cb371;stroke:#3cb371;" x="264.554222" xlink:href="#mc0987089f0" y="342.480289"/>
     <use style="fill:#3cb371;stroke:#3cb371;" x="276.260516" xlink:href="#mc0987089f0" y="341.939554"/>
     <use style="fill:#3cb371;stroke:#3cb371;" x="287.966809" xlink:href="#mc0987089f0" y="326.099112"/>
     <use style="fill:#3cb371;stroke:#3cb371;" x="299.673103" xlink:href="#mc0987089f0" y="336.068537"/>
     <use style="fill:#3cb371;stroke:#3cb371;" x="311.379397" xlink:href="#mc0987089f0" y="345.310969"/>
     <use style="fill:#3cb371;stroke:#3cb371;" x="323.085691" xlink:href="#mc0987089f0" y="344.840053"/>
     <use style="fill:#3cb371;stroke:#3cb371;" x="334.791984" xlink:href="#mc0987089f0" y="343.368061"/>
     <use style="fill:#3cb371;stroke:#3cb371;" x="346.498278" xlink:href="#mc0987089f0" y="344.270857"/>
     <use style="fill:#3cb371;stroke:#3cb371;" x="358.204572" xlink:href="#mc0987089f0" y="344.746395"/>
     <use style="fill:#3cb371;stroke:#3cb371;" x="369.910865" xlink:href="#mc0987089f0" y="345.280857"/>
     <use style="fill:#3cb371;stroke:#3cb371;" x="381.617159" xlink:href="#mc0987089f0" y="345.017458"/>
     <use style="fill:#3cb371;stroke:#3cb371;" x="393.323453" xlink:href="#mc0987089f0" y="340.118279"/>
     <use style="fill:#3cb371;stroke:#3cb371;" x="405.029747" xlink:href="#mc0987089f0" y="341.444231"/>
     <use style="fill:#3cb371;stroke:#3cb371;" x="416.73604" xlink:href="#mc0987089f0" y="336.172327"/>
     <use style="fill:#3cb371;stroke:#3cb371;" x="428.442334" xlink:href="#mc0987089f0" y="346.011683"/>
     <use style="fill:#3cb371;stroke:#3cb371;" x="440.148628" xlink:href="#mc0987089f0" y="345.068276"/>
     <use style="fill:#3cb371;stroke:#3cb371;" x="451.854921" xlink:href="#mc0987089f0" y="344.622998"/>
     <use style="fill:#3cb371;stroke:#3cb371;" x="463.561215" xlink:href="#mc0987089f0" y="345.815109"/>
     <use style="fill:#3cb371;stroke:#3cb371;" x="475.267509" xlink:href="#mc0987089f0" y="343.933243"/>
     <use style="fill:#3cb371;stroke:#3cb371;" x="486.973802" xlink:href="#mc0987089f0" y="345.52406"/>
     <use style="fill:#3cb371;stroke:#3cb371;" x="498.680096" xlink:href="#mc0987089f0" y="340.447747"/>
     <use style="fill:#3cb371;stroke:#3cb371;" x="510.38639" xlink:href="#mc0987089f0" y="345.66676"/>
     <use style="fill:#3cb371;stroke:#3cb371;" x="522.092684" xlink:href="#mc0987089f0" y="345.026481"/>
     <use style="fill:#3cb371;stroke:#3cb371;" x="533.798977" xlink:href="#mc0987089f0" y="345.428548"/>
    </g>
   </g>
   <g id="line2d_71">
    <path clip-path="url(#pafde6fe700)" d="M 77.253523 339.601581 
L 88.959816 336.741045 
L 100.66611 335.488943 
L 112.372404 338.031078 
L 124.078698 337.010716 
L 135.784991 337.675615 
L 147.491285 337.55927 
L 159.197579 337.559497 
L 170.903872 336.522919 
L 182.610166 337.980551 
L 194.31646 339.703746 
L 206.022753 337.819227 
L 217.729047 331.36836 
L 229.435341 337.730948 
L 241.141635 339.6448 
L 252.847928 339.616691 
L 264.554222 339.829856 
L 276.260516 339.594653 
L 287.966809 339.12102 
L 299.673103 336.404713 
L 311.379397 336.710688 
L 323.085691 335.404753 
L 334.791984 338.044482 
L 346.498278 339.28474 
L 358.204572 339.554013 
L 369.910865 338.999631 
L 381.617159 340.154005 
L 393.323453 339.957281 
L 405.029747 334.487497 
L 416.73604 337.132278 
L 428.442334 333.164755 
L 440.148628 338.18478 
L 451.854921 338.450735 
L 463.561215 337.672688 
L 475.267509 335.550531 
L 486.973802 336.492868 
L 498.680096 331.914822 
L 510.38639 335.96511 
L 522.092684 338.63178 
L 533.798977 338.997691 
" style="fill:none;stroke:#ff69b4;stroke-linecap:square;"/>
    <g clip-path="url(#pafde6fe700)">
     <use style="fill:#ff69b4;stroke:#ff69b4;" x="77.253523" xlink:href="#m74874b5354" y="339.601581"/>
     <use style="fill:#ff69b4;stroke:#ff69b4;" x="88.959816" xlink:href="#m74874b5354" y="336.741045"/>
     <use style="fill:#ff69b4;stroke:#ff69b4;" x="100.66611" xlink:href="#m74874b5354" y="335.488943"/>
     <use style="fill:#ff69b4;stroke:#ff69b4;" x="112.372404" xlink:href="#m74874b5354" y="338.031078"/>
     <use style="fill:#ff69b4;stroke:#ff69b4;" x="124.078698" xlink:href="#m74874b5354" y="337.010716"/>
     <use style="fill:#ff69b4;stroke:#ff69b4;" x="135.784991" xlink:href="#m74874b5354" y="337.675615"/>
     <use style="fill:#ff69b4;stroke:#ff69b4;" x="147.491285" xlink:href="#m74874b5354" y="337.55927"/>
     <use style="fill:#ff69b4;stroke:#ff69b4;" x="159.197579" xlink:href="#m74874b5354" y="337.559497"/>
     <use style="fill:#ff69b4;stroke:#ff69b4;" x="170.903872" xlink:href="#m74874b5354" y="336.522919"/>
     <use style="fill:#ff69b4;stroke:#ff69b4;" x="182.610166" xlink:href="#m74874b5354" y="337.980551"/>
     <use style="fill:#ff69b4;stroke:#ff69b4;" x="194.31646" xlink:href="#m74874b5354" y="339.703746"/>
     <use style="fill:#ff69b4;stroke:#ff69b4;" x="206.022753" xlink:href="#m74874b5354" y="337.819227"/>
     <use style="fill:#ff69b4;stroke:#ff69b4;" x="217.729047" xlink:href="#m74874b5354" y="331.36836"/>
     <use style="fill:#ff69b4;stroke:#ff69b4;" x="229.435341" xlink:href="#m74874b5354" y="337.730948"/>
     <use style="fill:#ff69b4;stroke:#ff69b4;" x="241.141635" xlink:href="#m74874b5354" y="339.6448"/>
     <use style="fill:#ff69b4;stroke:#ff69b4;" x="252.847928" xlink:href="#m74874b5354" y="339.616691"/>
     <use style="fill:#ff69b4;stroke:#ff69b4;" x="264.554222" xlink:href="#m74874b5354" y="339.829856"/>
     <use style="fill:#ff69b4;stroke:#ff69b4;" x="276.260516" xlink:href="#m74874b5354" y="339.594653"/>
     <use style="fill:#ff69b4;stroke:#ff69b4;" x="287.966809" xlink:href="#m74874b5354" y="339.12102"/>
     <use style="fill:#ff69b4;stroke:#ff69b4;" x="299.673103" xlink:href="#m74874b5354" y="336.404713"/>
     <use style="fill:#ff69b4;stroke:#ff69b4;" x="311.379397" xlink:href="#m74874b5354" y="336.710688"/>
     <use style="fill:#ff69b4;stroke:#ff69b4;" x="323.085691" xlink:href="#m74874b5354" y="335.404753"/>
     <use style="fill:#ff69b4;stroke:#ff69b4;" x="334.791984" xlink:href="#m74874b5354" y="338.044482"/>
     <use style="fill:#ff69b4;stroke:#ff69b4;" x="346.498278" xlink:href="#m74874b5354" y="339.28474"/>
     <use style="fill:#ff69b4;stroke:#ff69b4;" x="358.204572" xlink:href="#m74874b5354" y="339.554013"/>
     <use style="fill:#ff69b4;stroke:#ff69b4;" x="369.910865" xlink:href="#m74874b5354" y="338.999631"/>
     <use style="fill:#ff69b4;stroke:#ff69b4;" x="381.617159" xlink:href="#m74874b5354" y="340.154005"/>
     <use style="fill:#ff69b4;stroke:#ff69b4;" x="393.323453" xlink:href="#m74874b5354" y="339.957281"/>
     <use style="fill:#ff69b4;stroke:#ff69b4;" x="405.029747" xlink:href="#m74874b5354" y="334.487497"/>
     <use style="fill:#ff69b4;stroke:#ff69b4;" x="416.73604" xlink:href="#m74874b5354" y="337.132278"/>
     <use style="fill:#ff69b4;stroke:#ff69b4;" x="428.442334" xlink:href="#m74874b5354" y="333.164755"/>
     <use style="fill:#ff69b4;stroke:#ff69b4;" x="440.148628" xlink:href="#m74874b5354" y="338.18478"/>
     <use style="fill:#ff69b4;stroke:#ff69b4;" x="451.854921" xlink:href="#m74874b5354" y="338.450735"/>
     <use style="fill:#ff69b4;stroke:#ff69b4;" x="463.561215" xlink:href="#m74874b5354" y="337.672688"/>
     <use style="fill:#ff69b4;stroke:#ff69b4;" x="475.267509" xlink:href="#m74874b5354" y="335.550531"/>
     <use style="fill:#ff69b4;stroke:#ff69b4;" x="486.973802" xlink:href="#m74874b5354" y="336.492868"/>
     <use style="fill:#ff69b4;stroke:#ff69b4;" x="498.680096" xlink:href="#m74874b5354" y="331.914822"/>
     <use style="fill:#ff69b4;stroke:#ff69b4;" x="510.38639" xlink:href="#m74874b5354" y="335.96511"/>
     <use style="fill:#ff69b4;stroke:#ff69b4;" x="522.092684" xlink:href="#m74874b5354" y="338.63178"/>
     <use style="fill:#ff69b4;stroke:#ff69b4;" x="533.798977" xlink:href="#m74874b5354" y="338.997691"/>
    </g>
   </g>
   <g id="patch_8">
    <path d="M 54.42625 380.52 
L 54.42625 190.26 
" style="fill:none;stroke:#000000;stroke-linecap:square;stroke-linejoin:miter;stroke-width:0.8;"/>
   </g>
   <g id="patch_9">
    <path d="M 556.62625 380.52 
L 556.62625 190.26 
" style="fill:none;stroke:#000000;stroke-linecap:square;stroke-linejoin:miter;stroke-width:0.8;"/>
   </g>
   <g id="patch_10">
    <path d="M 54.42625 380.52 
L 556.62625 380.52 
" style="fill:none;stroke:#000000;stroke-linecap:square;stroke-linejoin:miter;stroke-width:0.8;"/>
   </g>
   <g id="patch_11">
    <path d="M 54.42625 190.26 
L 556.62625 190.26 
" style="fill:none;stroke:#000000;stroke-linecap:square;stroke-linejoin:miter;stroke-width:0.8;"/>
   </g>
  </g>
 </g>
 <defs>
  <clipPath id="p18ee57c55e">
   <rect height="190.26" width="502.2" x="54.42625" y="0"/>
  </clipPath>
  <clipPath id="pafde6fe700">
   <rect height="190.26" width="502.2" x="54.42625" y="190.26"/>
  </clipPath>
 </defs>
</svg>
